<svg width="512" height="512" version="1.1" viewBox="0 0 384 384" xmlns="http://www.w3.org/2000/svg"><rect x="23.25" y="23.25" width="337.5" height="345" fill="#4aaee6"/><path d="m42.563 37.582v0.26268h-5.2115v308.31h5.2115v0.26268h298.87v-0.26268h5.2115v-308.31h-5.2115v-0.26268h-149.44zm64.756 69.468l29.472 0.56104c28.124 0.53465 29.852 0.76186 37.774 4.952 9.7686 5.1667 14.003 9.4907 19.257 19.662 5.3009 10.263 5.5161 32.125 0.42482 43.171-8.013 17.384-23.463 26.491-47.254 27.848l-14.687 0.83667-0.45728 26.635-0.454 26.635-11.341 0.11999c-6.2381 0.0653-11.655-0.1935-12.038-0.57402-0.38276-0.3805-0.69724-34.253-0.69724-75.27zm24.906 21.854v53.581l11.49-0.82371c20.324-1.4542 29.19-9.662 29.19-27.021 0-17.782-9.1014-25.728-29.472-25.733zm117.25 15.852c3.4444-7e-3 7.0853 0.25635 10.903 0.79778 6.4375 0.91298 12.366 2.0664 13.173 2.5652 1.6565 1.0238 2.032 21.175 0.42483 22.782-0.5724 0.57238-3.3086-0.12973-6.0806-1.5631-2.772-1.4334-9.2148-2.9352-14.318-3.337-11.896-0.93667-17.395 1.7569-18.089 8.8631-0.56846 5.8141 4.0442 10.227 17.943 17.168 11.617 5.8017 20.083 13.255 23.431 20.625 8.4655 18.638-1.4542 38.743-22.15 44.889-9.1956 2.7308-17.976 2.9686-29.015 0.78805-12.913-2.5508-13.776-3.5901-13.776-16.581 0-6.3605 0.23378-11.564 0.51889-11.564 0.28506 0 3.7439 1.5589 7.6858 3.4635 10.076 4.8683 23.002 5.9602 29.68 2.5068 4.3725-2.2611 5.2861-3.7122 5.2861-8.3896 0-6.4063-3.1737-9.2572-21.375-19.208-15.235-8.3294-20.64-15.577-21.482-28.798-1.3878-21.794 13.128-34.959 37.239-35.008z" fill="#193d7a"/><path d="m23.25 360.75v7.5h337.5v-7.5z" fill="#3a8ab8"/></svg>
