<svg width="512" height="512" version="1.1" viewBox="0 0 384 384" xmlns="http://www.w3.org/2000/svg"><defs><clipPath><rect width="384" height="384"/></clipPath></defs><circle cx="192" cy="192" r="168.75" fill="#fff" style="paint-order:markers stroke fill"/><path transform="scale(.75)" d="m211.29 80.244 5.168 12.92 84.691 47.846 73.145 91.73 53.172 146.64 8.2946 11.467c26.245-36.865 44.452-76.003 44.452-124.77 0-1.6253-0.0284-3.2442-0.0625-4.8613-1.0432 46.798-16.289 90.036-41.609 125.6l-11.074-17.434-53.172-146.64-73.145-91.73zm-19.965 39.219 4.9863 11.91 37.119 14.215-4.7246-11.809zm12.965 40.963-90.016 76.043-7.3809 42.928 1.3398 2.209 6.041-35.137 93.109-78.656z" opacity=".3" stroke-width="1.3333"/><path d="m192 23.25c-92.891 0-168.16 75.559-168.16 168.81 0 86.281 64.434 157.34 147.64 167.5l25.07-80.562-4.3945-72.883-46.559-1.6367-19.371 27.293-17.09 1.7969-13.512 1.4727-15.465-25.496 5.5352-32.195 69.832-58.992-12.043-28.762 31.578 12.094-16.605-41.508 67.395 38.074 54.859 68.797 39.879 109.98 8.3047 13.074c19.684-27.648 31.254-61.477 31.254-98.055 0-93.25-75.266-168.81-168.16-168.81z" fill="#b7164b"/></svg>
