<svg width="512" height="512" version="1.1" viewBox="0 0 384 384" xmlns="http://www.w3.org/2000/svg" xmlns:xlink="http://www.w3.org/1999/xlink"><defs><filter id="alpha" x="0%" y="0%" width="100%" height="100%"><feColorMatrix in="SourceGraphic" values="0 0 0 0 1 0 0 0 0 1 0 0 0 0 1 0 0 0 1 0"/></filter><clipPath><rect width="384" height="384"/></clipPath><mask id="b"><g filter="url(#alpha)"><rect width="384" height="384" fill-opacity=".2"/></g></mask><clipPath id="c"><rect width="384" height="384"/></clipPath><g id="a" clip-path="url(#c)"><path d="m78 24c-9.9727 0-18 8.0273-18 18v300c0 9.9727 8.0273 18 18 18h30v-336z"/></g><clipPath><rect width="384" height="384"/></clipPath><clipPath><rect width="384" height="384"/></clipPath><clipPath><rect width="384" height="384"/></clipPath></defs><path d="m78 24c-9.9727 0-18 8.0273-18 18v300c0 9.9727 8.0273 18 18 18h228c9.9727 0 18-8.0273 18-18v-300c0-9.9727-8.0273-18-18-18z" fill="#17a185"/><path d="m386.03 283.5c0 53.02-42.98 96-96 96s-96-42.98-96-96 42.98-96 96-96 96 42.98 96 96z" fill-rule="evenodd" opacity=".3"/><use width="100%" height="100%" mask="url(#b)" xlink:href="#a"/><path d="m228 31.5v168l24-24 24 24v-168z" opacity=".3"/><path d="m228 24v168l24-24 24 24v-168z" fill="#fff"/><path transform="scale(.75)" d="m80 446v10c0 13.297 10.703 24 24 24h304c13.297 0 24-10.703 24-24v-10c0 13.297-10.703 24-24 24h-304c-13.297 0-24-10.703-24-24z" opacity=".3" stroke-width="1.3333"/><path d="m384 276c0 53.02-42.98 96-96 96s-96-42.98-96-96 42.98-96 96-96 96 42.98 96 96z" fill="#8a3fab" fill-rule="evenodd"/><path d="m275.57 228-1.0586 12.645c-4.0078 1.4844-7.7344 3.6406-11.02 6.375l-11.492-5.4102-12 20.785 10.434 7.2422c-0.3711 2.1016-0.56641 4.2305-0.57813 6.3633 4e-3 2.1406 0.1875 4.2773 0.55078 6.3867l-10.406 7.2266 12 20.785 11.465-5.3984c3.2969 2.7227 7.0352 4.8633 11.051 6.3359l1.0586 12.668h24l1.0586-12.641c4.0078-1.4883 7.7344-3.6445 11.02-6.3789l11.492 5.4141 12-20.785-10.434-7.2461c0.37109-2.1016 0.56641-4.2305 0.57813-6.3633-4e-3 -2.1406-0.1875-4.2774-0.55079-6.3867l10.406-7.2188-12-20.785-11.465 5.3945c-3.2969-2.7226-7.0312-4.8633-11.047-6.332l-1.0586-12.672h-24zm12 34.285c7.5781 0 13.719 6.1406 13.719 13.719 0 7.5742-6.1406 13.715-13.719 13.715-7.5742 0-13.715-6.1406-13.715-13.715 0-7.5781 6.1406-13.719 13.715-13.719z" fill="#fff"/><path transform="scale(.75)" d="m104 32c-13.297 0-24 10.703-24 24v10c0-13.297 10.703-24 24-24h304c13.297 0 24 10.703 24 24v-10c0-13.297-10.703-24-24-24h-304z" fill="#f4f4f4" opacity=".3" stroke-width="1.3333"/></svg>
