
<svg width="512" height="512" version="1.1" viewBox="0 0 384 384" xmlns="http://www.w3.org/2000/svg" xmlns:xlink="http://www.w3.org/1999/xlink"><defs><filter id="alpha" x="0%" y="0%" width="100%" height="100%"><feColorMatrix in="SourceGraphic" values="0 0 0 0 1 0 0 0 0 1 0 0 0 0 1 0 0 0 1 0"/></filter><clipPath><rect width="384" height="384"/></clipPath><mask id="b"><g filter="url(#alpha)"><rect width="384" height="384" fill-opacity=".2"/></g></mask><clipPath id="c"><rect width="384" height="384"/></clipPath><g id="a" clip-path="url(#c)"><path d="m78 24c-9.9727 0-18 8.0273-18 18v300c0 9.9727 8.0273 18 18 18h30v-336z"/></g><clipPath><rect width="384" height="384"/></clipPath><clipPath><rect width="384" height="384"/></clipPath><clipPath><rect width="384" height="384"/></clipPath></defs><path d="m78 24c-9.9727 0-18 8.0273-18 18v300c0 9.9727 8.0273 18 18 18h228c9.9727 0 18-8.0273 18-18v-300c0-9.9727-8.0273-18-18-18z" fill="#17a185"/><use width="100%" height="100%" mask="url(#b)" xlink:href="#a"/><path d="m228 31.5v168l24-24 24 24v-168z" opacity=".3"/><path d="m228 24v168l24-24 24 24v-168z" fill="#fff"/><path transform="scale(.75)" d="m80 446v10c0 13.297 10.703 24 24 24h304c13.297 0 24-10.703 24-24v-10c0 13.297-10.703 24-24 24h-304c-13.297 0-24-10.703-24-24z" opacity=".3" stroke-width="1.3333"/><g fill-rule="evenodd"><path d="m384 283.5c0 53.02-42.98 96-96 96s-96-42.98-96-96 42.98-96 96-96 96 42.98 96 96z" opacity=".3"/><path d="m384 276c0 53.02-42.98 96-96 96s-96-42.98-96-96 42.98-96 96-96 96 42.98 96 96z" fill="#d41717"/><path d="m288 234c-11.633 0.12891-23.336 3.1094-33.469 9.5391-4.0391 2.9453-8.8867 6.75-12.539 10.582-5.7461 6.3047-10.668 13.652-13.992 21.891 9.1133 22.512 29.141 39.012 51.176 41.449 14.457 1.832 29.586-0.96485 42.293-8.9766 4.0391-2.9453 8.8867-6.75 12.539-10.582 5.7461-6.3164 10.668-13.668 13.992-21.891-9.1094-22.512-29.145-39.016-51.176-41.449-2.9297-0.39063-5.8828-0.5625-8.8242-0.5625zm0.0234 18c12.84-0.28516 24.207 11.207 23.965 23.977 0.41016 14.113-13.648 26.297-27.551 23.66-14.039-1.6484-23.906-17.406-19.289-30.75 2.9531-9.8164 12.598-16.988 22.887-16.875zm-0.0234 12c-3.1875 0-6.2422 1.2656-8.4922 3.5195s-3.5117 5.3086-3.5078 8.4922c4e-3 6.6211 5.375 11.988 12 11.988s11.996-5.3672 12-11.988c-4e-3 -6.6211-5.375-11.988-12-11.988z" fill="#fff"/></g><path transform="scale(.75)" d="m104 32c-13.297 0-24 10.703-24 24v10c0-13.297 10.703-24 24-24h304c13.297 0 24 10.703 24 24v-10c0-13.297-10.703-24-24-24h-304z" fill="#fff" opacity=".3" stroke-width="1.3333"/></svg>
