<svg width="512" height="512" version="1.1" viewBox="0 0 384 384" xmlns="http://www.w3.org/2000/svg" xmlns:xlink="http://www.w3.org/1999/xlink"><defs><filter id="alpha" x="0%" y="0%" width="100%" height="100%"><feColorMatrix in="SourceGraphic" values="0 0 0 0 1 0 0 0 0 1 0 0 0 0 1 0 0 0 1 0"/></filter><clipPath><rect width="384" height="384"/></clipPath><clipPath><rect width="384" height="384"/></clipPath><mask id="b"><g filter="url(#alpha)"><rect width="384" height="384" fill-opacity=".10196"/></g></mask><clipPath id="f"><rect width="384" height="384"/></clipPath><g id="a" clip-path="url(#f)"><path d="m192 24c-93.07 0-168 74.93-168 168 0 0.67969 0.066406 1.3438 0.10547 2.0156 2.1094-91.211 76.16-164.02 167.89-164.02s165.79 72.805 167.89 164.02c0.039063-0.67188 0.10547-1.3359 0.10547-2.0156 0-93.07-74.93-168-168-168z" fill="#fff"/></g><linearGradient id="c" x1="438.33" x2="166.83" y1="416.56" y2="188.87" gradientTransform="scale(.75)" gradientUnits="userSpaceOnUse"><stop stop-color="#316fd8" offset="0"/><stop stop-color="#5ebdab" offset="1"/></linearGradient><clipPath><rect width="384" height="384"/></clipPath><clipPath><rect width="384" height="384"/></clipPath><clipPath><rect width="384" height="384"/></clipPath><clipPath><rect width="384" height="384"/></clipPath><clipPath><rect width="384" height="384"/></clipPath><clipPath><rect width="384" height="384"/></clipPath><clipPath><rect width="384" height="384"/></clipPath><clipPath><rect width="384" height="384"/></clipPath><clipPath><rect width="384" height="384"/></clipPath><clipPath><rect width="384" height="384"/></clipPath><clipPath><rect width="384" height="384"/></clipPath><clipPath><rect width="384" height="384"/></clipPath><clipPath><rect width="384" height="384"/></clipPath><clipPath><rect width="384" height="384"/></clipPath><clipPath><rect width="384" height="384"/></clipPath><clipPath><rect width="384" height="384"/></clipPath><clipPath><rect width="384" height="384"/></clipPath><clipPath><rect width="384" height="384"/></clipPath><clipPath><rect width="384" height="384"/></clipPath><clipPath><rect width="384" height="384"/></clipPath><clipPath><rect width="384" height="384"/></clipPath><clipPath><rect width="384" height="384"/></clipPath><clipPath><rect width="384" height="384"/></clipPath><clipPath><rect width="384" height="384"/></clipPath><clipPath><rect width="384" height="384"/></clipPath><clipPath><rect width="384" height="384"/></clipPath><clipPath><rect width="384" height="384"/></clipPath><clipPath><rect width="384" height="384"/></clipPath><clipPath><rect width="384" height="384"/></clipPath><clipPath><rect width="384" height="384"/></clipPath><clipPath><rect width="384" height="384"/></clipPath><clipPath><rect width="384" height="384"/></clipPath><clipPath><rect width="384" height="384"/></clipPath><clipPath><rect width="384" height="384"/></clipPath><clipPath><rect width="384" height="384"/></clipPath><clipPath><rect width="384" height="384"/></clipPath><clipPath><rect width="384" height="384"/></clipPath><clipPath><rect width="384" height="384"/></clipPath><clipPath><rect width="384" height="384"/></clipPath><clipPath><rect width="384" height="384"/></clipPath><clipPath><rect width="384" height="384"/></clipPath><clipPath><rect width="384" height="384"/></clipPath><clipPath><rect width="384" height="384"/></clipPath><clipPath><rect width="384" height="384"/></clipPath><clipPath><rect width="384" height="384"/></clipPath><clipPath><rect width="384" height="384"/></clipPath><clipPath><rect width="384" height="384"/></clipPath><clipPath><rect width="384" height="384"/></clipPath><clipPath><rect width="384" height="384"/></clipPath><clipPath><rect width="384" height="384"/></clipPath><clipPath id="g"><path d="m111 119h177v23h-177z"/></clipPath><clipPath><path d="m368.64 199.88c0-93.234-75.602-168.75-168.75-168.75-93.152 0-168.75 75.516-168.75 168.75s75.598 168.75 168.75 168.75c93.148 0 168.75-75.516 168.75-168.75z"/></clipPath><clipPath id="e"><path d="m177 130h45v89h-45z"/></clipPath><clipPath><path d="m368.64 199.88c0-93.234-75.602-168.75-168.75-168.75-93.152 0-168.75 75.516-168.75 168.75s75.598 168.75 168.75 168.75c93.148 0 168.75-75.516 168.75-168.75z"/></clipPath><clipPath id="d"><path d="m111 207h177v89h-177z"/></clipPath><clipPath><path d="m368.64 199.88c0-93.234-75.602-168.75-168.75-168.75-93.152 0-168.75 75.516-168.75 168.75s75.598 168.75 168.75 168.75c93.148 0 168.75-75.516 168.75-168.75z"/></clipPath><clipPath id="h"><rect width="384" height="384"/></clipPath><g clip-path="url(#h)"><g clip-path="url(#g)"></g><g clip-path="url(#e)"></g><g clip-path="url(#d)"></g></g><clipPath><rect width="384" height="384"/></clipPath><clipPath><rect width="384" height="384"/></clipPath><clipPath><rect width="384" height="384"/></clipPath><clipPath><rect width="384" height="384"/></clipPath><clipPath><rect width="384" height="384"/></clipPath><clipPath><rect width="384" height="384"/></clipPath><clipPath><rect width="384" height="384"/></clipPath><clipPath><rect width="384" height="384"/></clipPath><clipPath><rect width="384" height="384"/></clipPath><clipPath><rect width="384" height="384"/></clipPath><clipPath><rect width="384" height="384"/></clipPath></defs><path d="m192 24c-93.07 0-168 74.93-168 168 0 93.07 74.93 168 168 168 93.07 0 168-74.93 168-168 0-93.07-74.93-168-168-168z" fill="#fff"/><path d="m194.51 31.617c-14.473 14.159-26.106 30.67-34.55 48.642-5.2539-0.49514-10.575-0.75879-15.958-0.75879-32.941 0.03906-65.145 9.7617-92.602 27.961-17.281 26.414-27.398 57.984-27.398 92.039 0 8.7774 0.87108 9.8281 2.1562 18.234 10.699-56.66 60.184-90.199 117.84-90.234 0.58829 0 1.173 0.0135 1.7593 0.022-1.1481 7.8948-1.7495 15.905-1.7593 23.978 0.0239 70.115 43.028 130.28 104.22 155.41-16.977 29.715-28.569 43.434-64.139 50.15 8.4062 1.2852 6.7459-2.1583 15.523-2.1583 34.074 0 64.991-7.9676 92.086-27.422 2.9918-5.7405 0.93907-1.4039 4.4024-8.787 4.5099 0.42411 1.7349 0.24718 6.3425 0.3083 15.312-15.035 27.719-32.988 36.375-52.992-11.078 3.3242-15.247 5.4627-26.814 5.494-0.58439 0-1.1652-0.0136-1.7476-0.022 1.1483-7.9096 1.7399-15.921 1.7476-23.978 0-70.204-43.065-130.34-104.21-155.46 11.376-19.931 28.435-36.566 49.652-47.396-19.363-8.1523-40.613-12.703-62.93-13.031zm-1.7124 106.23c41.955 18.698 71.205 60.759 71.205 109.66-3e-3 4.6117-0.27073 9.1697-0.78516 13.661-41.96-18.695-71.215-60.76-71.215-109.66 7.5e-4 -4.5989 0.27947-9.1551 0.79542-13.657z" fill="#10192e" opacity=".3"/><path d="m194.51 24.117c-14.473 14.159-26.106 30.67-34.55 48.642-5.2539-0.49514-10.575-0.75879-15.958-0.75879-32.941 0.039062-65.145 9.7617-92.602 27.961-17.281 26.414-27.398 57.984-27.398 92.039 0 8.7774 0.87109 17.328 2.1562 25.734 10.699-56.66 60.184-97.699 117.84-97.734 0.58829 0 1.173 0.0135 1.7593 0.022-1.1481 7.8948-1.7495 15.905-1.7593 23.978 0.0239 70.115 43.028 130.28 104.22 155.41-16.977 29.715-46.388 51.72-81.958 58.437 8.4062 1.2852 16.957 2.1562 25.734 2.1562 34.074 0 65.66-10.121 92.086-27.422 4.5379-6.8551 8.5469-14.005 12.01-21.388 4.5099 0.42411 9.0696 0.67863 13.677 0.73975 15.312-15.035 27.719-32.988 36.375-52.992-11.078 3.3242-22.582 5.0312-34.148 5.0625-0.58438 0-1.1652-0.0136-1.7476-0.022 1.1483-7.9096 1.7399-15.921 1.7476-23.978 0-70.204-43.065-130.34-104.21-155.46 11.376-19.931 28.435-36.566 49.652-47.396-19.363-8.1523-40.613-12.703-62.93-13.031zm-1.7124 106.23c41.955 18.698 71.205 60.759 71.205 109.66-3e-3 4.6117-0.27074 9.1697-0.78516 13.661-41.96-18.695-71.215-60.76-71.215-109.66 1e-3 -4.5989 0.27946-9.1551 0.79541-13.657z" fill="url(#c)"/><use width="100%" height="100%" mask="url(#b)" xlink:href="#a"/><path transform="scale(.75)" d="m32.062 251c-0.036083 1.6629-0.0625 3.3281-0.0625 5 0 124.09 99.906 224 224 224 124.09 0 224-99.906 224-224 0-1.6719-0.02642-3.3371-0.0625-5-2.6422 121.77-101.52 219-223.94 219-122.42 0-221.3-97.235-223.94-219z" opacity=".3" stroke-width="1.3333"/><path transform="scale(.75)" d="m256 32c-124.09 0-224 99.906-224 224 0 1.6719 0.026417 3.3371 0.0625 5 2.6422-121.77 101.52-219 223.94-219 122.42 0 221.3 97.235 223.94 219 0.03608-1.6629 0.0625-3.3281 0.0625-5 0-124.09-99.906-224-224-224z" opacity=".1" stroke-width="1.3333"/></svg>
