<svg width="512" height="512" version="1.1" viewBox="0 0 384 384" xmlns="http://www.w3.org/2000/svg" xmlns:xlink="http://www.w3.org/1999/xlink"><defs><clipPath><rect width="384" height="384"/></clipPath><clipPath><rect width="384" height="384"/></clipPath></defs><path d="m192.75 360h151.87c9.3503 0 16.88-7.5297 16.88-16.88v-303.74c0-9.3503-7.5297-16.88-16.88-16.88h-151.87z" fill="#d41717" stroke-width="1.0045"/><use transform="matrix(2.2489 0 0 2.2489 79.5 87)" width="100%" height="100%" fill="#000000" opacity=".3" stroke="#101010" stroke-width="19.7" xlink:href="#cross"/><g transform="matrix(2.2489 0 0 2.2489 79.5 79.5)"><path id="cross" d="m44.2 44.2a95 95 0 0 0-8.45-34.35h28.55a95 95 0 0 0-8.45 34.35 95 95 0 0 0 34.35-8.45v28.55a95 95 0 0 0-34.35-8.45 95 95 0 0 0 8.45 34.35h-28.55a95 95 0 0 0 8.45-34.35 95 95 0 0 0-34.35 8.45v-28.55a95 95 0 0 0 34.35 8.45z"/><g fill="none"><use width="100%" height="100%" stroke="#ffffff" stroke-width="19.7" xlink:href="#cross"/><use width="100%" height="100%" stroke="#000000" stroke-width="10.7" xlink:href="#cross"/><use width="100%" height="100%" stroke="#ffffff" stroke-width="5.1" xlink:href="#cross"/></g><use width="100%" height="100%" xlink:href="#cross"/></g><path d="m192.75 22.5h-151.88c-9.3503 0-16.876 7.5218-16.876 16.876v303.75c0 9.3503 7.5257 16.876 16.876 16.876h151.88z" fill="#0aa15c" stroke-width="1.0045"/><path d="m192 87-28.075 85.736-90.212 0.20508 72.86 53.197-27.681 85.862 73.109-52.859 0.75 0.54199v-170.39z" opacity=".3" stroke-width=".79987"/><g transform="matrix(.79987 0 0 .79987 73.712 73.711)"><path transform="matrix(.93766 0 0 .93766 -92.155 -92.155)" d="m256 106-37.434 114.31-120.28 0.27344 97.146 70.93-36.908 114.48 97.479-70.479 1 0.72266v-227.19l-1-3.0547z" fill="#fff" stroke-width="1.0665"/></g><path transform="scale(.75)" d="m481 448.5c0 12.467-10.041 22.506-22.508 22.506h-202.49-0.0039-202.5c-12.467 0-22.502-10.033-22.502-22.5v10c0 12.467 10.035 22.5 22.502 22.5h202.5 0.0039 202.49c12.467 0 22.508-10.039 22.508-22.506v-10z" opacity=".3" stroke-width="1.3393"/><path transform="scale(.75)" d="m256 30.998v0.003906h-202.5c-12.467 0-22.502 10.03-22.502 22.502v10c0-12.472 10.035-22.502 22.502-22.502h202.5v-0.003906h202.49c12.467 0 22.508 10.041 22.508 22.508v-10c-1e-5 -12.467-10.041-22.508-22.508-22.508h-202.49z" fill="#fff" opacity=".3" stroke-width="1.3393"/></svg>
