<svg width="512" height="512" version="1.1" viewBox="0 0 384 384" xmlns="http://www.w3.org/2000/svg"><path d="m279.74 39.898c0-4.5781-1.6367-8.5195-4.8828-11.766-3.2461-3.2461-7.1875-4.8828-11.766-4.8828h-229c-4.5781 0-8.5195 1.6367-11.766 4.8828-3.2461 3.2461-4.8828 7.1875-4.8828 11.766v198.68c0 4.5781 1.6367 8.5195 4.8828 11.766 3.2461 3.2461 7.1875 4.8828 11.766 4.8828h18.062v46.617c0 3.6914 1.3047 6.8555 3.9141 9.4648 2.6094 2.6055 5.7695 3.9102 9.4609 3.9102 3.6914 0 6.8555-1.3047 9.4609-3.9102l56.082-56.082h17.59v-125.39c0-4.5781 1.6367-8.5195 4.8867-11.766 3.2461-3.2461 7.1836-4.8867 11.762-4.8867h114.43z" fill="#4aaee6"/><path d="m362.06 134.33c0-4.5781-1.6367-8.5195-4.8828-11.766-3.2461-3.2461-7.1875-4.8867-11.766-4.8867h-184.61c-4.5781 0-8.5156 1.6406-11.762 4.8867-3.25 3.2461-4.8867 7.1875-4.8867 11.766v154.28c0 4.5781 1.6367 8.5195 4.8867 11.766 3.2461 3.2461 7.1836 4.8828 11.762 4.8828h87.629l56.082 56.078c2.6055 2.6094 5.7695 3.9141 9.4609 3.9141 3.6914 0 6.8516-1.3047 9.4609-3.9141 2.6094-2.6055 3.9141-5.7695 3.9141-9.4609v-46.617h18.062c4.5781 0 8.5195-1.6367 11.766-4.8828 3.2461-3.2461 4.8828-7.1875 4.8828-11.766zm-163.13 93.648c-5.3008 0-9.7969-1.8867-13.543-5.6328-3.7461-3.7461-5.6055-8.2422-5.6055-13.543 0-5.2695 1.8594-9.793 5.6055-13.539 3.7461-3.7461 8.2422-5.6055 13.543-5.6055 5.2969 0 9.793 1.8594 13.539 5.6055 3.7461 3.7461 5.6055 8.2695 5.6055 13.539 0 5.3008-1.8594 9.7969-5.6055 13.543-3.7461 3.7461-8.2422 5.6328-13.539 5.6328zm73.531-19.176c0 5.3008-1.8867 9.7969-5.6328 13.543-3.7461 3.7461-8.2422 5.6328-13.512 5.6328-5.3008 0-9.8242-1.8867-13.57-5.6328-3.7461-3.7461-5.6055-8.2422-5.6055-13.543 0-5.2695 1.8594-9.793 5.6055-13.539 3.7461-3.7461 8.2695-5.6055 13.57-5.6055 5.2695 0 9.7656 1.8594 13.512 5.6055 3.7461 3.7461 5.6328 8.2695 5.6328 13.539zm54.387 0c0 5.3008-1.8867 9.7969-5.6328 13.543-3.7461 3.7461-8.2422 5.6328-13.543 5.6328-5.2695 0-9.793-1.8867-13.539-5.6328-3.7461-3.7461-5.6055-8.2422-5.6055-13.543 0-5.2695 1.8594-9.793 5.6055-13.539 3.7461-3.7461 8.2695-5.6055 13.539-5.6055 5.3008 0 9.7969 1.8594 13.543 5.6055 3.7461 3.7461 5.6328 8.2695 5.6328 13.539z" opacity=".3"/><path d="m366.56 129.83c0-4.5781-1.6367-8.5195-4.8828-11.766-3.2461-3.2461-7.1875-4.8867-11.766-4.8867h-184.61c-4.5781 0-8.5156 1.6406-11.762 4.8867-3.25 3.2461-4.8867 7.1875-4.8867 11.766v154.28c0 4.5781 1.6367 8.5195 4.8867 11.766 3.2461 3.2461 7.1836 4.8828 11.762 4.8828h87.629l56.082 56.078c2.6055 2.6094 5.7695 3.9141 9.4609 3.9141 3.6914 0 6.8516-1.3047 9.4609-3.9141 2.6094-2.6055 3.9141-5.7695 3.9141-9.4609v-46.617h18.062c4.5781 0 8.5195-1.6367 11.766-4.8828 3.2461-3.2461 4.8828-7.1875 4.8828-11.766zm-163.13 93.648c-5.3008 0-9.7969-1.8867-13.543-5.6328-3.7461-3.7461-5.6055-8.2422-5.6055-13.543 0-5.2695 1.8594-9.793 5.6055-13.539 3.7461-3.7461 8.2422-5.6055 13.543-5.6055 5.2969 0 9.793 1.8594 13.539 5.6055 3.7461 3.7461 5.6055 8.2695 5.6055 13.539 0 5.3008-1.8594 9.7969-5.6055 13.543-3.7461 3.7461-8.2422 5.6328-13.539 5.6328zm73.531-19.176c0 5.3008-1.8867 9.7969-5.6328 13.543-3.7461 3.7461-8.2422 5.6328-13.512 5.6328-5.3008 0-9.8242-1.8867-13.57-5.6328-3.7461-3.7461-5.6055-8.2422-5.6055-13.543 0-5.2695 1.8594-9.793 5.6055-13.539 3.7461-3.7461 8.2695-5.6055 13.57-5.6055 5.2695 0 9.7656 1.8594 13.512 5.6055 3.7461 3.7461 5.6328 8.2695 5.6328 13.539zm54.387 0c0 5.3008-1.8867 9.7969-5.6328 13.543-3.7461 3.7461-8.2422 5.6328-13.543 5.6328-5.2695 0-9.793-1.8867-13.539-5.6328-3.7461-3.7461-5.6055-8.2422-5.6055-13.543 0-5.2695 1.8594-9.793 5.6055-13.539 3.7461-3.7461 8.2695-5.6055 13.539-5.6055 5.3008 0 9.7969 1.8594 13.543 5.6055 3.7461 3.7461 5.6328 8.2695 5.6328 13.539z" fill="#fff"/><path d="m203.43 189.66c-5.3008 0-9.7969 1.8594-13.543 5.6055-3.7461 3.7461-5.6055 8.2695-5.6055 13.539 0 5.3008 1.8594 9.7969 5.6055 13.543 3.7461 3.7461 8.2422 5.6328 13.543 5.6328 5.2969 0 9.793-1.8867 13.539-5.6328 3.7461-3.7461 5.6055-8.2422 5.6055-13.543 0-5.2695-1.8594-9.793-5.6055-13.539-3.7461-3.7461-8.2422-5.6055-13.539-5.6055zm54.383 0c-5.2969 0-9.8203 1.8594-13.566 5.6055-3.7461 3.7461-5.6055 8.2695-5.6055 13.539 0 5.3008 1.8594 9.7969 5.6055 13.543 3.7461 3.7461 8.2695 5.6328 13.566 5.6328 5.2734 0 9.7695-1.8867 13.516-5.6328 3.7461-3.7461 5.6328-8.2422 5.6328-13.543 0-5.2695-1.8867-9.793-5.6328-13.539-3.7461-3.7461-8.2422-5.6055-13.516-5.6055zm54.359 0c-5.2695 0-9.793 1.8594-13.539 5.6055-3.7461 3.7461-5.6055 8.2695-5.6055 13.539 0 5.3008 1.8594 9.7969 5.6055 13.543 3.7461 3.7461 8.2695 5.6328 13.539 5.6328 5.3008 0 9.7969-1.8867 13.543-5.6328 3.7461-3.7461 5.6328-8.2422 5.6328-13.543 0-5.2695-1.8867-9.793-5.6328-13.539-3.7461-3.7461-8.2422-5.6055-13.543-5.6055z" opacity=".1"/><path d="m203.43 185.16c-5.3008 0-9.7969 1.8594-13.543 5.6055-3.7461 3.7461-5.6055 8.2695-5.6055 13.539 0 5.3008 1.8594 9.7969 5.6055 13.543 3.7461 3.7461 8.2422 5.6328 13.543 5.6328 5.2969 0 9.793-1.8867 13.539-5.6328 3.7461-3.7461 5.6055-8.2422 5.6055-13.543 0-5.2695-1.8594-9.793-5.6055-13.539-3.7461-3.7461-8.2422-5.6055-13.539-5.6055zm54.383 0c-5.2969 0-9.8203 1.8594-13.566 5.6055-3.7461 3.7461-5.6055 8.2695-5.6055 13.539 0 5.3008 1.8594 9.7969 5.6055 13.543 3.7461 3.7461 8.2695 5.6328 13.566 5.6328 5.2734 0 9.7695-1.8867 13.516-5.6328 3.7461-3.7461 5.6328-8.2422 5.6328-13.543 0-5.2695-1.8867-9.793-5.6328-13.539-3.7461-3.7461-8.2422-5.6055-13.516-5.6055zm54.359 0c-5.2695 0-9.793 1.8594-13.539 5.6055-3.7461 3.7461-5.6055 8.2695-5.6055 13.539 0 5.3008 1.8594 9.7969 5.6055 13.543 3.7461 3.7461 8.2695 5.6328 13.539 5.6328 5.3008 0 9.7969-1.8867 13.543-5.6328 3.7461-3.7461 5.6328-8.2422 5.6328-13.543 0-5.2695-1.8867-9.793-5.6328-13.539-3.7461-3.7461-8.2422-5.6055-13.543-5.6055z" fill="#ccc"/><path transform="scale(.75)" d="m23.25 308.1v10c0 6.1042 2.1816 11.359 6.5098 15.688 4.3281 4.3281 9.5833 6.5098 15.688 6.5098h24.084v-10h-24.084c-6.1042-1e-5 -11.359-2.1817-15.688-6.5098-4.3281-4.3281-6.5098-9.5833-6.5098-15.688zm151.51 22.197-74.777 74.775c-3.4739 3.474-7.6914 5.2148-12.613 5.2148-4.9219 0-9.1361-1.7409-12.615-5.2148-3.4792-3.4792-5.2188-7.6973-5.2188-12.619v10c0 4.9219 1.7396 9.14 5.2188 12.619 3.4792 3.474 7.6934 5.2148 12.615 5.2148 4.9219 0 9.1393-1.7409 12.613-5.2148l74.777-74.775h23.453v-10z" opacity=".3"/></svg>
