<svg width="512" height="512" version="1.1" viewBox="0 0 384 384" xmlns="http://www.w3.org/2000/svg" xmlns:xlink="http://www.w3.org/1999/xlink"><defs><clipPath><rect width="384" height="384"/></clipPath><clipPath><rect width="384" height="384"/></clipPath><clipPath><rect width="384" height="384"/></clipPath></defs><g transform="translate(.0058008 -.0019651)"><path d="m161.97 65.215c0 11.645-9.4492 21.094-21.09 21.094s-21.09-9.4492-21.09-21.094c0-11.645 9.4492-21.094 21.09-21.094s21.09 9.4492 21.09 21.094" fill="#fff"/><path d="m189.97 23.25c-13.891 0.05469-27.191 1.2656-38.887 3.2891-34.43 6.0469-40.699 18.621-40.699 41.867v30.715h81.387v10.223h-111.93c-23.676 0-44.367 14.062-50.852 40.809-7.4648 30.66-7.8594 49.824 0 81.789 5.7656 23.84 19.559 40.812 43.219 40.812h23.941v-40.754c0-26.539 23.281-49.824 50.91-49.824h85.195c22.621 0 44.047-18.465 44.047-40.926v-72.676c0-21.812-21.918-38.238-44.047-41.863-13.945-2.3086-28.441-3.3477-42.316-3.293m-43.992 24.5c8.4102 0 15.27 6.918 15.27 15.438 0 8.4688-6.8594 15.273-15.27 15.273-8.4609 0-15.324-6.8047-15.324-15.273 0-8.5078 6.8047-15.438 15.324-15.438" fill="#357aef"/><path d="m260.44 318.34c0 11.645-9.4492 21.098-21.09 21.098-11.695 0-21.145-9.4531-21.145-21.098 0-11.641 9.4492-21.094 21.145-21.094 11.641 0 21.09 9.4531 21.09 21.094" fill="#fff"/><path d="m287.89 109.32v35.762c0 27.688-23.773 47.742-50.852 47.742h-89.305c-22.238 0-40.699 22.191-40.699 44.227v76.688c0 21.809 19.164 34.609 40.699 40.867 25.758 7.4648 53.82 8.8984 84.637 0 20.484-5.8789 40.699-17.691 40.699-40.867v-30.715h-81.273v-10.223h122.03c23.621 0 32.461-16.371 40.699-40.812 8.5078-25.215 8.0703-49.5 0-81.789-5.875-23.344-17.023-40.809-40.699-40.809m-76.285 194.14c8.4102 0 15.27 6.8047 15.27 15.273 0 8.4648-6.8047 15.441-15.27 15.441-8.4609 0-15.324-6.9766-15.324-15.441 0-8.4688 6.8633-15.273 15.324-15.273" fill="#ffc62f"/><path transform="scale(.75)" d="m253.3 31c-18.521 0.07293-36.256 1.6888-51.85 4.3867-45.906 8.0625-54.266 24.827-54.266 55.822v10c0-30.995 8.3594-47.76 54.266-55.822 15.594-2.6979 33.329-4.3138 51.85-4.3867l-0.0371 0.22461c18.5-0.07292 37.828 1.3125 56.422 4.3906 29.505 4.8333 58.73 26.735 58.73 55.818v-10c0-29.083-29.225-50.985-58.73-55.818-18.594-3.0781-37.922-4.4635-56.422-4.3906zm130.56 114.76v10l34.584 0.0937c31.568 0 46.432 23.287 54.266 54.412 4.9456 19.787 7.7349 37.317 8.2109 53.752 0.58384-19.326-2.2492-39.899-8.2109-63.752-7.8333-31.125-22.698-54.412-54.266-54.412zm-277.4 0.0371c-31.568 0-59.155 18.749-67.801 54.41-5.5365 22.74-8.1511 40.738-7.582 59.568 0.45752-15.383 3.0301-30.872 7.582-49.568 8.6458-35.661 36.233-54.41 67.801-54.41h149.23v-10zm277.4 47.645c0 36.917-31.699 63.656-67.803 63.656h-119.07c-29.651 0-54.266 29.589-54.266 58.969v10c0-29.38 24.615-58.969 54.266-58.969h119.07c36.104 0 67.803-26.74 67.803-63.656zm-128.12 183.92v10h108.37v-10z" fill="#fff" opacity=".3" stroke-width="1.3333"/><path transform="scale(.75)" d="m147.18 122.16v10h108.52v-10zm221.23 56.172c0 29.948-28.569 54.568-58.73 54.568h-113.59c-36.839 0-67.879 31.046-67.879 66.432v10c0-35.385 31.04-66.432 67.879-66.432h113.59c30.161 0 58.73-24.62 58.73-54.568zm-337.33 71.438c-0.5429 18.253 1.8953 36.356 7.582 59.484 7.6875 31.786 26.078 54.416 57.625 54.416h31.922v-10h-31.922c-31.547 0-49.938-22.63-57.625-54.416-4.6501-18.912-7.1281-34.463-7.582-49.484zm449.84 4.2188c-0.46796 15.565-3.1495 30.322-8.2109 45.322-10.984 32.589-22.771 54.418-54.266 54.418h-162.71v10h162.71c31.495 0 43.281-21.829 54.266-54.418 6.1325-18.175 8.7735-35.99 8.2109-55.322zm-338.2 154.32v10c0 29.078 25.552 46.146 54.266 54.49 34.344 9.9531 71.761 11.865 112.85 0 27.312-7.8385 54.266-23.589 54.266-54.49v-10c0 30.901-26.953 46.652-54.266 54.49-41.089 11.865-78.506 9.9531-112.85 0-28.714-8.3439-54.266-25.412-54.266-54.49z" fill="#26477e" opacity=".3" stroke-width="1.3333"/></g><path d="m368.43 282.53c0 51.02-41.359 92.375-92.379 92.375-51.02 0-92.379-41.355-92.379-92.375 0-51.02 41.359-92.379 92.379-92.379 51.02 0 92.379 41.359 92.379 92.379z" opacity=".3"/><path d="m368.43 275.03c0 51.02-41.359 92.375-92.379 92.375-51.02 0-92.379-41.355-92.379-92.375s41.359-92.379 92.379-92.379c51.02 0 92.379 41.359 92.379 92.379z" fill="#b8174a"/><path d="m261.43 219.47c-0.59375 0.043-3.8516 1.2226-7.2383 2.6211-5.5352 2.2812-6.2344 2.6406-6.9219 3.5625-0.91016 1.2148-1.2148 2.7266-0.83984 4.207 0.1289 0.52344 1.0195 3.1719 1.9726 5.8828 0.95313 2.707 1.6484 5.1172 1.5508 5.3555-0.10156 0.23828-0.85156 0.9961-1.6641 1.6914-0.8164 0.6914-2.332 2.1602-3.375 3.2656-1.0391 1.1055-2.0703 2.0781-2.2891 2.168-0.25 0.10547-2.4648-0.5664-6.043-1.8281-6.3164-2.2344-6.9922-2.3281-8.9648-1.2578l-1.1172 0.60547-2.7656 6.3164c-1.5195 3.4727-2.8476 6.6953-2.9492 7.1641-0.25782 1.1524 0.51171 3.2344 1.543 4.1875 0.53907 0.4961 2.6445 1.6602 5.8438 3.2305 2.75 1.3477 5.1328 2.6133 5.2969 2.8125s0.22656 1.4961 0.13672 2.8828c-0.0898 1.3867-0.0977 3.5352-0.0195 4.7734 0.082 1.2344 0.0547 2.4648-0.0547 2.7266-0.12109 0.28125-2.2656 1.4062-5.2578 2.7578-2.7812 1.2578-5.4609 2.6211-5.957 3.0273-1.0898 0.89453-1.9492 2.7617-1.8398 4.0039 0.10547 1.25 5.0156 13.129 5.6836 13.766 0.84375 0.79688 2.8164 1.5469 3.8672 1.4688 0.50782-0.0352 3.3359-0.92187 6.2812-1.9688 3.3047-1.1719 5.5469-1.8242 5.8516-1.6914 0.26953 0.11329 1.1484 0.98047 1.9531 1.9258 0.80469 0.94531 2.3047 2.4883 3.3398 3.4258 1.3711 1.2461 1.8711 1.8633 1.8477 2.2812-0.0156 0.3164-0.87109 2.9375-1.9023 5.8203-1.2188 3.4102-1.875 5.5859-1.8789 6.2266-4e-3 1.2344 0.53125 2.707 1.2773 3.5117 0.4375 0.46875 2.1602 1.293 6.957 3.3359 5.418 2.3086 6.5156 2.707 7.3008 2.6523 2.7148-0.18359 3.2539-0.77734 6.3984-7.0078 1.4297-2.8359 2.7461-5.3516 2.9258-5.5977 0.25-0.33984 0.83984-0.40625 2.4726-0.26953 1.1797 0.0977 3.3984 0.13281 4.9297 0.0781 1.5312-0.0586 2.9531-0.0312 3.1641 0.0586s1.4648 2.5312 2.7852 5.4258c1.3242 2.8906 2.6875 5.5547 3.0312 5.9141 0.89453 0.94532 2.8359 1.6992 4.1172 1.6016 1.5312-0.11719 12.594-4.6992 13.512-5.5977 1.0391-1.0156 1.5352-2.3477 1.4336-3.8477-0.0508-0.70312-0.92578-3.6328-1.9453-6.5078-1.0195-2.875-1.8281-5.3828-1.7969-5.5742 0.0352-0.1914 0.94141-1.0938 2.0117-2.0078 1.0742-0.91016 2.6953-2.4727 3.6094-3.4688 0.91016-1 1.7344-1.8477 1.832-1.8867 0.0976-0.0391 2.8516 0.85938 6.1172 2 6.6875 2.3359 7.0508 2.3789 9.1055 1.0977l1.1484-0.71485 2.668-6.0742c2.7891-6.3555 3.0938-7.3828 2.7188-9.082-0.39844-1.8008-1.2383-2.4453-6.9492-5.2969-2.875-1.4375-5.4062-2.793-5.6211-3.0156-0.26563-0.27734-0.32422-1.0312-0.1875-2.3906 0.11328-1.0938 0.14062-3.3242 0.0664-4.957-0.0781-1.6328-0.0976-3.0664-0.0508-3.1797 0.0508-0.11719 2.5391-1.3359 5.5273-2.707 5.5-2.5234 6.5234-3.1875 7.1172-4.5977 0.84375-2 0.71485-2.6523-1.7812-8.9141-1.457-3.6484-2.6992-6.3477-3.1758-6.8906-0.99609-1.1406-2.7031-1.8711-4.1055-1.7578-0.59375 0.0469-3.5195 0.95703-6.5039 2.0156-2.9883 1.0625-5.5195 1.8906-5.6328 1.8438-0.11328-0.0469-0.94922-0.96094-1.8555-2.0274-0.90625-1.0664-2.4883-2.7031-3.5117-3.6328-1.4453-1.3086-1.8438-1.8164-1.7695-2.2461 0.0547-0.30469 0.94922-3.0078 1.9922-6.0039 2.1524-6.1953 2.2422-6.9844 1.0195-8.832l-0.71093-1.0742-6.293-2.75c-6.9102-3.0195-7.668-3.2188-9.4609-2.4453-1.6094 0.69141-2.1562 1.4688-4.7617 6.75-1.3516 2.75-2.6875 5.1992-2.9648 5.4492-0.37891 0.33984-1.0664 0.41406-2.7109 0.28906-1.2109-0.0937-3.4609-0.11719-4.9961-0.0508-1.6172 0.0664-2.8867-0.0156-3.0234-0.19141-0.12891-0.17187-1.2656-2.5664-2.5195-5.3242-1.2539-2.7617-2.5859-5.3789-2.9531-5.8164-0.8789-1.0469-2.6758-1.7969-4.0469-1.6953zm14.617 34.113c11.84 0 21.438 9.5976 21.441 21.441-4e-3 11.84-9.6016 21.438-21.441 21.438-11.84 0-21.438-9.5976-21.438-21.438 0-11.844 9.5977-21.441 21.438-21.441z" fill="#fff"/></svg>
