<svg width="512" height="512" version="1.1" viewBox="0 0 384 384" xmlns="http://www.w3.org/2000/svg"><path d="m77.742 23.531c-19.602 0.023438-36.078 12.32-40.117 27.398l-2.4883 9.2734v259.24c0 15.645 15.785 28.238 35.387 28.238h242.95c19.602 0 35.387-12.594 35.387-28.238v-259.24l-3.3164-11.52c-4.3125-14.996-21.227-25.457-40.828-25.434z" fill="#5cbdab"/><path d="m70.523 36.32c-19.602 0-35.387 12.594-35.387 28.238v267.95c0 15.645 15.785 28.238 35.387 28.238h242.95c19.602 0 35.387-12.594 35.387-28.238v-267.95c0-15.645-15.785-28.238-35.387-28.238z" fill="#117f6b"/><path d="m70.523 37.191h242.95c19.543 0 35.387 12.645 35.387 28.242v259.23c0 15.598-15.844 28.242-35.387 28.242h-242.95c-19.543 0-35.387-12.645-35.387-28.242v-259.23c0-15.598 15.844-28.242 35.387-28.242z" fill="#17a185"/><path d="m127.63 38.328c45.949 66.914 56.172 127.87 56.262 185.28l16.719-0.45703c3.2031-100.71 23.957-138.59 55.379-186.78z" fill-opacity=".19608" fill-rule="evenodd"/><path d="m191.82 217.39c-2.3476 0-7.1484 0.0391-10.672 0.0859l-6.4024 0.0781v6.9766s-2.0703 2.3164-2.5469 3.7461c-4.1055 12.297-4.6914 26.195-1.8555 38.844 0.43359 1.9375 2.8008 5.2656 2.8008 5.2656l0.53125-9.1641c1.1055-6.5312 0.50781-13.645 6.4336-13.645h1.5391v-6.3828c0-5.2539 4.0547-9.4844 9.0938-9.4844h1.0039c5.0352 0 9.0898 4.2305 9.0898 9.4844v6.3828h1.6289c6.3594 0.12109 6.2852 10.875 6.4336 13.645l0.53515 9.1641s2.6484-3.6484 3.1406-5.7891c2.8086-12.172 2.4219-25.629-1.6406-37.441-0.38281-1.1055-2.0352-2.8555-2.0352-2.8555v-8.7461l-6.4024-0.0781c-3.5234-0.0469-8.3281-0.0859-10.676-0.0859zm-1.0234 18.66c-4.3945 0-7.9336 3.6914-7.9336 8.2773v19.133c0 4.5859 3.5391 8.2774 7.9336 8.2774h0.875c4.3945 0 7.9336-3.6914 7.9336-8.2774v-19.133c0-4.5859-3.5391-8.2773-7.9336-8.2773zm-9.1836 15.66c-0.33203 0-1.5352 0.4961-2.6719 1.1055l-2.0625 1.1055v60.41l0.62109 0.97656 0.86328 0.50391 25.875-0.48438 0.98438-0.82812 0.22656-29.699 0.28515-30.422-1.8242-1.332c-1.0039-0.73437-2.2109-1.3359-2.6875-1.3359h-0.38672v13.418c0 5.2539-4.0547 9.4883-9.0898 9.4883h-1.0039c-5.0391 0-9.0938-4.2344-9.0938-9.4883v-13.418zm9.1875 40.586c4.9219 0 8.9141 3.9922 8.9141 8.9141 0 4.9258-3.9922 8.9141-8.9141 8.918-4.9258 0-8.9141-3.9922-8.9141-8.918 0-4.9219 3.9883-8.9141 8.9141-8.9141z" fill="#fff"/><path transform="scale(.75)" d="m172.7 50c80.891 127.38 66.422 172.47 73.812 236.43" fill="none" stroke="#fff" stroke-dasharray="10.673624, 10.673624" stroke-miterlimit="0" stroke-width="10.674"/><path transform="scale(.75)" d="m266.95 290.52c6.6823-159.71 41.083-186.91 69.724-241.66" fill="none" stroke="#fff" stroke-dasharray="10.673624, 10.673624" stroke-dashoffset="11" stroke-width="10.674"/></svg>
