<svg width="512" height="512" version="1.1" viewBox="0 0 384 384" xmlns="http://www.w3.org/2000/svg"><path d="m351.71 192c0 88.207-71.504 159.71-159.71 159.71s-159.71-71.504-159.71-159.71 71.504-159.71 159.71-159.71 159.71 71.504 159.71 159.71z" fill="#fff"/><path d="m350.89 192c0 87.754-71.141 158.89-158.89 158.89s-158.89-71.141-158.89-158.89 71.141-158.89 158.89-158.89 158.89 71.141 158.89 158.89zm0 0" fill="none" stroke="#d41717" stroke-linecap="round" stroke-miterlimit="7" stroke-width="19.715"/><g fill-rule="evenodd"><path d="m192.06 89.667c-16.664 0-30.173 17.118-30.173 38.231v64.753c0 21.113 13.509 38.231 30.173 38.231h7e-3c16.664 0 30.171-17.118 30.171-38.231v-64.753c0-21.113-13.507-38.231-30.171-38.231zm-45.431 110.4-18.917 0.082c1.6731 39.169 27.49 61.118 55.57 64.947v25.207c-12.343 2.0766-24.168 8.3529-33.161 18.746l84.161 0.28125c-8.7981-10.707-20.55-17.03-32.911-19.068v-25.208c27.389-3.8671 52.482-25.193 54.91-64.872l-19.214-0.11425c-3.2344 61.105-86.84 61.547-90.438 0z" opacity=".3"/><path d="m192.06 82.167c-16.664 0-30.173 17.118-30.173 38.231v64.753c0 21.113 13.509 38.231 30.173 38.231h7e-3c16.664 0 30.171-17.118 30.171-38.231v-64.753c0-21.113-13.507-38.231-30.171-38.231zm-45.431 110.4-18.917 0.082c1.6731 39.169 27.49 61.118 55.57 64.947v25.207c-12.343 2.0766-24.168 8.3529-33.161 18.746l84.161 0.28125c-8.7981-10.706-20.55-17.03-32.911-19.068v-25.208c27.389-3.8671 52.482-25.193 54.91-64.872l-19.214-0.11425c-3.2344 61.105-86.84 61.547-90.438 0z" fill="#d41717"/><path d="m162.32 117.52 37.707 0.0117v10.34l-38.129-0.0469c0.0273-3.1016-0.20312-5.457 0.42188-10.305z" fill="#d41717"/></g><path transform="scale(.75)" d="m256 47.289c-109.89 0-198.71 88.816-198.71 198.71 0 1.672 0.021618 3.338 0.0625 5 2.6461-107.58 90.426-193.71 198.65-193.71 108.22 0 196 86.135 198.65 193.71 0.04085-1.6615 0.0625-3.3285 0.0625-5 0-109.89-88.816-198.71-198.71-198.71zm-224.93 203.71c-0.036412 1.6628-0.064453 3.3286-0.064453 5 0 124.1 100.9 225 225 225 124.1 0 225-100.89 225-225 0-1.6714-0.02804-3.3372-0.06446-5-2.6672 121.81-102.5 220-224.93 220-122.43 0-222.27-98.198-224.93-220z" color="#000000" color-rendering="auto" dominant-baseline="auto" image-rendering="auto" opacity=".3" shape-rendering="auto" solid-color="#000000" style="font-feature-settings:normal;font-variant-alternates:normal;font-variant-caps:normal;font-variant-ligatures:normal;font-variant-numeric:normal;font-variant-position:normal;isolation:auto;mix-blend-mode:normal;shape-padding:0;text-decoration-color:#000000;text-decoration-line:none;text-decoration-style:solid;text-indent:0;text-orientation:mixed;text-transform:none;white-space:normal"/><path transform="scale(.75)" d="m256 31.002c-124.1 0-225 100.9-225 225 0 1.6714 0.028041 3.3372 0.064453 5 2.6672-121.8 102.5-220 224.93-220 122.43 0 222.27 98.198 224.93 220 0.03642-1.6629 0.06446-3.3285 0.06446-5 0-124.1-100.9-225-225-225zm-198.65 230c-0.040882 1.662-0.0625 3.328-0.0625 5 0 109.89 88.816 198.71 198.71 198.71 109.9 0 198.71-88.809 198.71-198.71 0-1.672-0.02162-3.338-0.0625-5-2.6451 107.58-90.425 193.71-198.65 193.71-108.22 0-196-86.135-198.65-193.71z" color="#000000" color-rendering="auto" dominant-baseline="auto" fill="#fff" image-rendering="auto" opacity=".3" shape-rendering="auto" solid-color="#000000" style="font-feature-settings:normal;font-variant-alternates:normal;font-variant-caps:normal;font-variant-ligatures:normal;font-variant-numeric:normal;font-variant-position:normal;isolation:auto;mix-blend-mode:normal;shape-padding:0;text-decoration-color:#000000;text-decoration-line:none;text-decoration-style:solid;text-indent:0;text-orientation:mixed;text-transform:none;white-space:normal"/></svg>
