<svg width="512" height="512" version="1.1" viewBox="0 0 384 384" xmlns="http://www.w3.org/2000/svg"><defs><clipPath id="m"><rect width="384" height="384"/></clipPath><clipPath id="l"><rect width="384" height="384"/></clipPath><clipPath id="k"><rect width="384" height="384"/></clipPath><clipPath id="j"><rect width="384" height="384"/></clipPath></defs><path d="m80.953 39.898h222.09c7.9023 0 14.309 6.4102 14.309 14.312v275.59c0 7.9023-6.4062 14.309-14.309 14.309h-222.09c-7.9023 0-14.309-6.4062-14.309-14.309v-275.59c0-7.9023 6.4062-14.312 14.309-14.312z"/><g fill="#fff"><path d="m85.332 316.66h105.41c2.1719 0 3.9336 1.7617 3.9336 3.9336v7.7695c0 2.1719-1.7617 3.9336-3.9336 3.9336h-105.41c-2.1719 0-3.9336-1.7617-3.9336-3.9336v-7.7695c0-2.1719 1.7617-3.9336 3.9336-3.9336z"/><path d="m80.961 39.082h222.09c7.9023 0 14.309 5.6172 14.309 12.543v241.55c0 6.9258-6.4062 12.543-14.309 12.543h-222.09c-7.9023 0-14.309-5.6172-14.309-12.543v-241.55c0-6.9258 6.4062-12.543 14.309-12.543z"/><path d="m268.15 324.46c0 3.875-3.1367 7.0117-7.0117 7.0117-3.8711 0-7.0117-3.1367-7.0117-7.0117 0-3.8711 3.1406-7.0117 7.0117-7.0117 3.875 0 7.0117 3.1406 7.0117 7.0117z"/><path d="m289.81 324.46c0 3.8711-3.1406 7.0117-7.0117 7.0117s-7.0117-3.1406-7.0117-7.0117c0-3.875 3.1406-7.0156 7.0117-7.0156s7.0117 3.1406 7.0117 7.0156z"/></g><g transform="matrix(.65013 0 0 .65013 58.754 45.944)"><path d="m299.48 192.25c0 58.68-47.57 106.25-106.25 106.25s-106.25-47.57-106.25-106.25 47.57-106.25 106.25-106.25 106.25 47.57 106.25 106.25z" fill="#fd4747"/><path d="m193.23 198.5v143.75c39.199-0.0117 76.84-15.363 104.86-42.773z" fill="#4aaee6"/><path d="m197.73 26.504v175l118.35 113.96c32.227-31.703 50.383-75.012 50.402-120.21 0-93.199-75.551-168.75-168.75-168.75z" opacity=".3"/><path d="m197.73 193.82-118.29 123.09c31.527 31.09 74.008 48.543 118.29 48.598z" opacity=".3"/><path d="m193.23 23.504v175l118.35 113.96c32.227-31.703 50.383-75.012 50.402-120.21 0-93.199-75.551-168.75-168.75-168.75z" fill="#199499"/><path d="m193.23 198.5-118.29 113.9c31.527 31.09 74.008 48.543 118.29 48.598z" fill="#8a3fab"/><path d="m43.449 198.5c1.6211 38.129 17.715 74.211 45.008 100.89l104.77-100.89z" fill="#f8de66"/></g><g><circle cx="304.73" cy="293.08" r="5.6089" opacity=".3" style="paint-order:markers stroke fill"/><circle cx="79.281" cy="293.08" r="5.6089" opacity=".3" style="paint-order:markers stroke fill"/><circle cx="79.281" cy="51.713" r="5.6089" opacity=".3" style="paint-order:markers stroke fill"/><circle cx="304.73" cy="51.713" r="5.6089" opacity=".3" style="paint-order:markers stroke fill"/></g></svg>
