<svg width="512" height="512" version="1.1" viewBox="0 0 384 384" xmlns="http://www.w3.org/2000/svg" xmlns:xlink="http://www.w3.org/1999/xlink"><path d="m36.821 48.387-5.0078 2.3828c-9.3477 4.4531-14.051 11.059-15.457 21.723-0.51171 3.8555-0.70703 45.234-0.55859 118.37 0.21875 107.73 0.28906 112.6 1.6719 116.29 3.1211 8.3203 8.4922 13.539 17.297 16.793 4.0352 1.4961 6.2422 1.6328 29.395 1.8672 13.766 0.13673 25.871 0.43751 26.902 0.66407 1.0312 0.23046 6.9492 5.3867 13.145 11.457 9.7656 9.5703 11.727 11.148 14.684 11.805 5.0625 1.1289 140.39 1.1836 145.63 0.0586 3.7852-0.8125 4.8047-1.6055 15.297-11.887 6.1836-6.0586 12.086-11.207 13.117-11.438 1.0312-0.23047 13.832-0.53516 28.445-0.67188 22.195-0.21094 27.098-0.45703 29.77-1.4961 7.7734-3.0195 12.73-8.2578 15.484-16.348 1.2226-3.5898 1.3437-12.465 1.5625-116.71 0.15234-73.562-0.0391-114.89-0.55078-118.75-1.4141-10.703-6.0742-17.285-15.336-21.676l-5.1289-2.4297zm33.113 50.059h244.13v170.2l-24.238 0.20703-24.242 0.20313-12.395 12.309-12.391 12.312h-97.598l-12.395-12.312-12.391-12.309-24.242-0.20313-24.242-0.20703z" opacity=".3"/><path d="m130.81 273.93-12.395-12.312-24.238-0.20313-24.242-0.20312v-170.2h244.13v170.2l-24.242 0.20312-24.238 0.20313-12.395 12.312-12.395 12.309h-97.594z" fill="#4a4a4a"/><path d="m127.82 91.012v32.086h12.836v-32.086zm38.508 0v32.086h12.836v-32.086zm38.508 0v32.086h12.836v-32.086zm38.508 0v32.086h12.836v-32.086z" fill="#ffd76e"/><path d="m36.82 40.887-5.0078 2.3828c-9.3477 4.4531-14.051 11.059-15.457 21.723-0.51172 3.8555-0.70703 45.234-0.55859 118.37 0.21875 107.73 0.28906 112.6 1.6719 116.29 3.1211 8.3203 8.4922 13.539 17.297 16.793 4.0352 1.4961 6.2422 1.6328 29.395 1.8672 13.766 0.13672 25.871 0.4375 26.902 0.66406 1.0312 0.23047 6.9492 5.3867 13.145 11.457 9.7656 9.5703 11.727 11.148 14.684 11.805 5.0625 1.1289 140.39 1.1836 145.63 0.0586 3.7852-0.8125 4.8047-1.6055 15.297-11.887 6.1836-6.0586 12.086-11.207 13.117-11.438 1.0312-0.23047 13.832-0.53516 28.445-0.67188 22.195-0.21094 27.098-0.45703 29.77-1.4961 7.7734-3.0195 12.73-8.2578 15.484-16.348 1.2226-3.5898 1.3438-12.465 1.5625-116.71 0.15234-73.562-0.0391-114.89-0.55078-118.75-1.4141-10.703-6.0742-17.285-15.336-21.676l-5.1289-2.4297zm33.113 50.059h244.13v170.2l-24.238 0.20703-24.242 0.20313-12.395 12.309-12.391 12.312h-97.598l-12.395-12.312-12.391-12.309-24.242-0.20313-24.242-0.20703z" fill="#fff"/><rect x="69.934" y="91.012" width="244.13" height="7.4336" opacity=".3"/></svg>
