<svg width="512" height="512" version="1.1" viewBox="0 0 384 384" xmlns="http://www.w3.org/2000/svg" xmlns:xlink="http://www.w3.org/1999/xlink"><defs><clipPath><rect width="384" height="384"/></clipPath><filter id="e" x="0%" y="0%" width="100%" height="100%"><feColorMatrix in="SourceGraphic" values="0 0 0 0 1 0 0 0 0 1 0 0 0 0 1 0 0 0 1 0"/></filter><mask id="b"><g filter="url(#e)"><rect width="384" height="384" fill-opacity=".30196"/></g></mask><clipPath id="d"><rect width="384" height="384"/></clipPath><g id="a" clip-path="url(#d)"><path d="m223.1 233.07h-14.855v15.797h14.855zm-22.285 0h-14.855v15.797h14.855zm-22.281 0h-14.855v15.797h14.855z"/></g><linearGradient id="c" x1="24.161" x2="470.92" y1="255.65" y2="-4.7024" gradientTransform="translate(-.021237 -.011297)" gradientUnits="userSpaceOnUse"><stop stop-color="#367bf0" offset="0"/><stop stop-color="#b7164b" stop-opacity=".99608" offset="1"/></linearGradient></defs><g transform="translate(-.003905)"><path d="m158.18 263.77h67.652v54.723h-67.652z" fill="#262833"/><path d="m158.07 264.17h67.852v54.168z" fill="#171717"/><path d="m23.996 55.281h336.01c4.5391 0 8.2188 3.4648 8.2188 7.7422v193.58c0 4.2774-3.6797 7.7461-8.2188 7.7461h-336.01c-4.5352 0-8.2148-3.4688-8.2148-7.7461v-193.58c0-4.2773 3.6797-7.7422 8.2148-7.7422z"/><path d="m132.2 317.36h119.6c2.5781 0 4.6641 1.9688 4.6641 4.3984v2.5664c0 2.4258-2.0859 4.3945-4.6641 4.3945h-119.6c-2.5781 0-4.6641-1.9688-4.6641-4.3945v-2.5664c0-2.4297 2.0859-4.3984 4.6641-4.3984z" fill="#171717"/><path d="m23.996 59.781h336.01c4.5391 0 8.2187 3.4648 8.2187 7.7422v193.58c0 4.2774-3.6797 7.7461-8.2187 7.7461h-336.01c-4.5352 0-8.2148-3.4688-8.2148-7.7461v-193.58c0-4.2773 3.6797-7.7422 8.2148-7.7422z" opacity=".3"/><rect x="24.14" y="63.993" width="335.73" height="191.64" rx="3.7555" ry="3.7555" fill="url(#c)"/><use width="100%" height="100%" mask="url(#b)" xlink:href="#a"/><path d="m220.32 230.3h-14.855v15.797h14.855zm-22.281 0h-14.855v15.797h14.855zm-22.285 0h-14.855v15.797h14.855z" fill="#fff"/></g><path d="m360.55 274.27c0-45.758-37.027-82.855-82.699-82.855-45.676 0-82.703 37.098-82.703 82.855 0 45.758 37.027 82.852 82.703 82.852 45.672 0 82.699-37.094 82.699-82.852z" opacity=".3"/><path d="m360.55 266.77c0-45.758-37.027-82.855-82.699-82.855-45.676 0-82.703 37.098-82.703 82.855 0 45.758 37.027 82.852 82.703 82.852 45.672 0 82.699-37.094 82.699-82.852z" fill="#d41717"/><path d="m234.18 250.03c0.8125-3.7383 4.1289-6.5312 8.0976-6.5234l47.918 0.0742c4.5742 8e-3 8.2812 3.7227 8.2695 8.2969l-0.0156 15.207 23.305-17.035-0.0625 33.57-23.262-16.199-8e-3 14.309c0.0156 4.5898-3.7188 8.3008-8.2891 8.293l-47.918-0.0742c-2.2852-0.0117-4.2383-0.81641-5.8555-2.4297-1.6172-1.625-2.4258-3.5859-2.4219-5.8867l0.0469-27.086z" fill="#fff"/></svg>
