<svg width="512" height="512" version="1.1" viewBox="0 0 384 384" xmlns="http://www.w3.org/2000/svg" xmlns:xlink="http://www.w3.org/1999/xlink"><defs><filter id="alpha" x="0" y="0" width="1" height="1"><feColorMatrix in="SourceGraphic" values="0 0 0 0 1 0 0 0 0 1 0 0 0 0 1 0 0 0 1 0"/></filter><clipPath><rect width="384" height="384"/></clipPath><mask id="mask1"><g filter="url(#alpha)"><rect width="384" height="384" fill-opacity=".50196"/></g></mask><clipPath id="clip2"><rect width="384" height="384"/></clipPath><g id="surface8" clip-path="url(#clip2)"><path d="m48.562 287.2v30c0 10.102 8.1328 18.238 18.234 18.238h250.4c10.102 0 18.238-8.1367 18.238-18.238v-30c0 10.105-8.1367 18.238-18.238 18.238h-250.4c-10.102 0-18.234-8.1328-18.234-18.238z"/></g><clipPath><rect width="384" height="384"/></clipPath><clipPath><rect width="384" height="384"/></clipPath></defs><path d="m42.801 23.25h298.39c10.828 0 19.551 8.7188 19.551 19.551v298.39c0 10.828-8.7226 22.551-19.551 22.551h-298.39c-10.832 0-19.551-11.723-19.551-22.551v-298.39c0-10.832 8.7188-19.551 19.551-19.551z" fill="#fff"/><path d="m66.812 48.566h250.39c10.074 0 18.238 8.168 18.238 18.238v250.39c0 10.074-8.1641 18.238-18.238 18.238h-250.39c-10.07 0-18.238-8.1641-18.238-18.238v-250.39c0-10.07 8.168-18.238 18.238-18.238z" fill="#333"/><path d="m242.59 149.25-21.301 0.85156c-1.4219-6.2461-5.1133-11.004-11.078-14.27-5.8203-3.2695-12.281-4.8281-19.383-4.6875-12.352 0.28515-21.371 4.0469-27.051 11.289-2.8398 3.6914-4.0469 8.3086-3.6211 13.848 0.14063 2.9805 0.99219 5.5352 2.5547 7.668 1.5625 2.1289 3.2695 3.832 5.1133 5.1094 1.8477 1.2773 4.4727 2.3438 7.8828 3.1953 3.4062 0.85156 6.2461 1.418 8.5195 1.7031 2.4141 0.28515 5.6797 0.64062 9.7969 1.0664 6.1055 0.70703 11.434 1.6328 15.977 2.7695 4.6875 1.1328 9.6562 2.8398 14.91 5.1094 5.3945 2.1328 9.7969 5.2539 13.207 9.375 3.5508 3.9727 6.0352 8.8008 7.4531 14.484 0.71093 3.5469 1.0664 6.8164 1.0664 9.7969 0 13.633-5.6094 24.637-16.828 33.016-11.219 8.2383-24.07 12.355-38.555 12.355-7.9492 0-15.762-1.4219-23.43-4.2617-7.668-2.9805-14.414-7.5976-20.234-13.844-5.8242-6.3906-9.1602-13.777-10.012-22.152l-0.21094-4.0469 21.727-0.42579 0.21094 3.1953v-0.85157c0.71094 6.5312 4.332 11.715 10.863 15.547 6.5312 3.6953 13.633 5.5391 21.301 5.5391 8.6602 0 16.402-2.1992 23.219-6.6016 6.8125-4.5469 10.223-10.438 10.223-17.68 0-1.4219-0.21484-3.125-0.64063-5.1133-0.5664-2.6992-1.8438-4.9688-3.832-6.8164-1.9883-1.8438-4.7578-3.2656-8.3086-4.2617-3.4062-0.99219-6.5312-1.7031-9.3711-2.125-2.8398-0.57032-6.6016-1.0664-11.289-1.4922-5.5391-0.57031-10.367-1.207-14.484-1.918-3.9766-0.70703-8.4492-1.9141-13.418-3.6211-4.8281-1.8438-8.8789-4.0469-12.145-6.6016-3.2656-2.6992-6.1055-6.25-8.5195-10.652-2.4141-4.543-3.832-9.7969-4.2578-15.762v0.21094c-0.85546-10.648 1.8438-20.09 8.0938-28.328 4.8281-6.25 11.289-11.078 19.383-14.484 8.2344-3.5508 16.828-5.3242 25.773-5.3242 12.637 0 23.785 3.3359 33.441 10.012 9.6562 6.6719 15.406 16.398 17.254 29.18z" fill="#704a28"/><path d="m242.59 141.75-21.301 0.85156c-1.4219-6.2461-5.1133-11.004-11.078-14.27-5.8203-3.2656-12.281-4.8281-19.383-4.6875-12.352 0.28515-21.371 4.0469-27.051 11.289-2.8398 3.6914-4.0469 8.3086-3.6211 13.848 0.14063 2.9805 0.99219 5.5352 2.5547 7.668 1.5625 2.1289 3.2695 3.832 5.1133 5.1094 1.8477 1.2773 4.4727 2.3438 7.8828 3.1953 3.4062 0.85156 6.2461 1.4219 8.5195 1.7031 2.4141 0.28515 5.6797 0.64062 9.7969 1.0664 6.1055 0.71094 11.434 1.6328 15.977 2.7695 4.6875 1.1328 9.6562 2.8398 14.91 5.1094 5.3945 2.1328 9.7969 5.2539 13.207 9.375 3.5508 3.9766 6.0352 8.8047 7.4531 14.484 0.71093 3.5469 1.0664 6.8164 1.0664 9.7969 0 13.633-5.6094 24.637-16.828 33.016-11.219 8.2383-24.07 12.355-38.555 12.355-7.9492 0-15.762-1.4219-23.43-4.2617-7.668-2.9805-14.414-7.5976-20.234-13.844-5.8242-6.3906-9.1602-13.773-10.012-22.152l-0.21094-4.0469 21.727-0.42579 0.21094 3.1953v-0.85157c0.71094 6.5312 4.332 11.715 10.863 15.547 6.5312 3.6953 13.633 5.5391 21.301 5.5391 8.6602 0 16.402-2.1992 23.219-6.6016 6.8125-4.5469 10.223-10.438 10.223-17.68 0-1.4219-0.21484-3.125-0.64063-5.1133-0.5664-2.6992-1.8438-4.9688-3.832-6.8164-1.9883-1.8438-4.7578-3.2656-8.3086-4.2578-3.4062-0.99609-6.5312-1.707-9.3711-2.1289-2.8398-0.57032-6.6016-1.0664-11.289-1.4922-5.5391-0.57031-10.367-1.207-14.484-1.918-3.9766-0.70703-8.4492-1.9141-13.418-3.6211-4.8281-1.8438-8.8789-4.0469-12.145-6.6016-3.2656-2.6992-6.1055-6.25-8.5195-10.652-2.4141-4.543-3.832-9.7969-4.2578-15.762v0.21094c-0.85546-10.648 1.8438-20.09 8.0938-28.328 4.8281-6.2461 11.289-11.074 19.383-14.484 8.2344-3.5508 16.828-5.3242 25.773-5.3242 12.637 0 23.785 3.3359 33.441 10.012 9.6562 6.6719 15.406 16.402 17.254 29.18z" fill="#fd7d00"/><use width="100%" height="100%" mask="url(#mask1)" xlink:href="#surface8"/><path d="m23.251 333.7v7.5c0 10.828 8.7192 22.551 19.551 22.551h298.39c10.828 0 19.551-11.723 19.551-22.551v-7.5c0 10.828-8.7232 22.551-19.551 22.551h-298.39c-10.832 0-19.551-11.723-19.551-22.551z" opacity=".3"/><path d="m42.803 23.251c-10.832 0-19.551 8.7192-19.551 19.551v7.5c0-10.832 8.7192-19.551 19.551-19.551h298.39c10.828 0 19.551 8.7192 19.551 19.551v-7.5c0-10.832-8.7232-19.551-19.551-19.551z" opacity=".3"/></svg>
