<svg width="512" height="512" version="1.1" viewBox="0 0 384 384" xmlns="http://www.w3.org/2000/svg"><defs><clipPath><rect width="384" height="384"/></clipPath></defs><path d="m192 30.75c93.199 0 168.75 75.551 168.75 168.75 0 93.199-75.551 168.75-168.75 168.75-93.199 0-168.75-75.551-168.75-168.75 0-93.199 75.551-168.75 168.75-168.75z" opacity=".3"/><path d="m192 23.25c93.199 0 168.75 75.551 168.75 168.75 0 93.199-75.551 168.75-168.75 168.75-93.199 0-168.75-75.551-168.75-168.75 0-93.199 75.551-168.75 168.75-168.75z" fill="#fff"/><path d="m192 42c82.844 0 150 67.156 150 150s-67.156 150-150 150-150-67.156-150-150 67.156-150 150-150z" fill="#1ea6ae"/><path d="m192 105.75c-51.938 0-93.75 41.812-93.75 93.75s41.813 93.75 93.75 93.75 93.75-41.812 93.75-93.75-41.812-93.75-93.75-93.75zm0 18.75c41.551 0 75 33.449 75 75 0 41.551-33.449 75-75 75s-75-33.449-75-75c0-41.551 33.449-75 75-75zm0 31.25-43.75 43.75h25v43.75h37.5v-43.75h25z" opacity=".3"/><path d="m192 98.25c-51.938 0-93.75 41.812-93.75 93.75s41.812 93.75 93.75 93.75 93.75-41.812 93.75-93.75-41.812-93.75-93.75-93.75zm0 18.75c41.551 0 75 33.449 75 75s-33.449 75-75 75-75-33.449-75-75 33.449-75 75-75zm0 31.25-43.75 43.75h25v43.75h37.5v-43.75h25z" fill="#0f2b5c"/></svg>
