<svg width="512" height="512" version="1.1" viewBox="0 0 384 384" xmlns="http://www.w3.org/2000/svg"><path d="m37.989 59.603c-12.195 0-22.24 10.041-22.24 22.238v235.32c0 12.197 10.043 22.24 22.24 22.24h308.02c12.197 0 22.238-10.045 22.238-22.24v-235.32c0-12.195-10.043-22.238-22.238-22.238z" fill-rule="evenodd" opacity=".3"/><path transform="matrix(.75 0 0 .75 0 336)" d="m50.656-368.83h410.7c11.021 0 19.953 8.9323 19.953 19.953v313.76c0 11.021-8.9323 19.958-19.953 19.958h-410.7c-11.021 0-19.958-8.9375-19.958-19.958v-313.76c0-11.021 8.9375-19.953 19.958-19.953z" fill="#171717" fill-rule="evenodd" stroke="#fff" stroke-linejoin="round" stroke-width="19.392"/><path d="m145.32 174.07v5.4141h-40.297v-5.4141z" fill="#fff"/><path d="m77.359 102.62v9.043c-4.418 0.5-7.875 1.8086-10.355 3.9453-2.75 2.375-4.1289 5.6211-4.1289 9.7344 0 3.7891 1.2656 6.7695 3.7891 8.9414 2.3125 1.9688 5.8906 3.4141 10.695 4.3438v17.48c-2.2773-0.13672-4.5039-0.52344-6.6797-1.1836-2.625-0.83593-5.2266-2.0586-7.8047-3.6758v6.8203c2.6797 1.1367 5.3438 1.9922 7.9922 2.5742 2.1641 0.45313 4.3281 0.73047 6.4922 0.84766v11.461h6.7891v-11.621c4.668-0.51953 8.3047-1.8789 10.887-4.0938 2.8789-2.4766 4.3164-5.8476 4.3164-10.113 0-3.9414-1.3516-7.0469-4.0508-9.3203-2.4609-2.0664-6.1875-3.5508-11.152-4.4688v-16.332c1.7969 0.16016 3.5586 0.46094 5.2812 0.91797 2.2188 0.58203 4.3789 1.3984 6.4727 2.4609v-6.6289c-2.0938-0.68359-4.2383-1.2109-6.4375-1.5898-1.7227-0.31641-3.4961-0.53907-5.3164-0.66797v-8.875zm0 14.469v15.004c-2.3906-0.53906-4.1914-1.3086-5.3906-2.3164-1.4141-1.2148-2.1211-2.9062-2.1211-5.0781 0-2.2188 0.76953-4 2.3086-5.3398 1.2656-1.0977 3.0039-1.8516 5.2031-2.2695zm6.7891 22.887c2.5938 0.60156 4.5469 1.457 5.8477 2.5625 1.5664 1.3125 2.3477 3.082 2.3477 5.3047 0 2.2695-0.82031 4.1016-2.4609 5.4922-1.3516 1.1602-3.2695 1.9805-5.7344 2.4727z" fill="#fff"/></svg>
