<svg width="512" height="512" version="1.1" viewBox="0 0 384 384" xmlns="http://www.w3.org/2000/svg">
 <defs>
  <clipPath>
   <rect width="384" height="384"/>
  </clipPath>
 </defs>
 <path d="m192.19531 31.587891c-16.78312 0-23.26361 0.468011-32.42383 2.326171-45.57905 9.238117-84.080762 35.283783-109.53515 74.113278-34.973225 53.36263-35.969664 122.37551-2.888672 177.92774v2e-3l1.195313 2.00391-5.585938 20.25 2e-3 -2e-3c-2.091094 7.57649-3.906028 14.53357-5.1875 19.81836-0.640735 2.6424-1.144779 4.8332-1.517578 6.69922-0.186399 0.93301-0.342094 1.7297-0.486328 2.85547-0.07212 0.56289-0.161718 1.14384-0.173828 2.42969-0.0061 0.64292-0.03029 1.43246 0.230469 3.0039 0.260245 1.56833-0.06106 4.37888 4.683593 9.08985 4.513497 4.4961 7.23062 4.29364 8.777344 4.57422 1.551403 0.28142 2.345123 0.27153 2.990235 0.27539 1.290223 8e-3 1.878951-0.0744 2.443359-0.13867 1.128817-0.12851 1.917288-0.27197 2.835938-0.44336 1.837299-0.34279 3.974565-0.80786 6.550781-1.40039 5.152431-1.18507 11.920823-2.86886 19.291015-4.81446h2e-3c7.131999-1.88324 13.897833-3.6013 18.951169-4.82812 1.78821-0.43413 3.01188-0.71058 4.28516-1.00196 17.71603 10.7523 40.75107 18.57513 62.54101 21.54688h2e-3c71.93655 9.80561 142.70209-28.00799 174.60547-93.2832v-2e-3l2e-3 -4e-3c3.09325-6.3347 6.53196-14.6543 8.62695-21.0625 17.64126-53.86508 6.89866-112.87259-28.5625-157.60156l-2e-3 -2e-3c-10.79427-13.611649-27.59587-28.322144-43.10756-38.087714-9.71867-6.122596-25.13254-13.073233-36.4707-16.787109h-6e-3c-17.30041-5.660438-29.98086-7.457031-52.06836-7.457031zm-87.39843 311.66406 8e-3 4e-3 6e-3 4e-3c0.24679 0.15578 0.52049 0.29656 0.76953 0.45117-0.88362-0.0381-0.28603-0.14453-0.7832-0.45899z" style="opacity:.3"/>
 <path transform="matrix(.75 0 0 .75 0 -405.2716)" d="m228.54688 996.35172c-26.541667-3.619791-56.890625-14.239583-77.03125-26.953125-2.4375-1.541666-5.890625-2.786458-7.671875-2.765625-1.78125 0.020834-19.005208 4.203125-38.276042 9.291667-19.276041 5.088542-35.479166 8.817708-36.015625 8.28125-0.536458-0.53125 3.505209-17.197917 8.979167-37.03125l9.947917-36.067708-6.40625-10.75c-39.916667-67.03125-38.619792-149.83333 3.348958-213.86979 30.895833-47.130208 76.635417-78.078125 131.98958-89.296875 11.322917-2.296875 16.713542-2.661458 38.848959-2.661458 28.557291 0 40.822916 1.734375 62.567708 8.848958 12.020833 3.9375 34.463542 14.239583 43.739583 20.083333 17.895834 11.265625 40.041667 30.807292 51.953125 45.828125 42.786459 53.96875 55.635417 124.78125 34.40625 189.58854-2.213541 6.770833-6.880208 18.135417-10.359375 25.260417-38.359375 78.484375-123.55208 124-210.02083 112.21354z" style="fill:rgb(4.705%,63.137%,36.862%);stroke-miterlimit:100;stroke-width:44.096146;stroke:rgb(100.000%,100.000%,100.000%)"/>
 <path d="m244.46484 260.27344c5.691406-1.757813 14.972656-7.890626 18.054687-11.925782 3.136719-4.117187 4.777344-9.851562 4.804688-16.785156l0.019531-5.667969-15.238281-7.625c-16.46875-8.242187-19.496094-9.445312-22.148438-8.777343-1.027343 0.257812-3.183593 2.378906-5.308593 5.230468-6.640626 8.886719-11.410157 13.652344-13.671876 13.652344-2.863281 0-15.574218-6.105469-23.035156-11.0625-3.453125-2.296875-9.101562-6.855469-12.550781-10.136719-8.902344-8.464843-19.65625-23.132812-19.65625-26.804687 0-0.808594 2.078125-3.914063 4.621094-6.90625 5.277343-6.210938 7.425781-9.996094 7.425781-13.097656 0-3.5-12.460938-32.777344-14.976562-35.1875-2.058594-1.96875-2.363282-2.035157-9.34375-2.035157-8.660157 0-10.441407 0.847657-16.023438 7.632813-12.273438 14.914062-13.191406 33.0625-2.691406 53.246094 3.296875 6.332031 13.332031 20.753906 20.019531 28.761718 6.300781 7.546875 19.53125 20.265625 26.28125 25.265625 12.96875 9.609375 28.632813 16.730469 48.109375 21.875 8.429688 2.226563 18.765625 2.371094 25.308594 0.347657z" style="fill:rgb(100.000%,100.000%,100.000%)"/>
 <path transform="scale(.75)" d="m75.105469 250.07617c-0.946578 33.7337 7.644945 67.95759 25.908201 98.62891l0.00195 0.00586 9.33399 15.66211 1.88477-6.83594-11.21876-18.82617-0.00195-0.00586c-16.46085-27.64401-25.062468-58.17317-25.908201-88.62891zm361.76172 0.33985c-0.46323 17.18969-3.38756 34.42891-8.89258 51.23437v0.00586l-0.00391 0.00586c-1.63378 4.99745-6.38088 16.63383-9.21484 22.4375-34.18175 69.93159-110.20873 110.5395-187.22852 100.04101-23.04305-3.14266-51.84889-13.40641-68.22461-23.73828l-0.00781-0.00586-0.00976-0.00586c-5.83891-3.69702-7.33008-6.31454-19.69922-6.16992-4.32836 0.05054-4.07388 0.3707-5.13672 0.56836-1.06285 0.19766-2.1225 0.42-3.34375 0.6875-2.44248 0.53502-5.47437 1.24496-9.04297 2.11133-6.54324 1.58853-14.92597 3.72391-23.7832 6.04883l-2.492191 9.03711-0.003906 0.0039c-0.183791 0.66591-0.268835 1.05662-0.449219 1.71485 0.234487-0.06171 0.370044-0.08826 0.605469-0.15039 9.761487-2.57756 18.985837-4.92157 26.123047-6.6543 3.56861-0.86637 6.59853-1.57631 9.04102-2.11133 1.22125-0.2675 2.28089-0.48984 3.34375-0.6875 1.06284-0.19766 0.81031-0.51782 5.13867-0.56836 12.36914-0.14462 13.85836 2.4729 19.69726 6.16992l0.01172 0.00586 0.00781 0.00391c16.37572 10.33188 45.17961 20.59759 68.22266 23.74023 77.01979 10.4985 153.04805-30.10973 187.23047-100.04101 2.83396-5.80367 7.58106-17.44005 9.21484-22.4375l0.00391-0.00586v-0.00586c6.57348-20.06718 9.48486-40.75406 8.89258-61.23437zm-297.13477 197.25586c0.65761 0.4178-0.13529 0.55864 1.04102 0.60937-0.33206-0.20615-0.69634-0.39386-1.02539-0.60156l-0.00782-0.00586-0.00781-0.00195z" style="opacity:.3"/>
</svg>
