<svg width="512" height="512" version="1.1" viewBox="0 0 384 384" xmlns="http://www.w3.org/2000/svg"><defs><clipPath><rect width="384" height="384"/></clipPath></defs><g transform="translate(16.314 -.099008)"><path transform="matrix(7.9471 0 0 7.9471 -15.045 1.2686)" d="m24 4.0002c-11.046 0-20 8.9542-20 20s8.9547 20 20 20c11.045 0 20-8.9542 20-20s-8.9547-20-20-20zm0 14.545c3.0126 0 5.4545 2.4419 5.4545 5.4545s-2.4419 5.4545-5.4545 5.4545c-3.0131 0-5.4545-2.4419-5.4545-5.4545s2.4414-5.4545 5.4545-5.4545z" fill="#e6e6e6" stroke="#ccc" stroke-width=".25"/><path transform="matrix(7.9471 0 0 7.9471 -15.045 1.2686)" d="m24 15.461c-4.7162 0-8.5393 3.8226-8.5393 8.5388s3.8231 8.5388 8.5393 8.5388c4.7157 0 8.5388-3.8226 8.5388-8.5388s-3.8231-8.5388-8.5388-8.5388zm0 4.0074c2.5024 0 4.5314 2.029 4.5314 4.5314s-2.029 4.5314-4.5314 4.5314-4.5319-2.029-4.5319-4.5314 2.0295-4.5314 4.5319-4.5314z" fill="#fff" stroke="#e6e6e6" stroke-width=".44277"/></g><path d="m384 283.5c0 53.02-42.98 96-96 96s-96-42.98-96-96 42.98-96 96-96c53.02 0 96 42.98 96 96z" opacity=".3"/><path d="m384 276c0 53.02-42.98 96-96 96s-96-42.98-96-96 42.98-96 96-96 96 42.98 96 96z" fill="#8a3fab"/><path d="m240 280.01c0 26.512 21.492 48 48 48 26.242 0 47.523-21.066 47.953-47.203 0.0312-0.26563 0.0469-0.53125 0.0469-0.79688 0-4.418-3.582-8-8-8s-8 3.582-8 8c0 17.672-14.324 32-32 32-17.672 0-32-14.328-32-32 0-17.672 14.328-32 32-32v16l32-24-31.996-24.008v16c-26.508 0-48 21.492-48 48z" fill="#fff"/></svg>
