<svg width="512" height="512" version="1.1" viewBox="0 0 384 384" xmlns="http://www.w3.org/2000/svg"><defs><clipPath><rect width="384" height="384"/></clipPath></defs><path d="m363 202.5c0 94.441-76.559 171-171 171s-171-76.559-171-171c47.801-83.68 258.74-32.555 342 0z" opacity=".3"/><path d="m345 198c0 84.5-68.5 153-153 153s-153-68.5-153-153 68.5-153 153-153 153 68.5 153 153z" fill="#fff"/><path transform="scale(.75)" d="m256 60c-112.67 0-204 91.333-204 204 0 1.6716 0.02252 3.338 0.0625 5 2.6548-110.36 92.942-199 203.94-199s201.28 88.644 203.94 199c0.03998-1.662 0.0625-3.3284 0.0625-5 0-112.67-91.333-204-204-204z" fill="#e6e6e6"/><path d="m286.52 337.05c-81.781 47.234-186.36 19.203-233.59-62.578-47.215-81.793-19.191-186.37 62.594-233.59 96.367-0.44531 157.56 207.79 171 296.17z" fill="#4aaee6"/><path d="m363 195c0 94.441-76.559 171-171 171-94.441 0-171-76.559-171-171 47.801-83.68 258.74-32.555 342 0z" fill="#357af0"/></svg>
