<svg width="512" height="512" version="1.1" viewBox="0 0 384 384" xmlns="http://www.w3.org/2000/svg" xmlns:xlink="http://www.w3.org/1999/xlink"><defs><filter id="alpha" x="0%" y="0%" width="100%" height="100%"><feColorMatrix in="SourceGraphic" values="0 0 0 0 1 0 0 0 0 1 0 0 0 0 1 0 0 0 1 0"/></filter><clipPath><rect width="384" height="384"/></clipPath><clipPath><rect width="384" height="384"/></clipPath><mask id="b"><g filter="url(#alpha)"><rect width="384" height="384" fill-opacity=".2"/></g></mask><clipPath id="c"><rect width="384" height="384"/></clipPath><g id="a" clip-path="url(#c)"><path d="m52.805 36c-9.3086 0-16.805 7.4961-16.805 16.805v6c0-9.3086 7.4961-16.805 16.805-16.805h278.39c9.3047 0 16.805 7.4961 16.805 16.805v-6c0-9.3086-7.5-16.805-16.805-16.805z" fill="#fff"/></g></defs><path d="m52.801 36h278.4c9.2773 0 16.801 7.5234 16.801 16.801v278.4c0 9.2773-7.5234 16.801-16.801 16.801h-278.4c-9.2773 0-16.801-7.5234-16.801-16.801v-278.4c0-9.2773 7.5234-16.801 16.801-16.801z" fill="#fff"/><path d="m78 91.499 60 108-60 108h36l60-108-60-108zm60 0 60 108-60 108h36l42-75.612 42 75.612h36l-120-216zm100.01 72 13.332 24h54.661v-24zm26.651 48 13.333 24h28.008v-24z" fill="#060009" opacity=".3"/><path d="m78 84 60 108-60 108h36l60-108-60-108zm160.01 72 13.332 24h54.66v-24zm26.652 48 13.332 24h28.008v-24z" fill="#a166ba"/><path d="m138 84 60 108-60 108h36l42-75.613 42 75.613h36l-120-216z" fill="#8a3fab"/><use width="100%" height="100%" mask="url(#b)" xlink:href="#a"/><path transform="scale(.75)" d="m48 431.6v10c0 12.37 10.031 22.4 22.4 22.4h371.2c12.37 0 22.4-10.031 22.4-22.4v-10c0 12.37-10.031 22.4-22.4 22.4h-371.2c-12.37 0-22.4-10.031-22.4-22.4z" opacity=".3" stroke-width="1.3333"/><path transform="scale(.75)" d="m70.4 48c-12.37 0-22.4 10.031-22.4 22.4v10c0-12.37 10.031-22.4 22.4-22.4h371.2c12.37 0 22.4 10.031 22.4 22.4v-10c0-12.37-10.031-22.4-22.4-22.4h-371.2z" opacity=".1" stroke-width="1.3333"/></svg>
