<svg width="512" height="512" version="1.1" viewBox="0 0 384 384" xmlns="http://www.w3.org/2000/svg" xmlns:xlink="http://www.w3.org/1999/xlink"><defs><filter id="alpha" x="0%" y="0%" width="100%" height="100%"><feColorMatrix in="SourceGraphic" values="0 0 0 0 1 0 0 0 0 1 0 0 0 0 1 0 0 0 1 0"/></filter><clipPath><rect width="384" height="384"/></clipPath><mask id="b"><g filter="url(#alpha)"><rect width="384" height="384" fill-opacity=".2"/></g></mask><clipPath id="c"><rect width="384" height="384"/></clipPath><g id="a" clip-path="url(#c)"><path d="m192 36c-86.156 0-156 69.844-156 156 0.03125 1.1797 0.074219 2.3594 0.12891 3.5391 1.3438-85.145 70.715-153.48 155.87-153.54 84.742 0.046875 153.95 67.738 155.88 152.46 0.046875-0.82031 0.089844-1.6406 0.125-2.4609 0-86.156-69.844-156-156-156z" fill="#fff"/></g></defs><g stroke-width="1.0817"><path d="m360.75 192c0 93.198-75.552 168.75-168.75 168.75-93.198 0-168.75-75.552-168.75-168.75s75.552-168.75 168.75-168.75c93.198 0 168.75 75.552 168.75 168.75z" fill="#fff"/><path d="m209.71 69.701c7.1018 14.153 13.086 27.623 17.99 40.431-14.512-1.1668-27.911-1.6532-40.162-1.4341v-4e-3c-111.79 1.9987-128.76 62.006-51.923 179.42 5.1594-0.862 10.213-1.7793 15.009-2.8652-27.887-86.82-0.33089-139.74 82.922-158.59 34.122 105.9-14.339 161.29-145.39 166.15 20.084 3.54 38.681 6.169 55.852 7.9263 9.1026 13.247 18.945 26.935 30.294 41.555-7.1323-14.21-12.851-27.541-17.761-40.396 146.94 11.748 177.6-47.657 92.036-178.17 14.338-2.3813 30.086-3.9007 47.272-4.5396-19.989-3.5185-38.516-6.1455-55.619-7.9028-9.0683-13.184-19.236-27.041-30.523-41.583z" opacity=".3"/><path d="m209.7 62.197c146.59 188.85 106.08 263.23-121.55 223.11 152.82-5.6749 193.34-80.04 121.55-223.11" fill="#fd7d00"/><path d="m187.53 101.19c-111.79 1.9987-128.76 62.005-51.923 179.42 5.1594-0.862 10.213-1.7789 15.009-2.8649-33.96-105.73 14.278-161.19 145.23-166.06-42.682-7.513-78.78-11.016-108.31-10.488zm-43.633 191.89c9.1313 13.293 19.006 27.031 30.398 41.706-7.1496-14.244-12.879-27.605-17.798-40.489-4.0649-0.32537-8.3581-0.78172-12.6-1.217z" fill="#357af0"/></g><use transform="matrix(1.0817 0 0 1.0817 -15.692 -15.692)" width="100%" height="100%" mask="url(#b)" xlink:href="#a"/><path d="m23.302 187.94c-0.03181 1.3484-0.05229 2.7004-0.05229 4.0565 0 93.198 75.552 168.75 168.75 168.75 93.198 0 168.75-75.552 168.75-168.75 0-1.3561-0.0205-2.708-0.0523-4.0565-2.1546 91.324-76.856 164.69-168.7 164.69s-166.54-73.37-168.7-164.69z" opacity=".3"/><path transform="scale(.75)" d="m256 31c-124.26 0-225 100.74-225 225 0 1.6719 0.02817 3.3368 0.064453 5 2.6604-121.95 102.34-220 224.94-220 122.59 0 222.28 98.046 224.94 220 0.03628-1.6632 0.06445-3.3281 0.06445-5 0-124.26-100.74-225-225-225z" opacity=".1" stroke-width="1.4423"/></svg>
