<svg width="512" height="512" version="1.1" viewBox="0 0 384 384" xmlns="http://www.w3.org/2000/svg" xmlns:xlink="http://www.w3.org/1999/xlink"><g transform="translate(419.32 323.11)"><path d="m-386.94-182.69h319.23c4.0352 0 7.3047 2.6758 7.3047 5.9766v138.92c0 3.2969-3.2695 5.9727-7.3047 5.9727h-319.23c-4.0352 0-7.3047-2.6758-7.3047-5.9727v-138.92c0-3.3008 3.2695-5.9766 7.3047-5.9766z" fill-rule="evenodd" opacity=".3"/><path d="m-335.17-284.87h216.99c1 0 1.8086 0.98438 1.8086 2.1992v122.73c0 1.2148-0.80859 2.1992-1.8086 2.1992h-216.99c-1 0-1.8086-0.98439-1.8086-2.1992v-122.73c0-1.2148 0.80859-2.1992 1.8086-2.1992z" fill="#fff" fill-rule="evenodd"/><path d="m-294.43-45.681c-0.30859-0.80078-0.40234-2.2695-0.21094-3.2656 0.33204-1.7148 2.7266-1.8125 45.043-1.8125h44.695v6.0078l-44.484 0.26172c-38.129 0.22266-44.562 0.0547-45.043-1.1914z" fill="#b3b3b3"/><path d="m-190.94-45.671c-0.31251-0.80859-0.41016-2.2852-0.21486-3.2812 0.32031-1.6524 1.6953-1.8125 15.906-1.8125h15.559v6.0078l-15.344 0.27735c-12.738 0.23047-15.438 0.0274-15.906-1.1914z" fill="#b3b3b3"/><path d="m-386.94-190.19h319.23c4.0352 0 7.3047 2.6758 7.3047 5.9766v138.92c0 3.2969-3.2695 5.9727-7.3047 5.9727h-319.23c-4.0352 0-7.3047-2.6758-7.3047-5.9727v-138.92c0-3.3008 3.2695-5.9766 7.3047-5.9766z" fill="#e6e6e6" fill-rule="evenodd"/><path d="m-350.6-190.22v19.012h-0.0312v38.234h246.12v-19.125h0.0312v-38.121zm245.85 107.51-123.18 0.69531-123.6-0.34765 0.14844 20.25v22.832l19.598 0.0156 19.449 0.0195 0.28515-12.188 0.20704-8.1289 83.41-0.14062c66.719-0.11328 84.172-0.69141 85.129-0.0312 0.94531 0.64845 0.67578 4.5156 0.77734 8.918l0.25781 11.461 19.535 0.0469 18.793-0.0742-0.54297-21.684z" fill="#333"/><path d="m-310.61-88.941h166.45c0.7656 0 1.3867 0.86718 1.3867 1.9336v107.72c0 1.0664-0.62109 1.9297-1.3867 1.9297h-166.45c-0.76563 0-1.3867-0.86328-1.3867-1.9297v-107.72c0-1.0664 0.62109-1.9336 1.3867-1.9336z" fill-rule="evenodd" opacity=".3"/><g transform="translate(-419.32,-325.68)" fill="#fff"><path d="m108.71 229.24h166.45c0.76562 0 1.3867 0.86719 1.3867 1.9336v107.72c0 1.0664-0.62109 1.9297-1.3867 1.9297h-166.45c-0.76563 0-1.3867-0.86328-1.3867-1.9297v-107.72c0-1.0664 0.62109-1.9336 1.3867-1.9336z" fill-rule="evenodd"/><path d="m108.71 228.65h166.45c0.76562 0 1.3867 0.86328 1.3867 1.9297v36.238c0 1.0664-0.62109 1.9336-1.3867 1.9336h-166.45c-0.76563 0-1.3867-0.86719-1.3867-1.9336v-36.238c0-1.0664 0.62109-1.9297 1.3867-1.9297z" fill-rule="evenodd"/><path d="m300.88 154.44c0 5.3047-4.3008 9.6055-9.6094 9.6055-5.3047 0-9.6055-4.3008-9.6055-9.6055 0-5.3086 4.3008-9.6094 9.6055-9.6094 5.3086 0 9.6094 4.3008 9.6094 9.6094z"/></g></g><path d="m374.25 299.64c0-45.105-36.496-81.672-81.52-81.672-45.023 0-81.52 36.566-81.52 81.672 0 45.105 36.496 81.668 81.52 81.668 45.023 0 81.52-36.562 81.52-81.668z" fill="#1c0303" opacity=".3"/><path d="m374.25 292.14c0-45.105-36.496-81.672-81.52-81.672-45.023 0-81.52 36.566-81.52 81.672 0 45.105 36.496 81.668 81.52 81.668 45.023 0 81.52-36.562 81.52-81.668z" fill="#d41717"/><path d="m296.64 237.64c-5.1602 0-10.316 0.68359-15.039 2.0547-18.129 5.2539-32.18 19.301-37.434 37.434-2.7383 9.4414-2.7383 20.633 0 30.074 1.7695 6.1133 4.6406 11.996 8.3164 17.051 8.8281 12.133 22.262 20.098 37.195 22.051 3.2422 0.42188 10.27 0.4375 13.574 0.0234 11.398-1.4219 21.359-5.9844 30.121-13.797 2.9883-2.668 3.9102-3.9609 4.0352-5.6797 0.0742-1.0274-0.0195-1.5625-0.39063-2.293-0.64844-1.2695-2.3594-2.7422-4.2656-3.6758-0.92579-0.45313-1.3633-0.63672-2.1797-0.71094-1.2305-0.33203-4.7461-0.57812-6.6719 0.59375-1.5625 0.94922-2.5234 1.6484-4.375 4.2773-2.7383 3.8867-7.1211 7.9062-10.867 9.7891-5.1914 2.6094-10.367 3.5781-15.27 2.7812-1.0664-0.23438-2.1367-0.55078-3.2109-0.95703-4.6367-1.7422-8.8125-4.8984-12.316-9.1524-0.76953-1-1.5195-2.0664-2.2422-3.2148-1.3164-2.0938-4.1094-7.9844-5.0078-10.559-1.582-4.5156-2.9258-9.2148-3.5586-14.246-0.90625-8.6406-0.0234-17.121 2.2422-24.641 0.20704-0.67188 0.42188-1.3398 0.65235-2.0195 0.0117-0.0312 0.0195-0.0586 0.0312-0.0859 0-8e-3 4e-3 -0.0117 4e-3 -0.0195 0.2461-0.71485 0.50391-1.4141 0.77735-2.1055 8e-3 -0.0195 0.0117-0.0391 0.0195-0.0547 4.1875-10.648 11.254-18.5 19.547-21.621 5.7109-2.1484 11.789-1.4727 17.398 1.1562 5.5039 2.582 10.164 7.582 13.875 13.852 1.168 1.9726 1.8672 2.0117 3.4805 2.8047 1.7266 0.84375 3.8789 1.0117 5.6445 1.0117 0.58594 0 0.96094-0.0391 1.0938-0.25781 3.2188-0.4375 5.9453-2.0469 6.9648-4.2305 0.72265-1.5547 0.6914-2.6992-0.13672-4.7969-0.84766-2.1484-2.1016-3.7852-4.7031-6.1406-6.8711-6.2226-13.922-10.223-22.27-12.641-4.7188-1.3711-9.8789-2.0547-15.035-2.0547zm0 37.273v8.5234h1.6328l0.0664-2.3594c0.0391-1.3438 0.17188-2.375 0.30469-2.3945 0.12891-0.0195 0.83203 1.0156 1.5586 2.3008 1.3125 2.3203 1.3242 2.332 2.3008 2.4062l0.97656 0.0742v-8.5234h-1.6524v2.3477c0 1.2891-0.0898 2.4023-0.20703 2.4726-0.11328 0.0703-0.82812-0.95703-1.5898-2.2852l-1.3867-2.418-1.0039-0.0703zm-8.4961 0.0273v3.3164c0 3.6523 0.20703 4.418 1.3594 5.043 0.85156 0.46093 3.1953 0.46875 4.0781 0.0117 1.1953-0.61719 1.4062-1.3672 1.4062-5.0547v-3.3164h-1.8438l-0.082 3.1524c-0.0898 3.5078-0.25 3.9258-1.4961 3.9258-1.2461 0-1.4062-0.41797-1.4961-3.9258l-0.082-3.1524zm16.988 0v8.4961h1.8867v-8.4961zm4.1211 0c-0.57813 0-1.0508 0.082-1.0508 0.17578 0 0.0977 0.47657 0.97657 1.0586 1.9492 0.58203 0.97266 1.0586 1.8984 1.0586 2.0508 0 0.15625-0.52344 1.1016-1.1641 2.1055-0.64453 1.0039-1.1133 1.9102-1.0508 2.0195 0.0664 0.10547 0.54687 0.19532 1.0625 0.19532 0.85937 0 0.99219-0.0899 1.5781-1.0547 0.35157-0.58203 0.76172-1.0586 0.91797-1.0625 0.15235-4e-3 0.52344 0.44531 0.82813 0.99609 0.48047 0.87891 0.66406 1.0117 1.4648 1.0781 0.5 0.0391 1.0039-0.0195 1.1172-0.12891 0.11328-0.11719-0.3125-1.0234-0.97656-2.0703-0.64844-1.0274-1.1797-2.0039-1.1797-2.1719s0.47656-1.0703 1.0625-2.0078c0.58203-0.9375 1.0625-1.7969 1.0625-1.9023 0-0.10938-0.50391-0.16407-1.1211-0.125-1.0234 0.0664-1.1602 0.14843-1.5938 0.95703-0.25781 0.48437-0.57812 0.88281-0.70703 0.88281-0.1289 0-0.48047-0.42578-0.77343-0.94141-0.50391-0.8789-0.60938-0.94531-1.5938-0.94531zm30.797 11.836c-1.0508-0.0469-2.1953 0.16016-2.7695 0.58594-1.1094 0.82031-1.707 2.1406-1.7109 3.7852 0 0.80078 0.10938 1.7578 0.25 2.1211 0.29688 0.78906 1.3281 1.9336 1.9883 2.207 0.78516 0.32812 2.457 0.25 3.2266-0.14453 0.51953-0.26953 0.79296-0.30469 0.97656-0.1211 0.14062 0.14453 0.5 0.25782 0.80078 0.25782 0.52734 0 0.54297-0.0586 0.54297-2.2422v-2.2422h-3.543v0.71094c0 0.625 0.082 0.70703 0.69531 0.70703 0.38281 0 0.75391 0.0977 0.82813 0.21484 0.24218 0.39453-0.16797 1.0117-0.86719 1.3086-1.3633 0.57422-2.4219-0.0625-2.7852-1.6758-0.27343-1.2109 0.14063-3.0508 0.78907-3.5078 0.79296-0.55468 1.9688-0.44531 2.5664 0.23828 0.53516 0.61329 1.9024 0.82813 2.2031 0.34766 0.2539-0.41406-0.6875-1.7422-1.5469-2.1875-0.41797-0.21875-1.0117-0.33594-1.6445-0.36328zm-32.086 0.17187v8.5195h1.6328l0.0664-2.3594c0.0391-1.3438 0.17188-2.375 0.30469-2.3945 0.12891-0.0195 0.83203 1.0195 1.5586 2.3008 1.3164 2.3242 1.3281 2.3359 2.3008 2.4062l0.97657 0.0742v-8.5195h-1.6484v2.3438c0 1.2891-0.0937 2.4023-0.20703 2.4726-0.11719 0.0703-0.83203-0.95703-1.5938-2.2852l-1.3867-2.4141-1.0039-0.0742zm19.582 0v8.5195h1.6328l0.0703-2.3594c0.0391-1.3438 0.16797-2.375 0.30078-2.3945 0.12891-0.0195 0.83203 1.0195 1.5586 2.3008 1.3164 2.3242 1.3281 2.3359 2.3008 2.4062l0.97656 0.0742v-8.5195h-1.6484v2.3438c0 1.2891-0.0937 2.4023-0.20703 2.4726-0.11719 0.0703-0.83203-0.95703-1.5938-2.2852l-1.3867-2.4141-1-0.0742zm-39.402 0.0274v8.4922h1.8867v-1.25c0-0.6875 0.12891-1.3789 0.28516-1.5352s0.85546-0.28125 1.5508-0.28125c1.0898 0 1.3672-0.0977 1.9609-0.69141 0.59766-0.59765 0.6875-0.86328 0.6875-2.0234 0-1.1602-0.0898-1.4219-0.6875-2.0234-0.67578-0.67578-0.74218-0.6875-3.1875-0.6875zm7.7852 0v8.4922h1.8906v-1.3867c0-1.668 0.32031-2.043 1.5742-1.8398 1.1406 0.1875 1.2734 0.35547 1.4531 1.8438l0.15625 1.2656 1.0156 0.0703 1.0156 0.0742-0.14844-1.4883c-0.082-0.82031-0.26563-1.7305-0.41016-2.0312-0.21094-0.42578-0.18359-0.67578 0.13281-1.2148 0.63672-1.0703 0.51954-2.2852-0.28906-3.0976-0.6875-0.6836-0.70703-0.6875-3.5391-0.6875zm8.4961 0v8.4922h1.8867v-8.4922zm11.324 0v0.70703c0 0.67578 0.043 0.70703 1.0156 0.70703 0.55469 0 1.1406 0.12891 1.2969 0.28125 0.19141 0.19531 0.28125 1.3242 0.28125 3.543v3.2539h1.8867v-3.2539c0-2.2188 0.0937-3.3477 0.28515-3.543 0.15625-0.15234 0.73829-0.28125 1.2969-0.28125 0.97266 0 1.0156-0.0312 1.0156-0.70703v-0.70703zm8.2578 0v8.4922h1.8867v-8.4922zm-24.977 1.4141c1.2344 0 1.8555 0.39453 1.8555 1.1797 0 0.55469-0.13672 0.76953-0.60547 0.94922-0.82422 0.3125-1.8359 0.28906-2.1797-0.0508-0.15625-0.15625-0.28125-0.5625-0.28125-0.89844 0-0.78906 0.39844-1.1797 1.2109-1.1797zm-7.9219 0.0117c0.3125 4e-3 0.64844 0.10547 0.91407 0.30078 0.44922 0.32813 0.58203 1.457 0.21484 1.8242-0.38672 0.38281-1.6016 0.50391-1.9102 0.19141-0.375-0.37891-0.38281-1.6758-0.0117-2.0469 0.1875-0.18359 0.48046-0.27734 0.79296-0.26953zm0.51954 10.383c-0.22657 0-0.4961 0.0117-0.8125 0.0312-1.3906 0.0899-1.625 0.17969-2.2305 0.85547-0.53125 0.59766-0.67578 0.98438-0.67578 1.8281 0 1.3867 0.65234 2.0586 2.3711 2.4453 2.0938 0.46875 2.582 0.71875 2.582 1.3203 0 1.1328-2.5117 1.2891-3.2266 0.19531-0.51563-0.78515-1.9648-0.80468-1.957-0.0234 8e-3 0.68359 0.6289 1.4688 1.5273 1.9336 0.39844 0.20312 1.3086 0.36328 2.0781 0.36328 2.2812 4e-3 3.4648-0.93359 3.4648-2.7422 0-1.2266-0.8125-2.0078-2.5117-2.418-1.957-0.47656-2.4414-0.74218-2.4414-1.3398 0-0.68359 0.27735-0.85937 1.3633-0.85937 0.64453 0 0.98437 0.15625 1.3516 0.61328 0.55469 0.69531 2.0039 0.89062 2.0039 0.26953 0-0.69531-0.57421-1.5664-1.3516-2.0469-0.49219-0.30468-0.84765-0.41797-1.5352-0.42578zm16.043 0c-0.23046 0-0.49218 0.0117-0.8125 0.0312-1.3906 0.0899-1.6211 0.17969-2.2305 0.85547-0.53125 0.59766-0.67579 0.98438-0.67579 1.8281 0 1.3867 0.65235 2.0586 2.375 2.4453 2.0898 0.46875 2.5781 0.71875 2.5781 1.3203 0 1.1328-2.5117 1.2891-3.2266 0.19531-0.51563-0.78515-1.9648-0.80468-1.957-0.0234 8e-3 0.68359 0.6289 1.4688 1.5273 1.9336 0.39844 0.20312 1.3086 0.36328 2.0781 0.36328 2.2812 4e-3 3.4688-0.93359 3.4688-2.7422 0-1.2266-0.8164-2.0078-2.5156-2.418-1.957-0.47656-2.4414-0.74218-2.4414-1.3398 0-0.68359 0.27735-0.85937 1.3633-0.85937 0.64454 0 0.98438 0.15625 1.3516 0.61328 0.55468 0.69531 2.0039 0.89062 2.0039 0.26953 0-0.69531-0.57422-1.5664-1.3516-2.0469-0.48828-0.30468-0.84766-0.41797-1.5352-0.42578zm19.875 0.19922v8.5156h1.6484l4e-3 -2.0625c8e-3 -3.0117 0.30469-3.1289 0.96875-0.375l0.5625 2.3203h1.8867l0.5625-2.3203c0.66797-2.7539 0.96484-2.6367 0.96875 0.375l4e-3 2.0625h1.6524v-8.5156l-2.6875 0.14063-0.60547 2.5938c-0.33594 1.4297-0.71094 2.5781-0.83594 2.5508-0.12891-0.0234-0.5-1.1914-0.82422-2.5938l-0.59765-2.5508-1.3516-0.0703zm-30.883 0.0234c-0.51562 0-0.99219 0.0859-1.0586 0.1875-0.0625 0.10547 0.48437 1.2461 1.2148 2.5391 1.2109 2.1406 1.3359 2.4961 1.4258 4.0547l0.0977 1.7109h1.7852l0.0937-1.7109c0.0898-1.5586 0.21484-1.9141 1.4258-4.0547 0.73437-1.293 1.2773-2.4336 1.2148-2.5391-0.0664-0.10156-0.54297-0.1875-1.0625-0.1875-0.93359 0-0.95312 0.0156-1.6406 1.5312-0.38282 0.84375-0.78907 1.5352-0.90625 1.5352-0.11719 0-0.53516-0.6914-0.92969-1.5352-0.70703-1.5117-0.73047-1.5312-1.6602-1.5312zm14.84 0v0.70703c0 0.67578 0.043 0.70703 1.0117 0.70703 0.5586 0 1.1445 0.12891 1.3008 0.28516 0.1914 0.1914 0.28125 1.3203 0.28125 3.5391v3.2539h1.8867v-3.2539c0-2.2188 0.0899-3.3477 0.28516-3.5391 0.15625-0.15625 0.73828-0.28516 1.2969-0.28516 0.96875 0 1.0156-0.0312 1.0156-0.70703v-0.70703zm8.2578 0v8.4922h6.3672v-1.4141h-2.0742c-2.2578 0-2.6445-0.17578-2.6445-1.1992 0-0.92187 0.41015-1.1289 2.3711-1.207 1.6992-0.0703 1.7617-0.0898 1.7617-0.66015 0-0.57032-0.0664-0.59766-1.8672-0.71094-1.4297-0.0898-1.9219-0.21094-2.1211-0.52734-0.1875-0.30079-0.1875-0.52735 0-0.82813 0.21093-0.33203 0.66406-0.42578 2.3008-0.48047l2.0391-0.0703v-1.3945z" fill="#fff"/></svg>
