<svg width="512" height="512" version="1.1" viewBox="0 0 384 384" xmlns="http://www.w3.org/2000/svg" xmlns:xlink="http://www.w3.org/1999/xlink"><defs><clipPath><rect width="384" height="384"/></clipPath><filter id="a" x="0%" y="0%" width="100%" height="100%"><feColorMatrix in="SourceGraphic" values="0 0 0 0 1 0 0 0 0 1 0 0 0 0 1 0 0 0 1 0"/></filter><mask id="i"><g filter="url(#a)"><rect width="384" height="384" fill-opacity=".10196"/></g></mask><clipPath id="m"><rect width="384" height="384"/></clipPath><g id="b" clip-path="url(#m)"><path transform="scale(.75)" d="m98.391 49.75c0 4.4792-3.6302 8.1094-8.1094 8.1094s-8.1094-3.6302-8.1094-8.1094 3.6302-8.1094 8.1094-8.1094 8.1094 3.6302 8.1094 8.1094zm0 0" stroke="#fff" stroke-linecap="round" stroke-linejoin="round" stroke-width=".99655"/></g><mask id="h"><g filter="url(#a)"><rect width="384" height="384" fill-opacity=".10196"/></g></mask><clipPath id="l"><rect width="384" height="384"/></clipPath><g id="e" clip-path="url(#l)"><path transform="scale(.75)" d="m429.85 49.75c0 4.4792-3.6302 8.1094-8.1094 8.1094-4.474 0-8.1042-3.6302-8.1042-8.1094s3.6302-8.1094 8.1042-8.1094c4.4792 0 8.1094 3.6302 8.1094 8.1094zm0 0" stroke="#fff" stroke-linecap="round" stroke-linejoin="round" stroke-width=".99655"/></g><mask id="g"><g filter="url(#a)"><rect width="384" height="384" fill-opacity=".10196"/></g></mask><clipPath id="k"><rect width="384" height="384"/></clipPath><g id="d" clip-path="url(#k)"><path transform="scale(.75)" d="m98.391 404.61c0 4.4792-3.6302 8.1094-8.1094 8.1094s-8.1094-3.6302-8.1094-8.1094c0-4.4792 3.6302-8.1094 8.1094-8.1094s8.1094 3.6302 8.1094 8.1094zm0 0" stroke="#fff" stroke-linecap="round" stroke-linejoin="round" stroke-width=".99655"/></g><mask id="f"><g filter="url(#a)"><rect width="384" height="384" fill-opacity=".10196"/></g></mask><clipPath id="j"><rect width="384" height="384"/></clipPath><g id="c" clip-path="url(#j)"><path transform="scale(.75)" d="m429.85 404.61c0 4.4792-3.6302 8.1094-8.1094 8.1094-4.474 0-8.1042-3.6302-8.1042-8.1094 0-4.4792 3.6302-8.1094 8.1042-8.1094 4.4792 0 8.1094 3.6302 8.1094 8.1094zm0 0" stroke="#fff" stroke-linecap="round" stroke-linejoin="round" stroke-width=".99655"/></g><clipPath><rect width="384" height="384"/></clipPath></defs><path d="m69.555 24.285h244.89c8.7148 0 15.781 7.0664 15.781 15.777v303.88c0 8.7148-7.0664 15.781-15.781 15.781h-244.89c-8.7148 0-15.781-7.0664-15.781-15.781v-303.88c0-8.7109 7.0664-15.777 15.781-15.777z"/><g fill="#fff"><path d="m74.383 329.47h116.23c2.3945 0 4.3359 1.9414 4.3359 4.3359v8.5664c0 2.3945-1.9414 4.3398-4.3359 4.3398h-116.23c-2.3984 0-4.3398-1.9453-4.3398-4.3398v-8.5664c0-2.3945 1.9414-4.3359 4.3398-4.3359z"/><path d="m69.562 23.387h244.89c8.7148 0 15.781 6.1914 15.781 13.828v266.34c0 7.6406-7.0664 13.832-15.781 13.832h-244.89c-8.7148 0-15.781-6.1914-15.781-13.832v-266.34c0-7.6367 7.0664-13.828 15.781-13.828z"/><path d="m275.97 338.06c0 4.2695-3.4609 7.7305-7.7305 7.7305-4.2734 0-7.7344-3.4609-7.7344-7.7305s3.4609-7.7305 7.7344-7.7305c4.2695 0 7.7305 3.4609 7.7305 7.7305z"/><path d="m299.85 338.06c0 4.2695-3.4648 7.7305-7.7344 7.7305s-7.7305-3.4609-7.7305-7.7305 3.4609-7.7305 7.7305-7.7305 7.7344 3.4609 7.7344 7.7305z"/></g><use width="100%" height="100%" mask="url(#i)" xlink:href="#b"/><use width="100%" height="100%" mask="url(#h)" xlink:href="#e"/><use width="100%" height="100%" mask="url(#g)" xlink:href="#d"/><use width="100%" height="100%" mask="url(#f)" xlink:href="#c"/><path transform="scale(.75)" d="m350.6 227.18c0 52.24-42.349 94.589-94.589 94.589-52.24 0-94.589-42.349-94.589-94.589s42.349-94.589 94.589-94.589c52.24 0 94.589 42.349 94.589 94.589zm0 0" fill="none" stroke="#000" stroke-linecap="round" stroke-linejoin="round" stroke-width="21.924"/><path d="m192.01 98.725c-43.623 0-79.162 35.539-79.162 79.162s35.539 79.162 79.162 79.162c43.623 0 79.162-35.539 79.162-79.162s-35.539-79.162-79.162-79.162zm0 16.441c34.736 0 62.721 27.984 62.721 62.721s-27.984 62.721-62.721 62.721c-34.736 0-62.721-27.984-62.721-62.721s27.984-62.721 62.721-62.721z" color="#000000" color-rendering="auto" dominant-baseline="auto" image-rendering="auto" opacity=".3" shape-rendering="auto" solid-color="#000000" style="font-feature-settings:normal;font-variant-alternates:normal;font-variant-caps:normal;font-variant-ligatures:normal;font-variant-numeric:normal;font-variant-position:normal;isolation:auto;mix-blend-mode:normal;shape-padding:0;text-decoration-color:#000000;text-decoration-line:none;text-decoration-style:solid;text-indent:0;text-orientation:mixed;text-transform:none;white-space:normal"/><path d="m384 283.5c0 53.02-42.98 96-96 96s-96-42.98-96-96 42.98-96 96-96c53.02 0 96 42.98 96 96z" fill="#070707" fill-rule="evenodd" opacity=".3"/><path d="m384 276c0 53.02-42.98 96-96 96s-96-42.98-96-96 42.98-96 96-96 96 42.98 96 96z" fill="#8b41aa" fill-rule="evenodd"/><path d="m276 228-1.0586 12.645c-4.0078 1.4844-7.7344 3.6406-11.023 6.375l-11.488-5.4102-12 20.785 10.43 7.2422c-0.37109 2.1016-0.5625 4.2305-0.57421 6.3633 0 2.1406 0.18359 4.2773 0.54687 6.3867l-10.406 7.2188 12 20.785 11.465-5.3945c3.2969 2.7227 7.0352 4.8633 11.051 6.332l1.0586 12.672h24l1.0586-12.645c4.0078-1.4844 7.7344-3.6406 11.02-6.375l11.492 5.4102 12-20.785-10.434-7.2461c0.37109-2.0976 0.5664-4.2266 0.57812-6.3594-4e-3 -2.1406-0.1875-4.2773-0.55078-6.3906l10.406-7.2188-12-20.785-11.465 5.3984c-3.2969-2.7227-7.0352-4.8672-11.051-6.3359l-1.0547-12.672h-24zm12 34.285c7.5742 0 13.715 6.1406 13.715 13.719 0 7.5742-6.1406 13.715-13.715 13.715s-13.715-6.1406-13.715-13.715c0-7.5781 6.1406-13.719 13.715-13.719z" fill="#fff"/></svg>
