<svg width="512" height="512" version="1.1" viewBox="0 0 384 384" xmlns="http://www.w3.org/2000/svg">
 <path d="m192.00001 30.749991c-60.66796 0-113.85206 32.022948-143.59424 80.081539-6e-3 0.0103-0.01268 0.0206-0.01905 0.0308-1.35e-4 6.2e-4 1.28e-4 7.4e-4 0 1e-3 -15.933217 25.75927-25.136722 56.12274-25.136722 88.63669 0 90.34374 70.996087 164.10545 160.24219 168.53906 2.8164 0.13672 5.65625 0.21093 8.50781 0.21093 93.19922 0 168.75-75.55077 168.75-168.74999 0-28.24219-6.9497-54.85547-19.21142-78.2461-28.20702-53.796871-84.58153-90.503929-149.53857-90.503929z" style="opacity:.3"/>
 <path d="m341.53906 113.75391c-236.35937 188.83203-118.17969 94.41406 0 0zl-136.62109 0.0547 46.32812 130.70703-67.7539 116.02344c2.8164 0.13672 5.65625 0.21094 8.50781 0.21094 93.19922 0 168.75-75.55078 168.75-168.75 0-28.24219-6.94922-54.85547-19.21094-78.24609z" style="fill:rgb(100.000%,78.039%,18.823%)"/>
 <path d="m192 23.25c-60.66797 0-113.85156 32.023438-143.59375 80.08203l68.03917 111.46311 75.55458-102.04123c4.10937 0.0352 8.21094 0.38672 12.26172 1.05468l137.27734-0.0547c-28.20703-53.796859-84.58203-90.50389-149.53906-90.50389zm-143.61328 80.11328c-40.925781 195.75781-20.460938 97.87891 0 0z" style="fill:rgb(83.137%,9.803%,9.803%)"/>
 <path d="m48.40625 103.33203c-15.945312 25.76563-25.15625 56.14063-25.15625 88.66797 0 90.34375 70.996094 164.10547 160.24219 168.53906l67.7539-116.02344c-15.01953 16.97266-36.58203 26.70313-59.24609 26.73047l-75.55458-56.45095z" style="fill:rgb(4.705%,63.137%,36.862%)"/>
 <path d="m341.55415 113.71483-111.48215 35.8434-28.71983-35.76147z" style="fill-opacity:.95295697;opacity:.3"/>
 <path d="m183.48828 360.55469 25.32008-114.33246 45.36749-6.74548z" style="fill-opacity:.95295697;opacity:.3"/>
 <path d="m48.277344 103.33594 88.685356 76.47174-15.55647 43.14752z" style="fill-opacity:.95295697;opacity:.3"/>
 <path d="m271.24609 192c0 43.76562-35.48047 79.24609-79.24609 79.24609-43.76563 0-79.24609-35.48047-79.24609-79.24609 0-43.76563 35.48046-79.24609 79.24609-79.24609 43.76562 0 79.24609 35.48046 79.24609 79.24609z" style="fill:rgb(100.000%,100.000%,100.000%)"/>
 <path d="m257.39062 192c0 36.11328-29.27734 65.39062-65.39062 65.39062s-65.39062-29.27734-65.39062-65.39062 29.27734-65.39062 65.39062-65.39062 65.39062 29.27734 65.39062 65.39062z" style="fill:rgb(21.176%,48.235%,94.117%)"/>
</svg>
