<svg width="512" height="512" version="1.1" viewBox="0 0 384 384" xmlns="http://www.w3.org/2000/svg" xmlns:xlink="http://www.w3.org/1999/xlink"><defs><clipPath><rect width="384" height="384"/></clipPath></defs><g transform="translate(-.00225 .00075)"><path d="m39.785 47.797c-13.316 0-24.035 10.719-24.035 24.031v240.34c0 13.312 10.719 24.031 24.035 24.031h304.43c13.316 0 24.035-10.719 24.035-24.031v-240.34c0-13.312-10.719-24.031-24.035-24.031z" fill="#fff"/><path d="m39.785 47.797c-13.316 0-24.035 10.719-24.035 24.031v8.0117c0-13.312 10.719-24.031 24.035-24.031h304.43c13.316 0 24.035 10.719 24.035 24.031v-8.0117c0-13.312-10.719-24.031-24.035-24.031z" fill="#fff" fill-opacity=".2"/><path d="m47.797 79.836h288.41v224.32h-288.41z" fill="#353a4a"/><path d="m117.79 79.84 9 224.32h30.434l91.637-91.637 16.02-16.023-16.02-16.023-100.64-100.64z" opacity=".3"/><path d="m47.797 79.84v224.32h94.523l112.16-112.16-112.16-112.16z" fill="#ffc72e"/><path d="m52.297 79.84 9 224.32h30.434l91.637-91.637 16.02-16.023-16.02-16.023-100.64-100.64z" opacity=".3"/><path d="m47.797 79.84v224.32h30.434l96.137-96.137 16.02-16.023-16.02-16.023-96.137-96.137z" fill="#21b8c2"/><path d="m336.2 193.61-110.55 110.55h110.55z" fill="#fd4747" fill-opacity=".99608"/><path transform="scale(.75)" d="m21 406.23v10c0 17.75 14.292 32.043 32.047 32.043h405.91c17.755 0 32.047-14.293 32.047-32.043v-10c0 17.75-14.292 32.043-32.047 32.043h-405.91c-17.755 0-32.047-14.293-32.047-32.043z" opacity=".3" stroke-width="1.3333"/><path transform="scale(.75)" d="m53.049 63.725c-17.755 0-32.047 14.291-32.047 32.041v10c0-17.75 14.292-32.041 32.047-32.041h405.91c17.755 0 32.047 14.291 32.047 32.041v-10c0-17.75-14.292-32.041-32.047-32.041z" opacity=".1" stroke-width="1.3333"/></g><path d="m378.45 266.93c0-51.762-41.883-93.723-93.551-93.723s-93.551 41.961-93.551 93.723 41.883 93.723 93.551 93.723 93.551-41.961 93.551-93.723z" opacity=".3"/><path d="m378.45 259.43c0-51.762-41.883-93.723-93.551-93.723s-93.551 41.961-93.551 93.723 41.883 93.723 93.551 93.723 93.551-41.961 93.551-93.723z" fill="#2861bf"/><path d="m302.82 200.02c-2.707 0.0234-5.4688 0.20704-8.207 0.58985l4e-3 -0.0273c-11.414 1.5859-23.684 7.5625-33.66 25.25-22.816 40.422-21.195 54.492-24.832 59.039-3.6524 4.5273-13.488 6.9844-12.066 12.129 8.2734 25.219 48.34 22.324 58.887 21.055 41.656-5.8086 47.43-15.27 47.055-19.965-0.37891-4.6992-9.168-8.1289-9.168-8.1289s-6.5078-24.688-4.8398-34.82c1.6719-10.141 8.0195-24.918 14.293-28.098 6.2539-3.2109 11.781 8.9102 15.016 5.4648 3.4609-6.1016-10.094-23.523-13.73-26.465-0.87891-0.5664-2.2617-1.3867-2.5117-1.5078-3.7617-1.8438-14.504-4.6367-26.238-4.5195zm-6.3867 26.812 4.4414 11.938 11.781 4.5274-9.082 7.7969-0.19921 12.656-9.6367-6.6367-12.895 4.4688 3.6133-12.27-6.7188-11.316 12.223-0.69532zm-30.422 24.688 3.0039 12.445 11.148 6.1094-9.9258 6.4844-1.6875 12.52-8.7539-7.8789-13.328 2.6719 5.0195-11.664-5.3203-12.152 12.203 0.98438zm24.676 7.9102 7.5156 9.957 12.496 0.57813-6.5078 10.336 3.2891 12.148-11.023-3.2461-11.074 8.375 0.0742-12.871-9.5508-8.6523 11.488-4.5469z" fill="#fff"/></svg>
