<svg width="512" height="512" version="1.1" viewBox="0 0 384 384" xmlns="http://www.w3.org/2000/svg">
 <rect x="13.773071" y="39.193176" width="356.45386" height="305.61365" rx="11.389831" ry="11.389831" style="fill:#ffffff"/>
 <rect x="33.257812" y="62.523438" width="319.58984" height="262.5625" rx="8.0538225" ry="8.0538225"/>
 <path d="m41.882812 91.234375h302.48047v85.183595h-302.48047z" style="fill:#171717"/>
 <path d="m41.929688 89.691406v91.035154h301.09375v-91.035154zm0.05859 115.35937v91.03125h301.09375v-91.03125z" style="fill-opacity:.99215698;fill:#262833"/>
 <path d="m41.15625 89.69531v91.03125m13.097655-91.03125v91.03125m13.097656-91.03125v91.03125m13.101565-91.03125v91.03125m13.097656-91.03125v91.03125m13.101558-91.03125v91.03125m13.09766-91.03125v91.03125m13.10156-91.03125v91.03125m13.09765-91.03125v91.03125m13.10157-91.03125v91.03125m13.09765-91.03125v91.03125m13.10157-91.03125v91.03125m13.09765-91.03125v91.03125m13.09766-91.03125v91.03125m13.10156-91.03125v91.03125m13.09766-91.03125v91.03125m13.10156-91.03125v91.03125m13.09766-91.03125v91.03125m13.10156-91.03125v91.03125m13.09766-91.03125v91.03125m13.10156-91.03125v91.03125m13.09765-91.03125v91.03125m13.10157-91.03125v91.03125m13.09765-91.03125v91.03125m-301.28515-91.03125h302.48046m-302.48046 12.94922h302.48046m-302.48046 12.94921h302.48046m-302.48046 12.94923h302.48046m-302.48046 12.94922h302.48046m-302.48046 12.94922h302.48046m-302.48046 12.94921h302.48046m-302.48046 12.94922h302.48046" style="fill-rule:evenodd;fill:#333542;stroke-width:1.4035088;stroke:#171717"/>
 <path d="m41.214843 205.05078v91.03125m13.097656-91.03125v91.03125m13.101562-91.03125v91.03125m13.097653-91.03125v91.03125m13.101564-91.03125v91.03125m13.097652-91.03125v91.03125m13.10157-91.03125v91.03125m13.09765-91.03125v91.03125m13.10157-91.03125v91.03125m13.09765-91.03125v91.03125m13.10157-91.03125v91.03125m13.09765-91.03125v91.03125m13.09766-91.03125v91.03125m13.10156-91.03125v91.03125m13.09766-91.03125v91.03125m13.10156-91.03125v91.03125m13.09766-91.03125v91.03125m13.10156-91.03125v91.03125m13.09765-91.03125v91.03125m13.10156-91.03125v91.03125m13.09766-91.03125v91.03125m13.09765-91.03125v91.03125m13.10157-91.03125v91.03125m13.09765-91.03125v91.03125m-301.28515-91.03125h302.48438m-302.48438 12.94921h302.48438m-302.48438 12.94922h302.48438m-302.48438 12.94922h302.48438m-302.48438 12.94923h302.48438m-302.48438 12.94921h302.48438m-302.48438 12.95313h302.48438m-302.48438 12.94922h302.48438" style="fill-opacity:.90588199;fill-rule:evenodd;fill:#73757f;stroke-width:1.4035088;stroke:#171717"/>
 <path d="m55.011719 103.60547v11.10937h11.109375v-11.10937zm13.449219 0v11.10937h11.113281v-11.10937zm39.183592 0v11.10937h11.10938v-11.10937zm12.86328 0v11.10937h11.11328v-11.10937zm13.45313 0v11.10937h11.10937v-11.10937zm39.17968 0v11.10937h11.10938v-11.10937zm12.86329 0v11.10937h11.11328v-11.10937zm13.45312 0v11.10937h11.10938v-11.10937zm26.31641 0v11.10937h11.10937v-11.10937zm39.17968 0v11.10937h11.10938v-11.10937zm39.17969 0v11.10937h11.11328v-11.10937zm12.86719 0v11.10937h11.10937v-11.10937zm-274.85547 12.86328v11.11328h11.113281v-11.11328zm39.183594 0v11.11328h11.109375v-11.11328zm26.316405 0v11.11328h11.10938v-11.11328zm39.17969 0v11.11328h11.11328v-11.11328zm39.17969 0v11.11328h11.11328v-11.11328zm39.76953 0v11.11328h11.10937v-11.11328zm39.17968 0v11.11328h11.10938v-11.11328zm26.31641 0v11.11328h11.10938v-11.11328zm39.17969 0v11.11328h11.11328v-11.11328zm-288.30469 12.86719v11.10937h11.113281v-11.10937zm39.183594 0v11.10937h11.109375v-11.10937zm26.316405 0v11.10937h11.10938v-11.10937zm39.17969 0v11.10937h11.11328v-11.10937zm39.17969 0v11.10937h11.11328v-11.10937zm39.76953 0v11.10937h11.10937v-11.10937zm39.17968 0v11.10937h11.10938v-11.10937zm26.31641 0v11.10937h11.10938v-11.10937zm39.17969 0v11.10937h11.11328v-11.10937zm-288.30469 12.86328v11.11328h11.113281v-11.11328zm12.867188 0v11.11328h11.109375v-11.11328zm13.449219 0v11.11328h11.113281v-11.11328zm12.867187 0v11.11328h11.109375v-11.11328zm26.316405 0v11.11328h11.10938v-11.11328zm12.86328 0v11.11328h11.11328v-11.11328zm13.45313 0v11.11328h11.10937v-11.11328zm52.04297 0v11.11328h11.11328v-11.11328zm39.76953 0v11.11328h11.10937v-11.11328zm39.17968 0v11.11328h11.10938v-11.11328zm26.31641 0v11.11328h11.10938v-11.11328zm12.86328 0v11.11328h11.11328v-11.11328zm12.86719 0v11.11328h11.10937v-11.11328zm13.44922 0v11.11328h11.11328v-11.11328zm-288.30469 13.45312v10.52344h11.113281v-10.52344zm39.183594 0v10.52344h11.109375v-10.52344zm26.316405 0v10.52344h11.10938v-10.52344zm39.17969 0v10.52344h11.11328v-10.52344zm39.17969 0v10.52344h11.11328v-10.52344zm52.63281 0v10.52344h11.11328v-10.52344zm12.86719 0v10.52344h11.10937v-10.52344zm39.76562 0v10.52344h11.10938v-10.52344zm39.17969 0v10.52344h11.11328v-10.52344zm-288.15234 63.28907v11.11328h11.113281v-11.11328zm12.867187 0v11.11328h11.109376v-11.11328zm39.179688 0v11.11328h11.11328v-11.11328zm39.76562 0v11.11328h11.11329v-11.11328zm39.1836 0v11.11328h11.10937v-11.11328zm12.86328 0v11.11328h11.11328v-11.11328zm65.5 0v11.11328h11.10937v-11.11328zm13.44922 0v11.11328h11.10937v-11.11328zm25.73047 0v11.11328h11.11328v-11.11328zm13.44922 0v11.11328h11.11328v-11.11328zm12.86718 0v11.11328h11.10938v-11.11328zm13.44922 0v11.11328h11.11328v-11.11328zm-261.98828 12.86718v11.10938h11.113281v-11.10938zm25.730469 0v11.10938h11.11328v-11.10938zm39.76562 0v11.10938h11.11329v-11.10938zm25.73438 0v11.10938h11.10937v-11.10938zm39.76562 0v11.10938h11.10938v-11.10938zm25.73047 0v11.10938h11.10938v-11.10938zm39.76563 0v11.10938h11.10937v-11.10938zm65.49609 0v11.10938h11.11328v-11.10938zm-261.98828 12.86719v11.10938h11.113281v-11.10938zm39.183599 0v11.10938h11.10937v-11.10938zm12.86328 0v11.10938h11.11328v-11.10938zm52.63281 0v11.10938h11.10937v-11.10938zm12.86328 0v11.10938h11.11328v-11.10938zm78.94922 0v11.10938h11.10937v-11.10938zm52.04687 0v11.10938h11.10938v-11.10938zm-274.85546 13.44922v10.52734h11.113281v-10.52734zm12.867187 0v10.52734h11.109376v-10.52734zm13.449219 0v10.52734h11.113281v-10.52734zm52.046879 0v10.52734h11.11328v-10.52734zm39.18359 0v10.52734h11.10937v-10.52734zm39.76562 0v10.52734h11.10938v-10.52734zm25.73047 0v10.52734h11.10938v-10.52734zm39.76563 0v10.52734h11.10937v-10.52734zm39.17969 0v10.52734h11.11328v-10.52734zm-235.67188 12.86328v10.52734h11.113281v-10.52734zm39.183599 0v10.52734h11.10937v-10.52734zm65.49609 0v10.52734h11.10937v-10.52734zm12.86328 0v10.52734h11.11328v-10.52734zm78.94922 0v10.52734h11.10937v-10.52734zm39.17969 0v10.52734h11.11328v-10.52734z" style="fill-opacity:.99215698;fill:#4aaee6"/>
 <path d="m238.63672 160.91406v-5.26562h11.11328v10.52734h-11.11328z" style="fill:#5cb5e6"/>
 <path transform="scale(.75)" d="m33.550781 52.257812c-8.413288 1e-6 -15.1875 6.772259-15.1875 15.185547v12c0-8.413288 6.774212-15.185546 15.1875-15.185547h444.89844c8.41329 0 15.1875 6.772259 15.1875 15.185547v-12c0-8.413288-6.77421-15.185547-15.1875-15.185547h-444.89844z" style="opacity:.1"/>
 <path transform="scale(.75)" d="m18.363281 434.55664v10c0 8.41329 6.774212 15.18555 15.1875 15.18555h444.89844c8.41329 0 15.1875-6.77226 15.1875-15.18555v-10c0 8.41329-6.77421 15.18555-15.1875 15.18555h-444.89844c-8.413288 0-15.1875-6.77226-15.1875-15.18555z" style="fill:#241a1a;opacity:.3"/>
</svg>
