<svg width="512" height="512" version="1.1" viewBox="0 0 384 384" xmlns="http://www.w3.org/2000/svg" xmlns:xlink="http://www.w3.org/1999/xlink"><path d="m39.785 47.797c-13.316 0-24.035 10.719-24.035 24.031v240.34c0 13.312 10.719 24.031 24.035 24.031h304.43c13.316 0 24.035-10.719 24.035-24.031v-240.34c0-13.312-10.719-24.031-24.035-24.031z" fill="#fff"/><path d="m39.785 47.797c-13.316 0-24.035 10.719-24.035 24.031v8.0117c0-13.312 10.719-24.031 24.035-24.031h304.43c13.316 0 24.035 10.719 24.035 24.031v-8.0117c0-13.312-10.719-24.031-24.035-24.031z" fill="#fff" fill-opacity=".2"/><path d="m47.797 79.836h288.41v224.32h-288.41z" fill="#353a4a"/><path d="m117.79 79.84 9 224.32h30.434l91.637-91.637 16.02-16.023-16.02-16.023-100.64-100.64z" opacity=".3"/><path d="m47.797 79.84v224.32h94.523l112.16-112.16-112.16-112.16z" fill="#ffc72e"/><path d="m52.297 79.84 9 224.32h30.434l91.637-91.637 16.02-16.023-16.02-16.023-100.64-100.64z" opacity=".3"/><path d="m47.797 79.84v224.32h30.434l96.137-96.137 16.02-16.023-16.02-16.023-96.137-96.137z" fill="#21b8c2"/><path d="m336.2 193.61-110.55 110.55h110.55z" fill="#fd4747" fill-opacity=".99608"/><path transform="scale(.75)" d="m21 406.23v10c0 17.75 14.292 32.043 32.047 32.043h405.91c17.755 0 32.047-14.293 32.047-32.043v-10c0 17.75-14.292 32.043-32.047 32.043h-405.91c-17.755 0-32.047-14.293-32.047-32.043z" opacity=".3" stroke-width="1.3333"/><path transform="scale(.75)" d="m53.049 63.725c-17.755 0-32.047 14.291-32.047 32.041v10c0-17.75 14.292-32.041 32.047-32.041h405.91c17.755 0 32.047 14.291 32.047 32.041v-10c0-17.75-14.292-32.041-32.047-32.041z" opacity=".1" stroke-width="1.3333"/></svg>
