<svg width="512" height="512" version="1.1" viewBox="0 0 384 384" xmlns="http://www.w3.org/2000/svg" xmlns:xlink="http://www.w3.org/1999/xlink"><defs><filter id="alpha" x="0%" y="0%" width="100%" height="100%"><feColorMatrix in="SourceGraphic" values="0 0 0 0 1 0 0 0 0 1 0 0 0 0 1 0 0 0 1 0"/></filter><clipPath><rect width="384" height="384"/></clipPath><clipPath><rect width="384" height="384"/></clipPath><mask id="b"><g filter="url(#alpha)"><rect width="384" height="384"/></g></mask><clipPath id="c"><rect width="384" height="384"/></clipPath><g id="a" clip-path="url(#c)"><path d="m88.5 60c-2.4844 0-4.4961 1.7891-4.5 3.9961v40.008c0.003906 2.207 2.0156 3.9961 4.5 3.9961h27c2.4844 0 4.4961-1.7891 4.5-3.9961v-40.008c-0.003906-2.207-2.0156-3.9961-4.5-3.9961zm1.5 6h24v36h-24z" fill="#fff"/><path d="m146.95 60c-1.6562 0.035156-2.9805 1.8477-2.9531 4.0508v39.902c-0.015625 1.4375 0.55469 2.7773 1.4883 3.5039 0.93359 0.72266 2.0898 0.72266 3.0234 0 0.93359-0.72656 1.5039-2.0664 1.4883-3.5039v-39.902c0.011719-1.0781-0.30469-2.1172-0.87891-2.8828-0.57422-0.76172-1.3555-1.1836-2.168-1.168z" fill="#fff" fill-rule="evenodd"/><path d="m182.95 60c-1.6562 0.035156-2.9805 1.8477-2.9531 4.0508v39.902c-0.015625 1.4375 0.55469 2.7773 1.4883 3.5039 0.93359 0.72266 2.0898 0.72266 3.0234 0 0.93359-0.72656 1.5039-2.0664 1.4883-3.5039v-39.902c0.011719-1.0781-0.30469-2.1172-0.87891-2.8828-0.57422-0.76172-1.3555-1.1836-2.168-1.168z" fill="#fff" fill-rule="evenodd"/><path d="m208.5 60c-2.4844 0-4.4961 1.7891-4.5 3.9961v40.008c0.003906 2.207 2.0156 3.9961 4.5 3.9961h27c2.4844 0 4.4961-1.7891 4.5-3.9961v-40.008c-0.003906-2.207-2.0156-3.9961-4.5-3.9961zm1.5 6h24v36h-24z" fill="#fff"/><path d="m268.5 60c-2.4844 0-4.4961 1.7891-4.5 3.9961v40.008c0.003906 2.207 2.0156 3.9961 4.5 3.9961h27c2.4844 0 4.4961-1.7891 4.5-3.9961v-40.008c-0.003906-2.207-2.0156-3.9961-4.5-3.9961zm1.5 6h24v36h-24z" fill="#fff"/><path d="m295.5 204c2.4844 0 4.4961 1.7891 4.5 3.9961v40.008c-0.003906 2.207-2.0156 3.9961-4.5 3.9961h-27c-2.4844 0-4.4961-1.7891-4.5-3.9961v-40.008c0.003906-2.207 2.0156-3.9961 4.5-3.9961zm-1.5 6h-24v36h24z" fill="#fff"/><path d="m237.05 204c1.6562 0.035156 2.9805 1.8477 2.9531 4.0508v39.902c0.015625 1.4375-0.55469 2.7773-1.4883 3.5039-0.93359 0.72266-2.0898 0.72266-3.0234 0-0.93359-0.72656-1.5039-2.0664-1.4883-3.5039v-39.902c-0.011719-1.0781 0.30469-2.1172 0.87891-2.8828 0.57422-0.76172 1.3555-1.1836 2.168-1.168z" fill="#fff" fill-rule="evenodd"/><path d="m201.05 204c1.6562 0.035156 2.9805 1.8477 2.9531 4.0508v39.902c0.015625 1.4375-0.55469 2.7773-1.4883 3.5039-0.93359 0.72266-2.0898 0.72266-3.0234 0-0.93359-0.72656-1.5039-2.0664-1.4883-3.5039v-39.902c-0.011719-1.0781 0.30469-2.1172 0.87891-2.8828 0.57422-0.76172 1.3555-1.1836 2.168-1.168z" fill="#fff" fill-rule="evenodd"/><path d="m175.5 204c2.4844 0 4.4961 1.7891 4.5 3.9961v40.008c-0.003906 2.207-2.0156 3.9961-4.5 3.9961h-27c-2.4844 0-4.4961-1.7891-4.5-3.9961v-40.008c0.003906-2.207 2.0156-3.9961 4.5-3.9961zm-1.5 6h-24v36h24z" fill="#fff"/><path d="m115.5 204c2.4844 0 4.4961 1.7891 4.5 3.9961v40.008c-0.003906 2.207-2.0156 3.9961-4.5 3.9961h-27c-2.4844 0-4.4961-1.7891-4.5-3.9961v-40.008c0.003906-2.207 2.0156-3.9961 4.5-3.9961zm-1.5 6h-24v36h24z" fill="#fff"/><path d="m163.5 132c2.4844 0 4.4961 1.7891 4.5 3.9961v40.008c-0.003906 2.207-2.0156 3.9961-4.5 3.9961h-27c-2.4844 0-4.4961-1.7891-4.5-3.9961v-40.008c0.003906-2.207 2.0156-3.9961 4.5-3.9961zm-1.5 6h-24v36h24z" fill="#fff"/><path d="m99.047 132c1.6562 0.035156 2.9805 1.8477 2.9531 4.0508v39.902c0.015625 1.4375-0.55469 2.7773-1.4883 3.5039-0.93359 0.72266-2.0898 0.72266-3.0234 0-0.93359-0.72656-1.5039-2.0664-1.4883-3.5039v-39.902c-0.011719-1.0781 0.30469-2.1172 0.87891-2.8828 0.57422-0.76172 1.3555-1.1836 2.168-1.168z" fill="#fff" fill-rule="evenodd"/><path d="m206.95 132c-1.6562 0.035156-2.9805 1.8477-2.9531 4.0508v39.902c-0.015625 1.4375 0.55469 2.7773 1.4883 3.5039 0.93359 0.72266 2.0898 0.72266 3.0234 0 0.93359-0.72656 1.5039-2.0664 1.4883-3.5039v-39.902c0.011719-1.0781-0.30469-2.1172-0.87891-2.8828-0.57422-0.76172-1.3555-1.1836-2.168-1.168z" fill="#fff" fill-rule="evenodd"/><path d="m268.5 132c-2.4844 0-4.4961 1.7891-4.5 3.9961v40.008c0.003906 2.207 2.0156 3.9961 4.5 3.9961h27c2.4844 0 4.4961-1.7891 4.5-3.9961v-40.008c-0.003906-2.207-2.0156-3.9961-4.5-3.9961zm1.5 6h24v36h-24z" fill="#fff"/><path d="m230.95 132c-1.6562 0.035156-2.9805 1.8477-2.9531 4.0508v39.902c-0.015625 1.4375 0.55469 2.7773 1.4883 3.5039 0.93359 0.72266 2.0898 0.72266 3.0234 0 0.93359-0.72656 1.5039-2.0664 1.4883-3.5039v-39.902c0.011719-1.0781-0.30469-2.1172-0.87891-2.8828-0.57422-0.76172-1.3555-1.1836-2.168-1.168z" fill="#fff" fill-rule="evenodd"/><path d="m220.5 276c-2.4844 0-4.4961 1.7891-4.5 3.9961v40.008c0.003906 2.207 2.0156 3.9961 4.5 3.9961h27c2.4844 0 4.4961-1.7891 4.5-3.9961v-40.008c-0.003906-2.207-2.0156-3.9961-4.5-3.9961zm1.5 6h24v36h-24z" fill="#fff"/><path d="m284.95 276c-1.6562 0.035156-2.9805 1.8477-2.9531 4.0508v39.902c-0.015625 1.4375 0.55469 2.7773 1.4883 3.5039 0.93359 0.72266 2.0898 0.72266 3.0234 0 0.93359-0.72656 1.5039-2.0664 1.4883-3.5039v-39.902c0.011719-1.0781-0.30469-2.1172-0.87891-2.8828-0.57422-0.76172-1.3555-1.1836-2.168-1.168z" fill="#fff" fill-rule="evenodd"/><path d="m177.05 276c1.6562 0.035156 2.9805 1.8477 2.9531 4.0508v39.902c0.015625 1.4375-0.55469 2.7773-1.4883 3.5039-0.93359 0.72266-2.0898 0.72266-3.0234 0-0.93359-0.72656-1.5039-2.0664-1.4883-3.5039v-39.902c-0.011719-1.0781 0.30469-2.1172 0.87891-2.8828 0.57422-0.76172 1.3555-1.1836 2.168-1.168z" fill="#fff" fill-rule="evenodd"/><path d="m115.5 276c2.4844 0 4.4961 1.7891 4.5 3.9961v40.008c-0.003906 2.207-2.0156 3.9961-4.5 3.9961h-27c-2.4844 0-4.4961-1.7891-4.5-3.9961v-40.008c0.003906-2.207 2.0156-3.9961 4.5-3.9961zm-1.5 6h-24v36h24z" fill="#fff"/><path d="m153.05 276c1.6562 0.035156 2.9805 1.8477 2.9531 4.0508v39.902c0.015625 1.4375-0.55469 2.7773-1.4883 3.5039-0.93359 0.72266-2.0898 0.72266-3.0234 0-0.93359-0.72656-1.5039-2.0664-1.4883-3.5039v-39.902c-0.011719-1.0781 0.30469-2.1172 0.87891-2.8828 0.57422-0.76172 1.3555-1.1836 2.168-1.168z" fill="#fff" fill-rule="evenodd"/></g><clipPath><rect width="384" height="384"/></clipPath></defs><path d="m324 349.5v-300c0-9.9726-8.0273-18-18-18h-228c-9.9727 0-18 8.0274-18 18v300c0 9.9727 8.0273 18 18 18h228c9.9727 0 18-8.0273 18-18z" opacity=".3"/><path d="m324 342v-300c0-9.9727-8.0273-18-18-18h-228c-9.9727 0-18 8.0273-18 18v300c0 9.9727 8.0273 18 18 18h228c9.9727 0 18-8.0273 18-18z"/><path d="m384 283.5c0 53.02-42.98 96-96 96-53.02 0-96-42.98-96-96 0-53.02 42.98-96 96-96 53.02 0 96 42.98 96 96z" fill-rule="evenodd" opacity=".3"/><use width="100%" height="100%" fill="#ffffff" mask="url(#b)" xlink:href="#a"/><path d="m384 276c0 53.02-42.98 96-96 96s-96-42.98-96-96 42.98-96 96-96 96 42.98 96 96z" fill="#fd4747" fill-rule="evenodd"/><path d="m240 302.62v21.383h21.383l54.004-54.004-21.383-21.383zm94.305-51.469c2.2617-2.2617 2.2617-5.8281 0-8.0898l-13.367-13.363c-2.2617-2.2617-5.8242-2.2617-8.0859 0l-11.172 11.242 21.383 21.387z" fill="#fff"/><path transform="scale(.75)" d="m104 32c-13.297 0-24 10.703-24 24v10c0-13.297 10.703-24 24-24h304c13.297 0 24 10.703 24 24v-10c0-13.297-10.703-24-24-24h-304z" fill="#fff" opacity=".3" stroke-width="1.3333"/></svg>
