<svg width="512" height="512" version="1.1" viewBox="0 0 384 384" xmlns="http://www.w3.org/2000/svg"><defs><clipPath><rect width="384" height="384"/></clipPath><clipPath><rect width="384" height="384"/></clipPath><clipPath><rect width="384" height="384"/></clipPath><clipPath><rect width="384" height="384"/></clipPath><clipPath><rect width="384" height="384"/></clipPath><clipPath><rect width="384" height="384"/></clipPath></defs><g fill-rule="evenodd"><path d="m285.03 30.75c13.934 0 25.227 12.84 25.227 28.676v280.15c0 15.836-11.293 28.676-25.227 28.676-13.938 0-25.23-12.84-25.23-28.676v-280.15c0-15.836 11.293-28.676 25.23-28.676z" opacity=".3"/><path d="m191.43 30.75c13.934 0 25.23 12.84 25.23 28.676v280.15c0 15.836-11.297 28.676-25.23 28.676-13.934 0-25.23-12.84-25.23-28.676v-280.15c1e-5 -15.836 11.297-28.676 25.23-28.676z" opacity=".3"/><path d="m97.664 30.75c13.934 0 25.23 12.84 25.23 28.676v280.15c0 15.836-11.297 28.676-25.23 28.676-13.934 0-25.23-12.84-25.23-28.676v-280.15c0-15.836 11.297-28.676 25.23-28.676z" opacity=".3"/></g><path d="m285.03 23.25c13.934 0 25.227 12.84 25.227 28.676v280.15c0 15.836-11.293 28.676-25.227 28.676-13.938 0-25.23-12.84-25.23-28.676v-280.15c0-15.836 11.293-28.676 25.23-28.676z" fill="#0f2b5c" fill-rule="evenodd"/><rect x="267.61" y="32.08" width="34.832" height="319.84" rx="17.416" ry="17.58" fill="#fff" opacity=".3" style="paint-order:markers stroke fill"/><path d="m331.99 127.6c0-24.836-20.133-44.969-44.965-44.969-24.832 0-44.965 20.133-44.965 44.969 0 24.832 20.133 44.965 44.965 44.965 24.832 0 44.965-20.133 44.965-44.965z" opacity=".3"/><path d="m331.99 120.1c0-24.836-20.133-44.969-44.965-44.969s-44.965 20.133-44.965 44.969c0 24.832 20.133 44.965 44.965 44.965s44.965-20.133 44.965-44.965z" fill="#fff"/><path d="m191.43 23.25c13.934 0 25.23 12.84 25.23 28.676v280.15c0 15.836-11.297 28.676-25.23 28.676-13.934 0-25.23-12.84-25.23-28.676v-280.15c0-15.836 11.297-28.676 25.23-28.676z" fill="#0f2b5c" fill-rule="evenodd"/><rect x="174.01" y="32.08" width="34.832" height="319.84" rx="17.416" ry="17.58" fill="#fff" opacity=".3" style="paint-order:markers stroke fill"/><path d="m235.7 225.87c0-24.836-20.133-44.965-44.965-44.965-24.836 0-44.965 20.129-44.965 44.965 0 24.832 20.129 44.965 44.965 44.965 24.832 0 44.965-20.133 44.965-44.965z" fill="#0a0a0a" opacity=".3"/><path d="m235.7 218.37c0-24.836-20.133-44.965-44.965-44.965-24.836 0-44.965 20.129-44.965 44.965 0 24.832 20.129 44.965 44.965 44.965 24.832 0 44.965-20.133 44.965-44.965z" fill="#fff"/><path d="m97.664 23.25c13.934 0 25.23 12.84 25.23 28.676v280.15c0 15.836-11.297 28.676-25.23 28.676-13.934 0-25.23-12.84-25.23-28.676v-280.15c0-15.836 11.297-28.676 25.23-28.676z" fill="#0f2b5c" fill-rule="evenodd"/><rect x="80.248" y="32.08" width="34.832" height="319.84" rx="17.416" ry="17.58" fill="#fff" opacity=".3" style="paint-order:markers stroke fill"/><path d="m141.94 99.328c0-24.836-20.133-44.969-44.965-44.969-24.832 0-44.965 20.133-44.965 44.969 0 24.832 20.133 44.965 44.965 44.965 24.832 0 44.965-20.133 44.965-44.965z" fill="#030000" opacity=".3"/><path d="m141.94 91.828c0-24.836-20.133-44.969-44.965-44.969-24.832 0-44.965 20.133-44.965 44.969 0 24.832 20.133 44.965 44.965 44.965 24.832 0 44.965-20.133 44.965-44.965z" fill="#fff"/><g fill="#199499"><path d="m131.34 91.941c0 19.02-15.414 34.438-34.434 34.438-19.02 0-34.438-15.418-34.438-34.438 0-19.016 15.418-34.434 34.438-34.434 19.02 0 34.434 15.418 34.434 34.434z"/><path d="m225.14 218.57c0 19.02-15.418 34.438-34.438 34.438s-34.434-15.418-34.434-34.438c0-19.02 15.414-34.438 34.434-34.438s34.438 15.418 34.438 34.438z"/><path d="m321.16 120.42c0 19.016-15.418 34.434-34.438 34.434-19.02 0-34.438-15.418-34.438-34.434 0-19.02 15.418-34.438 34.438-34.438 19.02 0 34.438 15.418 34.438 34.438z"/></g><g stroke-width="1.3333"><path transform="scale(.75)" d="m129.2 76.678c-25.359 0-45.916 20.556-45.916 45.91 0 1.6907 0.097319 3.3586 0.27539 5.002 2.4922-23.002 21.971-40.912 45.641-40.912s43.143 17.91 45.635 40.912c0.17803-1.6433 0.27734-3.3113 0.27734-5.002 0-25.354-20.553-45.91-45.912-45.91z" opacity=".3"/><path transform="scale(.75)" d="m254.27 245.51c-25.359 0-45.912 20.557-45.912 45.916 0 1.6901 0.09943 3.3572 0.27734 5 2.4916-23.007 21.966-40.916 45.635-40.916 23.669 0 43.148 17.909 45.641 40.916 0.17795-1.6428 0.27539-3.3099 0.27539-5 0-25.359-20.557-45.916-45.916-45.916z" opacity=".3"/><path transform="scale(.75)" d="m382.3 114.65c-25.359 0-45.916 20.557-45.916 45.916 0 1.6903 0.09732 3.357 0.27539 5 2.4922-23.007 21.971-40.916 45.641-40.916 23.669 0 43.148 17.909 45.641 40.916 0.17807-1.643 0.27539-3.3097 0.27539-5 0-25.359-20.557-45.916-45.916-45.916z" opacity=".3"/></g></svg>
