<svg width="512" height="512" version="1.1" viewBox="0 0 384 384" xmlns="http://www.w3.org/2000/svg" xmlns:xlink="http://www.w3.org/1999/xlink"><defs><filter id="alpha" x="0%" y="0%" width="100%" height="100%"><feColorMatrix in="SourceGraphic" values="0 0 0 0 1 0 0 0 0 1 0 0 0 0 1 0 0 0 1 0"/></filter><linearGradient id="f" x1="166.47" x2="283.56" y1="270.99" y2="370.27" gradientTransform="matrix(.75386 0 0 .69542 -12.268 1.4682)" gradientUnits="userSpaceOnUse"><stop stop-color="#e5e5e5" offset="0"/><stop stop-color="#fff" offset="1"/></linearGradient><mask id="d"><g filter="url(#alpha)"><rect width="384" height="384" fill-opacity=".2"/></g></mask><clipPath id="i"><rect width="384" height="384"/></clipPath><g id="b" clip-path="url(#i)"><path d="m291.04 204.35-19.102 0.097656 0.53125 62.637-15.82-13.875-11.449 10.277 25.648 22.492h-26.516v13.438h75.324v-13.438h-26.352l25.484-22.871-11.586-10.156-15.637 14.035z"/></g></defs><path d="m124.02 44.484h112.96v12.508h-112.96z" fill="#b3b3b3"/><path d="m123.99 44.5-14.867 11.906v27.75h-93.805c-1.9961 0.61328-3.5703 2.1641-4.2148 4.1445v230.05c0.77734 2.3828 2.9023 4.1484 5.4844 4.3984h327.87c3.2656-0.31641 5.8047-3.0547 5.8047-6.4102v-226.03c0-2.9062-1.9023-5.3477-4.5352-6.1562h-93.402v-27.023l-15.34-12.633 0.0391 39.656h-113.12z" fill="url(#f)"/><path d="m11.102 243.62v74.727c0.78516 2.4024 2.9336 4.1719 5.543 4.3984h327.75c3.2969-0.28906 5.8633-3.0352 5.8633-6.4102v-72.715z" fill="#fff"/><path transform="scale(.75)" d="m467.01 411.79c0 4.5-3.4206 8.1615-7.8164 8.5469h-437c-3.4792-0.30208-6.3437-2.6621-7.3906-5.8652v10c1.0469 3.2031 3.9115 5.5632 7.3906 5.8652h437c4.3958-0.38542 7.8164-4.0469 7.8164-8.5469v-10z" opacity=".3" stroke-width="1.3333"/><use width="100%" height="100%" mask="url(#d)" xlink:href="#b"/><path d="m358.29 284.63c-16.273 44.66-65.652 67.688-110.32 51.449-44.672-16.234-67.742-65.598-51.543-110.28s65.539-67.793 110.24-51.633c44.699 16.164 67.848 65.484 51.727 110.2" fill-rule="evenodd" opacity=".3"/><path d="m358.39 277.27c-16.273 44.66-65.652 67.688-110.32 51.449-44.672-16.234-67.742-65.598-51.543-110.28s65.539-67.793 110.24-51.633c44.699 16.164 67.848 65.484 51.727 110.2" fill="#e32e2e" fill-rule="evenodd"/><path d="m307.63 194.7c-3.7422 0.0859-7.3516 2.0508-9.3633 5.543-3.0625 5.3008-1.2461 12.102 4.0586 15.145 5.3047 3.0859 12.094 1.2656 15.156-4.0352 3.0625-5.3125 1.2305-12.109-4.0742-15.145-1.3242-0.97656-2.7383-1.2891-4.168-1.4336v4e-3c-0.53907-0.0664-1.0742-0.0898-1.6094-0.0781zm-28.004 11.824v0.10547c-7.6719 0-14.918 1.8164-21.355 5.0039l7.707 13.809c4.1484-1.8203 8.7695-3.0195 13.648-3.0195 16.926 0 30.816 12.988 32.273 29.516l15.805-0.1875c-0.77734-12.219-6.125-23.215-14.328-31.273-4.2188 1.4766-9.0781 1.2148-13.289-1.1836-4.2188-2.457-6.8672-6.5742-7.5938-10.992-4.1016-1.332-8.4062-1.7773-12.867-1.7773zm-26.727 8.1094c-9.707 6.4844-16.93 16.375-19.926 27.992 3.5039 2.8984 5.7266 7.2305 5.7266 12.086 0 4.8633-2.2226 9.1992-5.7266 12.094 2.9961 11.617 10.219 21.504 19.926 27.992l8.0977-13.547c-8.332-5.8984-13.777-15.57-13.777-26.539 0-10.957 5.4453-20.629 13.777-26.531zm-29.777 28.969c-6.125 0-11.082 4.9805-11.082 11.109 0 6.1406 4.957 11.109 11.082 11.109s11.102-4.9688 11.102-11.109c0-6.1289-4.9766-11.109-11.102-11.109zm88.777 13.973v0.082c-1.457 16.52-15.348 29.492-32.273 29.492-4.8789 0-9.5-1.0625-13.648-3.0117l-7.707 13.805c6.4375 3.2109 13.684 5 21.355 5 4.4609 0 8.7656-0.50391 12.867-1.7266 0.72266-4.4688 3.375-8.5938 7.5938-10.992 4.207-2.6016 9.0859-2.8125 13.305-1.2148 8.1992-8.0742 13.535-19.043 14.312-31.25zm-3.7969 35.012c-0.53517-0.0234-1.0703-0.0117-1.6094 0.0391-1.4258 0.14062-2.8398 0.86719-4.168 1.4297-5.3047 3.043-7.1211 9.8359-4.0586 15.145 3.0664 5.3476 9.8516 7.125 15.156 4.0352 5.3047-3.043 7.1211-9.8359 4.0586-15.148-2.0117-3.4766-5.6328-5.3438-9.3789-5.5z" opacity=".3"/><path d="m307.63 187.2c-3.7422 0.0859-7.3516 2.0508-9.3633 5.543-3.0625 5.3008-1.2461 12.102 4.0586 15.145 5.3047 3.0859 12.094 1.2656 15.156-4.0352 3.0625-5.3125 1.2305-12.109-4.0742-15.145-1.3242-0.97656-2.7383-1.2891-4.168-1.4336v4e-3c-0.53907-0.0664-1.0742-0.0898-1.6094-0.0781zm-28.004 11.824v0.10547c-7.6719 0-14.918 1.8164-21.355 5.0039l7.707 13.809c4.1484-1.8203 8.7695-3.0195 13.648-3.0195 16.926 0 30.816 12.988 32.273 29.516l15.805-0.1875c-0.77734-12.219-6.125-23.215-14.328-31.273-4.2188 1.4766-9.0781 1.2148-13.289-1.1836-4.2188-2.457-6.8672-6.5742-7.5938-10.992-4.1016-1.332-8.4062-1.7773-12.867-1.7773zm-26.727 8.1094c-9.707 6.4844-16.93 16.375-19.926 27.992 3.5039 2.8984 5.7266 7.2305 5.7266 12.086 0 4.8633-2.2226 9.1992-5.7266 12.094 2.9961 11.617 10.219 21.504 19.926 27.992l8.0977-13.547c-8.332-5.8984-13.777-15.57-13.777-26.539 0-10.957 5.4453-20.629 13.777-26.531zm-29.777 28.969c-6.125 0-11.082 4.9805-11.082 11.109 0 6.1406 4.957 11.109 11.082 11.109s11.102-4.9688 11.102-11.109c0-6.1289-4.9766-11.109-11.102-11.109zm88.777 13.973v0.082c-1.457 16.52-15.348 29.492-32.273 29.492-4.8789 0-9.5-1.0625-13.648-3.0117l-7.707 13.805c6.4375 3.2109 13.684 5 21.355 5 4.4609 0 8.7656-0.50391 12.867-1.7266 0.72266-4.4688 3.375-8.5938 7.5938-10.992 4.207-2.6016 9.0859-2.8125 13.305-1.2148 8.1992-8.0742 13.535-19.043 14.312-31.25zm-3.7969 35.012c-0.53516-0.0234-1.0703-0.0117-1.6094 0.0391-1.4258 0.14062-2.8398 0.86719-4.168 1.4297-5.3047 3.043-7.1211 9.8359-4.0586 15.145 3.0664 5.3476 9.8516 7.125 15.156 4.0352 5.3047-3.043 7.1211-9.8359 4.0586-15.148-2.0117-3.4766-5.6328-5.3438-9.3789-5.5z" fill="#fff"/><path d="m350.26 97.812c0-3.375-2.5654-6.1211-5.8623-6.4102h-327.75c-2.6094 0.22656-4.7578 1.9966-5.543 4.3989v-7.5c0.78516-2.4023 2.9336-4.1724 5.543-4.3989h327.75c3.2969 0.28907 5.8623 3.0352 5.8623 6.4102z" fill="#fff" opacity=".3"/></svg>
