<svg width="512" height="512" version="1.1" viewBox="0 0 384 384" xmlns="http://www.w3.org/2000/svg" xmlns:xlink="http://www.w3.org/1999/xlink"><defs><filter id="alpha" x="0%" y="0%" width="100%" height="100%"><feColorMatrix in="SourceGraphic" values="0 0 0 0 1 0 0 0 0 1 0 0 0 0 1 0 0 0 1 0"/></filter><mask id="d"><g filter="url(#alpha)"><rect width="384" height="384" fill-opacity=".30196"/></g></mask><clipPath id="f"><rect width="384" height="384"/></clipPath><g id="b" clip-path="url(#f)"><path d="m23.297 188.25c-0.027344 1.2461-0.046875 2.4961-0.046875 3.75 0 93.203 75.547 168.75 168.75 168.75s168.75-75.547 168.75-168.75c0-1.2539-0.019531-2.5039-0.046875-3.75-1.9961 91.469-76.754 165-168.7 165s-166.71-73.531-168.7-165z"/></g><mask id="c"><g filter="url(#alpha)"><rect width="384" height="384" fill-opacity=".30196"/></g></mask><clipPath id="e"><rect width="384" height="384"/></clipPath><g id="a" clip-path="url(#e)"><path d="m192 23.25c-93.203 0-168.75 75.547-168.75 168.75 0 1.2539 0.019531 2.5039 0.046875 3.75 1.9961-91.469 76.754-165 168.7-165s166.71 73.531 168.7 165c0.027344-1.2461 0.046875-2.4961 0.046875-3.75 0-93.203-75.547-168.75-168.75-168.75z" fill="#fff"/></g><clipPath><rect width="384" height="384"/></clipPath></defs><use width="100%" height="100%" mask="url(#d)" xlink:href="#b"/><use width="100%" height="100%" mask="url(#c)" xlink:href="#a"/><path d="m192 23.25c93.203 0 168.75 75.547 168.75 168.75 0 93.203-75.547 168.75-168.75 168.75-93.203 0-168.75-75.547-168.75-168.75 0-93.203 75.547-168.75 168.75-168.75z" fill="#357af0"/><path d="m192.02 90.031c-60.531 0-109.48 48.953-109.48 109.48 0 60.5 48.953 109.45 109.48 109.45 60.5 0 109.45-48.953 109.45-109.45 0-60.531-48.953-109.48-109.45-109.48" opacity=".3"/><path d="m192.02 82.531c-60.531 0-109.48 48.953-109.48 109.48 0 60.5 48.953 109.45 109.48 109.45 60.5 0 109.45-48.953 109.45-109.45 0-60.531-48.953-109.48-109.45-109.48" fill="#fff"/><path d="m162.82 163.02v21.898h58.391v-21.898l28.371 18.246 30.02 18.277-30.02 18.246-28.371 18.25v-21.898h-58.391v21.898l-28.371-18.25-30.051-18.246 30.051-18.277" opacity=".3"/><path d="m162.82 155.52v21.898h58.391v-21.898l28.371 18.246 30.02 18.277-30.02 18.246-28.371 18.25v-21.898h-58.391v21.898l-28.371-18.25-30.051-18.246 30.051-18.277" fill="#357af0"/><path transform="scale(.75)" d="m31.064 251c-0.036256 1.6627-0.064453 3.3286-0.064453 5 0 124.27 100.73 225 225 225 124.27 0 225-100.73 225-225 0-1.6714-0.0282-3.3373-0.06445-5-2.6594 121.96-102.34 220-224.94 220-122.6 0-222.28-98.039-224.94-220z" opacity=".3" stroke-width="1.3333"/><path transform="scale(.75)" d="m256 31c-124.27 0-225 100.73-225 225 0 1.6714 0.028197 3.3373 0.064453 5 2.6594-121.96 102.34-220 224.94-220 122.6 0 222.28 98.039 224.94 220 0.03625-1.6627 0.06445-3.3286 0.06445-5 0-124.27-100.73-225-225-225z" fill="#fff" opacity=".3" stroke-width="1.3333"/></svg>
