<svg width="512" height="512" version="1.1" viewBox="0 0 384 384" xmlns="http://www.w3.org/2000/svg"><defs><clipPath><rect width="384" height="384"/></clipPath></defs><g transform="translate(1.901e-7 .099002)"><g transform="translate(16.314 -.099008)"><path transform="matrix(7.9471 0 0 7.9471 -15.045 1.2686)" d="m24 4.0002c-11.046 0-20 8.9542-20 20s8.9547 20 20 20c11.045 0 20-8.9542 20-20s-8.9547-20-20-20zm0 14.545c3.0126 0 5.4545 2.4419 5.4545 5.4545s-2.4419 5.4545-5.4545 5.4545c-3.0131 0-5.4545-2.4419-5.4545-5.4545s2.4414-5.4545 5.4545-5.4545z" fill="#e5e5e5" stroke="#ccc" stroke-width=".25"/><path transform="matrix(7.9471 0 0 7.9471 -15.045 1.2686)" d="m24 15.461c-4.7162 0-8.5393 3.8226-8.5393 8.5388s3.8231 8.5388 8.5393 8.5388c4.7157 0 8.5388-3.8226 8.5388-8.5388s-3.8231-8.5388-8.5388-8.5388zm0 4.0074c2.5024 0 4.5314 2.029 4.5314 4.5314s-2.029 4.5314-4.5314 4.5314-4.5319-2.029-4.5319-4.5314 2.0295-4.5314 4.5319-4.5314z" fill="#fff" stroke="#e5e5e5" stroke-width=".44277"/></g></g><path d="m384 283.5c0 53.02-42.98 96-96 96s-96-42.98-96-96 42.98-96 96-96 96 42.98 96 96z" fill="#0f0f0f" fill-opacity=".98431" opacity=".3"/><path d="m384 276c0 53.02-42.98 96-96 96s-96-42.98-96-96 42.98-96 96-96 96 42.98 96 96z" fill="#49ade5" fill-opacity=".98431"/><path d="m287.8 324-35.793-48h24v-48h24v48h24z" fill="#fff"/></svg>
