<svg width="512" height="512" version="1.1" viewBox="0 0 384 384" xmlns="http://www.w3.org/2000/svg"><path d="m74.6 23.25c-7.5586 0-14.678 7.1191-14.678 14.678v308.14c0 7.1192 7.5586 14.678 14.678 14.678h234.8c7.1191 0 14.678-7.5586 14.678-14.678v-227.42l-95.405-95.405z" fill="#fff"/><path d="m384 283.5c0 53.02-42.98 96-96 96s-96-42.98-96-96 42.98-96 96-96 96 42.98 96 96z" fill-rule="evenodd" opacity=".3"/><path transform="scale(.75)" d="m368.44 94.629-57.336 57.336 121 124.73 3.1e-4 -118.41z" fill="#ccc"/><path d="m228.67 23.25 95.405 95.405h-80.728c-7.1191 0-14.678-7.5586-14.678-14.678z" fill="#f4f4f4"/><path d="m59.923 346.07v7.5c0 7.1192 7.5586 14.678 14.678 14.678h234.8c7.1191 0 14.678-7.5586 14.678-14.678v-7.5c0 7.1192-7.5586 14.678-14.678 14.678h-234.8c-7.1191 0-14.678-7.5586-14.678-14.678z" opacity=".3"/><path d="m384 276c0 53.02-42.98 96-96 96s-96-42.98-96-96 42.98-96 96-96 96 42.98 96 96z" fill="#d41717" fill-rule="evenodd"/><path d="m240 302.62v21.383h21.383l54.004-54.004-21.383-21.383zm94.305-51.469c2.2617-2.2617 2.2617-5.8281 0-8.0898l-13.367-13.363c-2.2617-2.2617-5.8242-2.2617-8.0859 0l-11.172 11.242 21.383 21.387z" fill="#fff"/></svg>
