<svg width="512" height="512" version="1.1" viewBox="0 0 384 384" xmlns="http://www.w3.org/2000/svg"><defs><clipPath><rect width="384" height="384"/></clipPath><clipPath><rect width="384" height="384"/></clipPath></defs><path d="m145.39 262.06c-11.641-2.457-22.617-9.0547-28.84-17.328-4.3047-5.7266-6.2774-9.7031-8.625-17.375-1.7656-5.7812-1.9141-7.2461-1.9258-18.727-0.0117-14.594 1.0352-19.613 6.3476-30.336 9.2852-18.754 28.996-30.715 59.754-36.25 7.5938-1.3672 29.332-3.8711 33.695-3.8828 5.7227-0.0156 5.8281-0.20705 5.8281-10.902 0-14.535-2.6641-22.078-9.4102-26.676-4.9844-3.3906-9.3711-4.7031-15.789-4.7187-9.2422-0.0234-16.77 3.1133-22.703 9.4531-3.5976 3.8516-5.1602 6.5586-6.6211 11.473-0.55078 1.8555-1.6641 4.2148-2.4766 5.25-1.2617 1.6016-2.0234 1.875-5.2188 1.875-2.0547 0-7.1289-0.47265-11.27-1.0547-4.1406-0.58203-10.641-1.4062-14.441-1.8281-8.2461-0.92187-9.8594-1.4648-11.418-3.8398-1.1055-1.6875-1.1016-2.1445 0.0742-6.9727 3.0586-12.57 7.5742-20.609 16.695-29.727 10.43-10.426 21.539-15.953 39.316-19.551 7.457-1.5117 10.883-1.8047 20.98-1.8047 25.84 0 45.297 6.5703 57.922 19.562 7.3203 7.5312 11.051 15.734 12.844 28.254 0.54689 3.8164 1 22.523 1.2774 52.555l0.42578 46.629 2.3086 5.3359c1.2656 2.9375 4.1094 7.7383 6.3164 10.672 5.3203 7.0664 6.4258 9.4414 5.5508 11.93-0.64844 1.8476-13.469 13.613-25.078 23.016-4.7188 3.8242-5.5156 4.2148-8.5859 4.2148-3.2539 0-3.5938-0.20703-8.8633-5.375-3.0156-2.957-7.5859-8.2422-10.156-11.746-2.5742-3.5039-5.0664-6.3711-5.539-6.3711-0.47656 0-2.293 1.4805-4.0352 3.293-7.4062 7.6758-17.121 14.379-25.781 17.785-10.555 4.1523-30.758 5.6562-42.559 3.168zm39.453-33.863c9.3594-2.4375 15.836-8.3047 21.059-19.074 4.7695-9.8359 5.8164-15.773 5.5625-31.504l-0.19922-12.059-8.5391 0.14844c-12.203 0.21484-19.051 1.5977-26.992 5.4609-13.754 6.6914-19.656 17.316-18.711 33.68 0.4961 8.5625 2.7695 13.848 8.0234 18.648 5.75 5.2578 11.977 6.7344 19.797 4.6992z" opacity=".3"/><path d="m168.2 339.9c-29.641-3.5586-57.738-16.629-90.051-41.879-10.129-7.9141-21.277-17.543-22.219-19.188-1.4102-2.457-1.0781-5.3281 0.83203-7.2383 2.9648-2.9688 5.2734-2.3906 17.473 4.3711 37.965 21.043 62.137 30.766 88.625 35.641 10.082 1.8555 41.16 1.8711 53.035 0.0273 24.598-3.8203 42.574-8.7578 67.129-18.43 14.086-5.5508 15.785-5.7344 19.309-2.0547 2.3008 2.4023 2.6523 6.1758 0.83203 8.9531-1.5469 2.3594-10.395 8.5156-20.387 14.188-35.324 20.047-79.215 29.855-114.58 25.609zm141.66-24.492c-0.78124-0.78125-1.4219-2.207-1.4219-3.1641s1.7305-6.9648 3.8476-13.348c4.4727-13.496 5.3594-18.316 3.6719-20.004-1.8164-1.8164-7.2539-2.2266-16.418-1.2383-15.918 1.7148-18.062 1.75-19.609 0.35157-2.1406-1.9375-1.8633-6.0234 0.56641-8.3008 2.5977-2.4336 8.9414-5.9258 13.809-7.6016 9.7539-3.3555 29.836-3.8438 36.516-0.88672 4.8906 2.1641 5.7539 4.082 5.6289 12.523-0.20312 13.797-6.1484 28.844-15.062 38.117-4.2461 4.418-5.0781 4.9766-7.4414 4.9766-1.7109 0-3.168-0.50781-4.0859-1.4258z" opacity=".3"/><path d="m145.39 254.56c-11.641-2.457-22.617-9.0547-28.84-17.328-4.3047-5.7266-6.2773-9.7031-8.625-17.375-1.7656-5.7812-1.9141-7.2461-1.9258-18.727-0.011718-14.594 1.0352-19.613 6.3477-30.336 9.2852-18.754 28.996-30.715 59.754-36.25 7.5938-1.3672 29.332-3.8711 33.695-3.8828 5.7227-0.015625 5.8281-0.20703 5.8281-10.902 0-14.535-2.6641-22.078-9.4102-26.676-4.9844-3.3906-9.3711-4.7031-15.789-4.7188-9.2422-0.023437-16.77 3.1133-22.703 9.4531-3.5977 3.8516-5.1602 6.5586-6.6211 11.473-0.55078 1.8555-1.6641 4.2148-2.4766 5.25-1.2617 1.6016-2.0234 1.875-5.2188 1.875-2.0547 0-7.1289-0.47266-11.27-1.0547s-10.641-1.4062-14.441-1.8281c-8.2461-0.92188-9.8594-1.4648-11.418-3.8398-1.1055-1.6875-1.1016-2.1445 0.074219-6.9727 3.0586-12.57 7.5742-20.609 16.695-29.727 10.43-10.426 21.539-15.953 39.316-19.551 7.457-1.5117 10.883-1.8047 20.98-1.8047 25.84 0 45.297 6.5703 57.922 19.562 7.3203 7.5312 11.051 15.734 12.844 28.254 0.54688 3.8164 1 22.523 1.2773 52.555l0.42578 46.629 2.3086 5.3359c1.2656 2.9375 4.1094 7.7383 6.3164 10.672 5.3203 7.0664 6.4258 9.4414 5.5508 11.93-0.64844 1.8477-13.469 13.613-25.078 23.016-4.7188 3.8242-5.5156 4.2148-8.5859 4.2148-3.2539 0-3.5938-0.20703-8.8633-5.375-3.0156-2.957-7.5859-8.2422-10.156-11.746-2.5742-3.5039-5.0664-6.3711-5.5391-6.3711-0.47656 0-2.293 1.4805-4.0352 3.293-7.4062 7.6758-17.121 14.379-25.781 17.785-10.555 4.1523-30.758 5.6562-42.559 3.168zm39.453-33.863c9.3594-2.4375 15.836-8.3047 21.059-19.074 4.7695-9.8359 5.8164-15.773 5.5625-31.504l-0.19922-12.059-8.5391 0.14844c-12.203 0.21484-19.051 1.5977-26.992 5.4609-13.754 6.6914-19.656 17.316-18.711 33.68 0.49609 8.5625 2.7695 13.848 8.0234 18.648 5.75 5.2578 11.977 6.7344 19.797 4.6992z" fill="#fff"/><path d="m168.2 332.4c-29.641-3.5586-57.738-16.629-90.051-41.879-10.129-7.9141-21.277-17.543-22.219-19.188-1.4102-2.457-1.0781-5.3281 0.83203-7.2383 2.9648-2.9688 5.2734-2.3906 17.473 4.3711 37.965 21.043 62.137 30.766 88.625 35.641 10.082 1.8555 41.16 1.8711 53.035 0.027343 24.598-3.8203 42.574-8.7578 67.129-18.43 14.086-5.5508 15.785-5.7344 19.309-2.0547 2.3008 2.4023 2.6523 6.1758 0.83203 8.9531-1.5469 2.3594-10.395 8.5156-20.387 14.188-35.324 20.047-79.215 29.855-114.58 25.609zm141.66-24.492c-0.78125-0.78125-1.4219-2.207-1.4219-3.1641 0-0.95703 1.7305-6.9648 3.8477-13.348 4.4727-13.496 5.3594-18.316 3.6719-20.004-1.8164-1.8164-7.2539-2.2266-16.418-1.2383-15.918 1.7148-18.062 1.75-19.609 0.35156-2.1406-1.9375-1.8633-6.0234 0.56641-8.3008 2.5977-2.4336 8.9414-5.9258 13.809-7.6016 9.7539-3.3555 29.836-3.8438 36.516-0.88672 4.8906 2.1641 5.7539 4.082 5.6289 12.523-0.20312 13.797-6.1484 28.844-15.062 38.117-4.2461 4.418-5.0781 4.9766-7.4414 4.9766-1.7109 0-3.168-0.50781-4.0859-1.4258z" fill="#e32f2f"/><path transform="scale(.75)" d="m252.46 68.85c-4.661 0-8.219 0.05241-11.34 0.19727 30.165 1.3708 53.179 10.046 68.57 25.885 9.7604 10.042 14.734 20.979 17.125 37.672 0.72919 5.0885 1.3333 30.033 1.7031 70.074l0.56641 62.172 3.0781 7.1133c1.6875 3.9167 5.4792 10.319 8.4219 14.23 7.0938 9.4219 8.569 12.589 7.4023 15.906-0.86458 2.4635-17.958 18.151-33.438 30.688-0.34 0.27555-0.6111 0.48688-0.92187 0.73633 4.8545 4.6707 5.676 4.8828 9.4727 4.8828 4.0938 0 5.1576-0.52018 11.449-5.6191 15.479-12.536 32.573-28.224 33.438-30.688 1.1667-3.3177-0.30858-6.4844-7.4023-15.906-2.9427-3.9114-6.7344-10.314-8.4219-14.23l-3.0781-7.1133-0.56641-62.172c-0.36978-40.042-0.97393-64.986-1.7031-70.074-2.3906-16.693-7.3646-27.63-17.125-37.672-16.833-17.323-42.777-26.082-77.23-26.082z" opacity=".3" stroke-width="1.3333"/></svg>
