<svg width="512" height="512" version="1.1" viewBox="0 0 384 384" xmlns="http://www.w3.org/2000/svg"><path d="m224.16 143.75-8.1851 0.59058-8.1851 0.59053-0.51157 54.407-0.51157 54.407h15.403l0.0639-4.8148c0.0349-2.6479 0.86938-4.8905 1.9259-4.8148 0.88913 0.0637 1.9259 1.4632 1.9259 1.4632 1.9823 2.4611 7.8812 6.7141 14.444 8.3017 13.527 3.2722 23.92 0.71112 33.06-8.1475 19.437-18.839 13.327-60.385-10.337-70.273-12.32-5.1474-25.181-3.0448-34.76 5.6799l-4.3333 3.9458v-20.67zm-17.164 0.2934l-131.88 0.89149-59.368 108.81h130.67zm125.28 28.746c-5.7283-0.18155-11.399 0.64549-16.246 2.6707-13.253 5.5374-22.516 21.501-22.516 38.804 0 20.648 10.194 35.156 27.903 39.71 7.609 1.9567 20.63 1.7479 28.971-3.2349 8.9829-5.3658 17.856-20.299 17.856-25.815l-16.758-0.13173s-1.4501 3.0586-2.0463 4.6267c-2.528 6.6492-11.265 12.12-18.225 12.12-12.591 0-20.391-10.031-20.391-27.275 0-18.128 7.8105-27.974 22.095-27.862 8.4541 0.0668 12.616 2.4027 16.175 9.0841 0.8314 1.5608 1.5159 3.2763 1.5159 3.2763h16.359s-0.20363-5.5132-4.1904-12.052c-5.0167-8.2284-17.9-13.522-30.502-13.921zm-84.984 13.263c4.3702 0.2537 8.6233 2.0276 12.014 5.5821 9.8885 10.365 11.846 24.513 5.2699 38.097-2.1341 4.4085-6.0782 9.0167-8.7606 10.239-20.014 9.1191-37.573-11.259-31.232-36.242 2.9009-11.429 13.094-18.234 22.708-17.675z" opacity=".3"/><g transform="matrix(2.5679 0 0 2.5679 -147.3 -1130.4)"><path d="m137.97 493.39-51.359 0.34717-23.12 42.375h50.886z" fill="#80c6ed"/><path d="m151.03 536.16c-2.5559-0.61827-4.853-2.2742-5.625-3.2326 0 0-0.40375-0.54475-0.75-0.56959-0.41144-0.0295-0.73638 0.84384-0.75 1.875l-0.0248 1.875h-5.9986l0.19918-21.188 0.19918-21.187 3.1875-0.23062 3.1875-0.23063v16.098l1.6875-1.537c3.7303-3.3977 8.7382-4.2157 13.536-2.2112 9.2154 3.8504 11.596 20.029 4.0264 27.366-3.5593 3.4498-7.607 4.4474-12.875 3.1731zm5.9536-5.4175c1.0446-0.47594 2.5792-2.27 3.4103-3.9868 2.5609-5.29 1.7989-10.799-2.052-14.835-4.2258-4.4296-11.878-1.7642-13.522 4.7095-2.4695 9.7292 4.3691 17.664 12.163 14.113zm25.546 5.4544c-6.8966-1.7735-10.867-7.4232-10.867-15.464 0-6.7383 3.6073-12.955 8.7683-15.112 6.0401-2.5237 15.363-0.28029 18.205 4.3806 1.5525 2.5464 1.6331 4.6942 1.6331 4.6942h-6.3719s-0.2653-0.66782-0.58907-1.2756c-1.386-2.6019-3.0072-3.5126-6.2995-3.5386-5.5629-0.0439-8.6044 3.7918-8.6044 10.851 0 6.7152 3.0374 10.621 7.9407 10.621 2.7104 0 6.1122-2.1298 7.0967-4.7192 0.23217-0.61065 0.79717-1.8019 0.79717-1.8019l6.5254 0.0509c0 2.1482-3.4553 7.9644-6.9535 10.054-3.2485 1.9404-8.3185 2.0216-11.282 1.2596z" fill="#fff"/></g></svg>
