<svg width="512" height="512" version="1.1" viewBox="0 0 384 384" xmlns="http://www.w3.org/2000/svg" xmlns:xlink="http://www.w3.org/1999/xlink"><path d="m32.383 142.99h319.23c4.0352 0 7.3047 2.6758 7.3047 5.9766v138.92c0 3.2969-3.2695 5.9727-7.3047 5.9727h-319.23c-4.0352 0-7.3047-2.6758-7.3047-5.9727v-138.92c0-3.3008 3.2695-5.9766 7.3047-5.9766z" fill-rule="evenodd" opacity=".3"/><path d="m84.148 40.812h216.99c1 0 1.8086 0.98438 1.8086 2.1992v122.73c0 1.2148-0.80859 2.1992-1.8086 2.1992h-216.99c-1 0-1.8086-0.98438-1.8086-2.1992v-122.73c0-1.2148 0.80859-2.1992 1.8086-2.1992z" fill="#fff" fill-rule="evenodd"/><path d="m124.89 280c-0.30859-0.80078-0.40234-2.2695-0.21094-3.2656 0.33204-1.7148 2.7266-1.8125 45.043-1.8125h44.695v6.0078l-44.484 0.26172c-38.129 0.22266-44.562 0.0547-45.043-1.1914z" fill="#b3b3b3"/><path d="m228.38 280.01c-0.3125-0.8086-0.41016-2.2852-0.21485-3.2812 0.32031-1.6524 1.6953-1.8125 15.906-1.8125h15.559v6.0078l-15.344 0.27734c-12.738 0.23047-15.438 0.0274-15.906-1.1914z" fill="#b3b3b3"/><path d="m32.383 135.49h319.23c4.0352 0 7.3047 2.6758 7.3047 5.9766v138.92c0 3.2969-3.2695 5.9727-7.3047 5.9727h-319.23c-4.0352 0-7.3047-2.6758-7.3047-5.9727v-138.92c0-3.3008 3.2695-5.9766 7.3047-5.9766z" fill="#e6e6e6" fill-rule="evenodd"/><path d="m68.723 135.46v19.012h-0.03125v38.234h246.12v-19.125h0.0312v-38.121zm245.85 107.51-123.18 0.69531-123.6-0.34766 0.14844 20.25v22.832l19.598 0.0156 19.449 0.0195 0.28515-12.188 0.20704-8.1289 83.41-0.14062c66.719-0.11328 84.172-0.69141 85.129-0.0312 0.94531 0.64844 0.67578 4.5156 0.77734 8.918l0.25781 11.461 19.535 0.0469 18.793-0.0742-0.54297-21.684z" fill="#333"/><path d="m108.71 236.74h166.45c0.76561 0 1.3867 0.86719 1.3867 1.9336v107.72c0 1.0664-0.62109 1.9297-1.3867 1.9297h-166.45c-0.76563 0-1.3867-0.86328-1.3867-1.9297v-107.72c0-1.0664 0.62109-1.9336 1.3867-1.9336z" fill-rule="evenodd" opacity=".3"/><g fill="#fff"><path d="m108.71 229.24h166.45c0.76562 0 1.3867 0.86719 1.3867 1.9336v107.72c0 1.0664-0.62109 1.9297-1.3867 1.9297h-166.45c-0.76563 0-1.3867-0.86328-1.3867-1.9297v-107.72c0-1.0664 0.62109-1.9336 1.3867-1.9336z" fill-rule="evenodd"/><path d="m108.71 228.65h166.45c0.76562 0 1.3867 0.86328 1.3867 1.9297v36.238c0 1.0664-0.62109 1.9336-1.3867 1.9336h-166.45c-0.76563 0-1.3867-0.86719-1.3867-1.9336v-36.238c0-1.0664 0.62109-1.9297 1.3867-1.9297z" fill-rule="evenodd"/><path d="m300.88 154.44c0 5.3047-4.3008 9.6055-9.6094 9.6055-5.3047 0-9.6055-4.3008-9.6055-9.6055 0-5.3086 4.3008-9.6094 9.6055-9.6094 5.3086 0 9.6094 4.3008 9.6094 9.6094z"/></g><path d="m384 283.5c0 53.02-42.98 96-96 96-53.02 0-96-42.98-96-96s42.98-96 96-96c53.02 0 96 42.98 96 96z" fill-rule="evenodd" opacity=".3"/><path d="m384 276c0 53.02-42.98 96-96 96s-96-42.98-96-96 42.98-96 96-96 96 42.98 96 96z" fill="#d31818" fill-rule="evenodd"/><path d="m312 288 48-36-48-36c0.0352 0 0 6.668 0 12h-24v48h24z" fill="#fff"/><path d="m264 336-48-36 48-36c-0.0352 0 0 6.668 0 12h24v48h-24z" fill="#fff"/></svg>
