<svg width="512" height="512" version="1.1" viewBox="0 0 384 384" xmlns="http://www.w3.org/2000/svg" xmlns:xlink="http://www.w3.org/1999/xlink"><defs><clipPath><rect width="384" height="384"/></clipPath><clipPath><rect width="384" height="384"/></clipPath><clipPath><rect width="384" height="384"/></clipPath></defs><path d="m361.5 191.25c0 93.199-75.551 168.75-168.75 168.75-93.199 0-168.75-75.551-168.75-168.75 0-93.199 75.551-168.75 168.75-168.75 93.199 0 168.75 75.551 168.75 168.75z" fill="#d72e2e" stroke-width="1.0045"/><path d="m288.33 186.7c-3.139-24.602-15.636-47.045-34.893-62.669-3.9198 1.4674-8.0789 2.4013-12.477 2.4013-15.165 0-28.203-9.5777-33.544-22.93-4.8536-0.76512-9.7582-1.1575-14.671-1.1771-12.85 0-25.571 2.57-37.412 7.557l18.339 31.782c6.1406-2.0796 12.579-3.1546 19.065-3.1821 28.619 0.0274 53.276 20.176 58.997 48.214h36.588zm-0.0235 24.107h-36.514c-5.7286 28.058-30.409 48.21-59.044 48.214-6.4859-0.0196-12.925-1.0829-19.069-3.1546l-18.292 31.688c11.818 5.0027 24.519 7.5963 37.354 7.6316 4.9321-0.0471 9.8524-0.47084 14.718-1.2674 5.3519-13.305 18.371-22.84 33.497-22.84 4.4142 0 8.6007 0.92206 12.524 2.4013 19.23-15.64 31.699-38.079 34.823-62.669zm-23.24-120.54c0-13.313-10.794-24.107-24.107-24.107s-24.107 10.794-24.107 24.107c0 13.313 10.794 24.107 24.107 24.107s24.107-10.794 24.107-24.107zm0 216.96c0-13.313-10.794-24.107-24.107-24.107s-24.107 10.794-24.107 24.107c0 13.313 10.794 24.107 24.107 24.107s24.107-10.794 24.107-24.107zm-112.24-153.51-18.3-31.692c-17.413 13.227-29.816 31.982-35.172 53.182 5.5324 6.3603 9.0166 14.541 9.0166 23.542 0 8.9931-3.4725 17.162-8.9931 23.519 5.3284 21.223 17.715 40.002 35.125 53.252l18.324-31.711c-12.913-11.418-20.321-27.819-20.348-45.056 0.0354-17.229 7.4393-33.618 20.348-45.032zm-56.509 45.032c0-13.313-10.794-24.107-24.107-24.107-13.313 1e-5 -24.107 10.794-24.107 24.107 0 13.313 10.794 24.107 24.107 24.107 13.313 0 24.107-10.794 24.107-24.107z" fill="#090909" opacity=".3" stroke-width="1.0045"/><path d="m288.33 179.2c-3.139-24.602-15.636-47.045-34.893-62.669-3.9198 1.4674-8.0789 2.4013-12.477 2.4013-15.165 0-28.203-9.5777-33.544-22.93-4.8536-0.76512-9.7582-1.1575-14.671-1.1771-12.85 0-25.571 2.57-37.412 7.557l18.339 31.782c6.1406-2.0796 12.579-3.1546 19.065-3.1821 28.619 0.0274 53.276 20.176 58.997 48.214h36.588zm-0.0235 24.107h-36.514c-5.7286 28.058-30.409 48.21-59.044 48.214-6.4859-0.0196-12.925-1.0829-19.069-3.1546l-18.292 31.688c11.818 5.0027 24.519 7.5963 37.354 7.6316 4.9321-0.0471 9.8524-0.47084 14.718-1.2674 5.3519-13.305 18.371-22.84 33.497-22.84 4.4142 0 8.6007 0.92206 12.524 2.4013 19.23-15.64 31.699-38.079 34.823-62.669zm-23.24-120.54c0-13.313-10.794-24.107-24.107-24.107s-24.107 10.794-24.107 24.107c0 13.313 10.794 24.107 24.107 24.107s24.107-10.794 24.107-24.107zm0 216.96c0-13.313-10.794-24.107-24.107-24.107s-24.107 10.794-24.107 24.107 10.794 24.107 24.107 24.107 24.107-10.794 24.107-24.107zm-112.24-153.51-18.3-31.692c-17.413 13.227-29.816 31.982-35.172 53.182 5.5324 6.3603 9.0166 14.541 9.0166 23.542 0 8.9931-3.4725 17.162-8.9931 23.519 5.3284 21.223 17.715 40.002 35.125 53.252l18.324-31.711c-12.913-11.418-20.321-27.819-20.348-45.056 0.0354-17.229 7.4393-33.618 20.348-45.032zm-56.509 45.032c0-13.313-10.794-24.107-24.107-24.107-13.313 0-24.107 10.794-24.107 24.107s10.794 24.107 24.107 24.107c13.313 0 24.107-10.794 24.107-24.107z" fill="#fff" stroke-width="1.0045"/><path d="m24.047 187.48c-0.02745 1.2529-0.047084 2.5073-0.047084 3.7667 0 93.199 75.551 168.75 168.75 168.75 93.199 0 168.75-75.551 168.75-168.75 0-1.2594-0.0197-2.5139-0.0471-3.7667-2.0039 91.459-76.763 164.98-168.7 164.98-91.94 0-166.7-73.524-168.7-164.98z" opacity=".3" stroke-width=".75335"/><path d="m368.2 284.74c0 51.02-41.359 92.379-92.379 92.379s-92.379-41.359-92.379-92.379 41.359-92.379 92.379-92.379 92.379 41.359 92.379 92.379z" opacity=".3"/><path d="m368.2 277.24c0 51.02-41.359 92.379-92.379 92.379s-92.379-41.359-92.379-92.379 41.359-92.379 92.379-92.379 92.379 41.359 92.379 92.379z" fill="#8a3fab"/><path d="m267.67 226.36-2.5977 13.156c-3.2031 0.85937-6.25 2.1523-9.082 3.7109l-11.672-7.4102-11.309 10.934 7.5977 11.305c-1.6055 2.7383-2.8164 5.6094-3.707 8.7109l-13.535 2.5976v15.758l13.535 2.5938c0.88281 3.1055 2.1016 6.1562 3.707 8.8984l-7.5977 11.121 11.309 11.121 11.672-7.5976c2.832 1.5508 5.8789 2.8476 9.082 3.707l2.5977 13.16h16.309l2.5977-13.16c3.2031-0.85938 6.2539-2.1484 9.082-3.707l11.676 7.5976 11.309-11.121-7.6016-11.121c1.6055-2.7383 2.8203-5.793 3.7109-8.8984l13.531-2.5938v-15.758l-13.531-2.5976c-0.88673-3.1016-2.1055-5.9727-3.7109-8.7109l7.6016-11.305-11.309-10.934-11.676 7.4102c-2.8281-1.5508-5.8789-2.8516-9.082-3.7109l-2.5977-13.156zm8.1602 32.988c9.8281 0 17.793 7.9648 17.793 17.793 0 9.832-7.9648 17.793-17.793 17.793-9.832 0-17.797-7.9609-17.797-17.793 0-9.8281 7.9648-17.793 17.797-17.793z" fill="#fff"/><path transform="scale(.75)" d="m257 30c-124.27 0-225 100.73-225 225 0 1.6719 0.028171 3.3368 0.064453 5 2.6604-121.96 102.34-220 224.94-220 122.59 0 222.28 98.045 224.94 220 0.03628-1.6632 0.06445-3.3281 0.06445-5 0-124.27-100.73-225-225-225z" fill="#fae7e7" opacity=".3" stroke-width="1.3393"/></svg>
