<svg width="512" height="512" version="1.1" viewBox="0 0 384 384" xmlns="http://www.w3.org/2000/svg" xmlns:xlink="http://www.w3.org/1999/xlink"><defs><clipPath id="a"><rect width="384" height="384"/></clipPath></defs><path d="m166.48 30.75-0.22656 11.898c-0.13672 7.0547-0.59766 12.336-1.1328 12.98-0.55078 0.66797-2.7109 1.0898-5.5742 1.0898h-4.6719l-22.02 29.582c-12.109 16.27-22.016 30.023-22.016 30.562 0 1.6953 16.715 20.641 18.211 20.641 1.5078 0 23.562-7.6016 26.293-9.0625 1.2461-0.66798 1.5-1.4141 1.1211-3.3086-0.33985-1.6914-0.13282-2.5781 0.67578-2.8906 0.64062-0.24219 6.2578-1.1172 12.484-1.9414 8.3008-1.0977 11.648-1.2578 12.543-0.59765 2.1211 1.5625 3.3398 21.574 2.1602 35.355-3.2539 37.98-17.828 65.52-44.613 84.289l-6.4883 4.543 1.6094 5.543c3.3633 11.574 9.8008 37.352 9.8008 39.242 0 1.8633-0.32422 1.9922-5.7695 2.2969-6.5625 0.37108-8.5195 1.6523-8.5195 5.582 0 1.375 0.65234 3.2266 1.4531 4.1094 1.9258 2.125 1.0234 3.3594-2.4609 3.3594-3.4883 0-6.1367 2.4219-6.1367 5.6133 0 3.3867 1.6406 5.0898 5.793 6.0234 4.9844 1.1211 7.3984 3.5117 7.3984 7.3242 0 4.0234-2.582 6.3437-8.2383 7.418-5.3281 1.0117-7.7891 2.5-9.9375 6.0195-4.3516 7.1406-0.20703 16.426 8.3633 18.734 2.7031 0.72655 3.2891 1.3086 4 3.957 0.96875 3.5937 4.5234 7.3281 7.957 8.3555 3.3867 1.0117 108.86 1.0547 112.38 0.0469 3.7969-1.0898 7.3242-4.6328 8.3281-8.3672 0.73047-2.711 1.3008-3.2266 4.9102-4.4258 6.6914-2.2227 10.027-7.8555 8.7344-14.758-1.0273-5.4726-5.2422-8.9414-11.898-9.793-4.7891-0.60936-7.543-3.2383-7.543-7.1875 0-3.8125 2.414-6.2031 7.3945-7.3242 4.1562-0.9336 5.793-2.6367 5.793-6.0234 0-3.1914-2.6484-5.6133-6.1328-5.6133-3.4844 0-4.3906-1.2344-2.4648-3.3594 1.832-2.0234 1.8789-6.1875 0.0899-7.9726-0.91017-0.91015-3.2227-1.4805-6.9375-1.7148-3.0664-0.1914-5.793-0.69141-6.0625-1.1133-0.26564-0.41797 0.91015-6.3125 2.6133-13.094 7.2148-28.719 10.605-53.352 11.227-81.625 0.51562-23.332-0.25781-34.504-3.5195-50.855-8.2774-41.5-27.738-68.113-61.676-84.352l-8.3359-3.9883-9.4805-12.602zm-5.6055 45.266c0.70313-0.0547 1.3906 0.21875 2.3633 0.85938 2.5039 1.6367 2.5742 4.0781 0.17579 5.7617-2.1328 1.4922-2.2383 1.5039-4.1445 0.39453-2.0625-1.1992-1.8945-5.4062 0.26172-6.5586 0.4961-0.26562 0.92188-0.42187 1.3438-0.45703z" fill="#212121" opacity=".3"/><path d="m166.48 23.25-0.22656 11.898c-0.13672 7.0547-0.59766 12.336-1.1328 12.98-0.55078 0.66797-2.7109 1.0898-5.5742 1.0898h-4.6719l-22.02 29.582c-12.109 16.27-22.016 30.023-22.016 30.562 0 1.6953 16.715 20.641 18.211 20.641 1.5078 0 23.562-7.6016 26.293-9.0625 1.2461-0.66797 1.5-1.4141 1.1211-3.3086-0.33984-1.6914-0.13281-2.5781 0.67578-2.8906 0.64062-0.24219 6.2578-1.1172 12.484-1.9414 8.3008-1.0977 11.648-1.2578 12.543-0.59766 2.1211 1.5625 3.3398 21.574 2.1602 35.355-3.2539 37.98-17.828 65.52-44.613 84.289l-6.4883 4.543 1.6094 5.543c3.3633 11.574 9.8008 37.352 9.8008 39.242 0 1.8633-0.32422 1.9922-5.7695 2.2969-6.5625 0.37109-8.5195 1.6523-8.5195 5.582 0 1.375 0.65234 3.2266 1.4531 4.1094 1.9258 2.125 1.0234 3.3594-2.4609 3.3594-3.4883 0-6.1367 2.4219-6.1367 5.6133 0 3.3867 1.6406 5.0898 5.793 6.0234 4.9844 1.1211 7.3984 3.5117 7.3984 7.3242 0 4.0234-2.582 6.3438-8.2383 7.418-5.3281 1.0117-7.7891 2.5-9.9375 6.0195-4.3516 7.1406-0.20703 16.426 8.3633 18.734 2.7031 0.72656 3.2891 1.3086 4 3.957 0.96875 3.5938 4.5234 7.3281 7.957 8.3555 3.3867 1.0117 108.86 1.0547 112.38 0.046875 3.7969-1.0898 7.3242-4.6328 8.3281-8.3672 0.73047-2.7109 1.3008-3.2266 4.9102-4.4258 6.6914-2.2227 10.027-7.8555 8.7344-14.758-1.0273-5.4727-5.2422-8.9414-11.898-9.793-4.7891-0.60938-7.543-3.2383-7.543-7.1875 0-3.8125 2.4141-6.2031 7.3945-7.3242 4.1562-0.93359 5.793-2.6367 5.793-6.0234 0-3.1914-2.6484-5.6133-6.1328-5.6133s-4.3906-1.2344-2.4648-3.3594c1.832-2.0234 1.8789-6.1875 0.089844-7.9727-0.91016-0.91016-3.2227-1.4805-6.9375-1.7148-3.0664-0.19141-5.793-0.69141-6.0625-1.1133-0.26562-0.41797 0.91016-6.3125 2.6133-13.094 7.2148-28.719 10.605-53.352 11.227-81.625 0.51562-23.332-0.25781-34.504-3.5195-50.855-8.2773-41.5-27.738-68.113-61.676-84.352l-8.3359-3.9883-9.4805-12.602zm-5.6055 45.266c0.70312-0.054687 1.3906 0.21875 2.3633 0.85938 2.5039 1.6367 2.5742 4.0781 0.17578 5.7617-2.1328 1.4922-2.2383 1.5039-4.1445 0.39453-2.0625-1.1992-1.8945-5.4062 0.26172-6.5586 0.49609-0.26562 0.92188-0.42188 1.3438-0.45703z" fill="#fff"/><g clip-path="url(#a)"><path d="m167.92 34.453-0.23047 0.69531c-0.13672 7.0547-1.1328 12.98-1.1328 12.98l11.414 0.32031zm29.227 19.66c90.961 57.891 39.293 179.7 26.383 228.58h22.234c-0.34375-0.10938-0.5625-0.22266-0.63281-0.32812-0.26562-0.41797 0.91016-6.3125 2.6133-13.094 7.2148-28.719 10.605-53.352 11.227-81.625 0.51562-23.332-0.25781-34.504-3.5195-50.855-8-40.105-26.445-66.305-58.305-82.676zm-65.125 241.97c-0.57812 0.28516-1.4727 0.4375-2.6836 0.4375-3.4883 0-6.1367 2.4219-6.1367 5.6133 0 3.3867 1.6406 5.0898 5.793 6.0234 0.22266 0.050782 0.41406 0.11719 0.62891 0.17188v-0.31641h131.77c3.7344-0.96094 5.25-2.6523 5.25-5.8789 0-3.1914-2.6484-5.6133-6.1328-5.6133-1.2148 0-2.1094-0.15234-2.6875-0.4375zm-2.3984 26.473c-0.47266 0.12109-0.94531 0.24219-1.4688 0.34375-5.3281 1.0117-7.7891 2.5-9.9375 6.0195-4.3516 7.1406-0.20703 16.426 8.3633 18.734 0.46094 0.12109 0.84375 0.24609 1.1953 0.37109h134.22c0.57031-0.25391 1.2695-0.50781 2.1602-0.80469 6.6914-2.2227 10.027-7.8555 8.7344-14.758-0.94531-5.0391-4.6016-8.375-10.367-9.5352h-132.9z" fill="#0f2b5b" opacity=".5"/></g></svg>
