<svg width="512" height="512" version="1.1" viewBox="0 0 384 384" xmlns="http://www.w3.org/2000/svg"><defs><clipPath><rect width="384" height="384"/></clipPath><clipPath><rect width="384" height="384"/></clipPath><clipPath><rect width="384" height="384"/></clipPath></defs><path d="m37.994 59.603c-12.197 0-22.24 10.043-22.24 22.24v235.31c0 12.197 10.043 22.242 22.24 22.242h308.02c12.197 0 22.236-10.047 22.236-22.242v-235.31c0-12.195-10.039-22.24-22.236-22.24z" color="#000000" color-rendering="auto" dominant-baseline="auto" fill-rule="evenodd" image-rendering="auto" opacity=".3" shape-rendering="auto" solid-color="#000000" style="font-feature-settings:normal;font-variant-alternates:normal;font-variant-caps:normal;font-variant-ligatures:normal;font-variant-numeric:normal;font-variant-position:normal;isolation:auto;mix-blend-mode:normal;shape-padding:0;text-decoration-color:#000000;text-decoration-line:none;text-decoration-style:solid;text-indent:0;text-orientation:mixed;text-transform:none;white-space:normal"/><g transform="translate(.013707 .015728)"><path transform="matrix(2.6574 0 0 2.6574 0 -405.27)" d="m14.292 174.84h115.91c3.1104 0 5.6313 2.5224 5.6313 5.6328v88.549c0 3.1104-2.5209 5.6328-5.6313 5.6328h-115.91c-3.1104 0-5.6328-2.5224-5.6328-5.6328v-88.549c0-3.1104 2.5224-5.6328 5.6328-5.6328z" fill="#171717" fill-rule="evenodd" stroke="#fff" stroke-linejoin="round" stroke-width="5.473"/><g fill="#0aa15c"><path d="m116.96 135.35v-5.5586h38.051v11.113h-38.051z"/><g stroke="#0aa15c" stroke-width="1.0195"><path d="m73.84 99.684 34.801 3.625-34.898-14.965z"/><path d="m73.797 119.89 34.961-4.5898-35.055 15.93z"/><path d="m108.31 103.34-34.676-3.6641 34.805 15.23z"/><path d="m108.22 115.15-34.676 4.6875 34.773-16.023z"/></g><path d="m52.242 99.117v-12.336h11.922v12.336h-11.922m0 32.918v-12.336h11.922v12.336h-11.922"/></g></g></svg>
