<?xml version="1.0" encoding="UTF-8" standalone="no"?>
<svg
   xmlns:dc="http://purl.org/dc/elements/1.1/"
   xmlns:cc="http://creativecommons.org/ns#"
   xmlns:rdf="http://www.w3.org/1999/02/22-rdf-syntax-ns#"
   xmlns:svg="http://www.w3.org/2000/svg"
   xmlns="http://www.w3.org/2000/svg"
   xmlns:xlink="http://www.w3.org/1999/xlink"
   xmlns:sodipodi="http://sodipodi.sourceforge.net/DTD/sodipodi-0.dtd"
   xmlns:inkscape="http://www.inkscape.org/namespaces/inkscape"
   width="512"
   height="512"
   version="1.1"
   viewBox="0 0 384 384"
   id="svg39"
   sodipodi:docname="cvpcb.svg"
   inkscape:version="0.92.4 5da689c313, 2019-01-14">
  <metadata
     id="metadata43">
    <rdf:RDF>
      <cc:Work
         rdf:about="">
        <dc:format>image/svg+xml</dc:format>
        <dc:type
           rdf:resource="http://purl.org/dc/dcmitype/StillImage" />
        <dc:title></dc:title>
      </cc:Work>
    </rdf:RDF>
  </metadata>
  <sodipodi:namedview
     pagecolor="#ffffff"
     bordercolor="#666666"
     borderopacity="1"
     objecttolerance="10"
     gridtolerance="10"
     guidetolerance="10"
     inkscape:pageopacity="0"
     inkscape:pageshadow="2"
     inkscape:window-width="1720"
     inkscape:window-height="1382"
     id="namedview41"
     showgrid="false"
     inkscape:zoom="0.921875"
     inkscape:cx="262.52303"
     inkscape:cy="133.3918"
     inkscape:window-x="1080"
     inkscape:window-y="315"
     inkscape:window-maximized="0"
     inkscape:current-layer="svg39" />
  <defs
     id="defs27">
    <filter
       id="alpha"
       width="100%"
       height="100%"
       x="0%"
       y="0%"
       filterUnits="objectBoundingBox">
      <feColorMatrix
         in="SourceGraphic"
         type="matrix"
         values="0 0 0 0 1 0 0 0 0 1 0 0 0 0 1 0 0 0 1 0"
         id="feColorMatrix2" />
    </filter>
    <mask
       id="mask0">
      <g
         filter="url(#alpha)"
         id="g7">
        <rect
           width="384"
           height="384"
           x="0"
           y="0"
           style="fill:rgb(0%,0%,0%);fill-opacity:0.2"
           id="rect5" />
      </g>
    </mask>
    <clipPath
       id="clip1">
      <rect
         width="384"
         height="384"
         x="0"
         y="0"
         id="rect10" />
    </clipPath>
    <g
       id="surface5"
       clip-path="url(#clip1)">
      <path
         style="fill:rgb(0%,0%,0%)"
         d="M 24 337.199219 L 24 349.199219 C 24 358.5 31.496094 366 40.804688 366 L 343.199219 366 C 352.5 366 360 358.5 360 349.199219 L 360 337.199219 C 360 346.5 352.5 354 343.199219 354 L 40.804688 354 C 31.503906 354 24.003906 346.5 24.003906 337.199219 Z M 24 337.199219"
         id="path13" />
    </g>
    <mask
       id="mask1">
      <g
         filter="url(#alpha)"
         id="g18">
        <rect
           width="384"
           height="384"
           x="0"
           y="0"
           style="fill:rgb(0%,0%,0%);fill-opacity:0.2"
           id="rect16" />
      </g>
    </mask>
    <clipPath
       id="clip2">
      <rect
         width="384"
         height="384"
         x="0"
         y="0"
         id="rect21" />
    </clipPath>
    <g
       id="surface8"
       clip-path="url(#clip2)">
      <path
         style="fill:rgb(100.000%,100.000%,100.000%)"
         d="M 40.804688 24 C 31.496094 24 24 31.496094 24 40.804688 L 24 46.816406 C 24 37.507812 31.496094 30.011719 40.804688 30.011719 L 343.195312 30.011719 C 352.496094 30.011719 360 37.507812 360 46.816406 L 360 40.804688 C 360 31.496094 352.496094 24 343.195312 24 Z M 40.804688 24"
         id="path24" />
    </g>
  </defs>
  <path
     inkscape:connector-curvature="0"
     id="path31"
     d="M 360,343.19922 V 40.804688 c 0,-9.277344 -7.52344,-16.796876 -16.80078,-16.796876 H 40.804688 c -9.277344,0 -16.796876,7.519532 -16.796876,16.796876 V 343.19922 c 0,9.27734 7.519532,16.80078 16.796876,16.80078 H 343.19922 C 352.47656,360 360,352.47656 360,343.19922 Z m 0,0"
     style="fill:#ffffff" />
  <path
     inkscape:connector-curvature="0"
     style="fill:#000000;stroke-width:0.99999994;fill-opacity:1;opacity:0.3"
     d="M 132.00001,91.503912 V 139.50391 H 84.000007 v 24 h 48.000003 v 72 H 84.000007 V 259.5 h 48.000003 v 47.99999 l 131.99608,-95.99608 h 36 v -24 h -36 z m 12,59.999998 h 47.99608 v 24 h -47.99608 z m 12,60 h 23.99609 v 12 h 11.99999 V 247.5 H 179.9961 v 12 h -23.99609 v -12 h -12 v -23.99609 h 12 z m 0,0"
     id="path33-4" />
  <path
     inkscape:connector-curvature="0"
     id="path33"
     d="M 132,84.003906 V 132.00391 H 84 v 24 h 48 v 72 H 84 V 252 h 48 v 48 l 131.99609,-95.99609 h 36 v -24 h -36 z m 12,60.000004 h 47.99609 v 24 H 144 Z m 12,60 h 23.99609 v 12 h 12 V 240 h -12 v 12 H 156 v -12 h -12 v -23.99609 h 12 z m 0,0"
     style="fill:#4a4a4a" />
  <use
     height="100%"
     width="100%"
     y="0"
     x="0"
     id="use35"
     xlink:href="#surface8"
     mask="url(#mask1)" />
  <path
     style="fill:#000000;stroke-width:1.33333325;fill-opacity:1;opacity:0.1"
     d="M 54.40625 32.009766 C 42.03645 32.009766 32.009766 42.036463 32.009766 54.40625 L 32.009766 64.40625 C 32.009766 52.03645 42.036458 42.009766 54.40625 42.009766 L 457.59961 42.009766 C 469.9694 42.009766 480 52.03645 480 64.40625 L 480 54.40625 C 480 42.036463 469.9694 32.009766 457.59961 32.009766 L 54.40625 32.009766 z "
     transform="scale(0.75)"
     id="path31-7" />
  <path
     style="fill:#000000;stroke-width:1.33333325;fill-opacity:1;opacity:0.3"
     d="M 32.009766 447.59961 L 32.009766 457.59961 C 32.009766 469.9694 42.036463 480 54.40625 480 L 457.59961 480 C 469.9694 480 480 469.9694 480 457.59961 L 480 447.59961 C 480 459.9694 469.9694 470 457.59961 470 L 54.40625 470 C 42.036463 470 32.009766 459.9694 32.009766 447.59961 z "
     transform="scale(0.75)"
     id="path31-4" />
</svg>
