<svg width="512" height="512" version="1.1" viewBox="0 0 384 384" xmlns="http://www.w3.org/2000/svg" xmlns:xlink="http://www.w3.org/1999/xlink"><defs><clipPath id="d"><rect width="384" height="384"/></clipPath><clipPath><rect width="384" height="384"/></clipPath><clipPath><rect width="384" height="384"/></clipPath><clipPath><rect width="384" height="384"/></clipPath><clipPath><rect width="384" height="384"/></clipPath><clipPath><rect width="384" height="384"/></clipPath><clipPath><rect width="384" height="384"/></clipPath><clipPath><rect width="384" height="384"/></clipPath><clipPath><rect width="384" height="384"/></clipPath><clipPath><rect width="384" height="384"/></clipPath><clipPath><rect width="384" height="384"/></clipPath><clipPath><rect width="384" height="384"/></clipPath><clipPath><rect width="384" height="384"/></clipPath><clipPath><rect width="384" height="384"/></clipPath><clipPath><rect width="384" height="384"/></clipPath><clipPath><rect width="384" height="384"/></clipPath><clipPath><rect width="384" height="384"/></clipPath><clipPath><rect width="384" height="384"/></clipPath><clipPath><rect width="384" height="384"/></clipPath><clipPath><rect width="384" height="384"/></clipPath><clipPath><rect width="384" height="384"/></clipPath><clipPath><rect width="384" height="384"/></clipPath><clipPath><rect width="384" height="384"/></clipPath><clipPath><rect width="384" height="384"/></clipPath><clipPath><rect width="384" height="384"/></clipPath><clipPath><rect width="384" height="384"/></clipPath><clipPath><rect width="384" height="384"/></clipPath><clipPath><rect width="384" height="384"/></clipPath><clipPath><rect width="384" height="384"/></clipPath><clipPath><rect width="384" height="384"/></clipPath><clipPath><rect width="384" height="384"/></clipPath><clipPath><rect width="384" height="384"/></clipPath><clipPath><rect width="384" height="384"/></clipPath><clipPath><rect width="384" height="384"/></clipPath><clipPath><rect width="384" height="384"/></clipPath><clipPath><rect width="384" height="384"/></clipPath><clipPath><rect width="384" height="384"/></clipPath><clipPath><rect width="384" height="384"/></clipPath><clipPath><rect width="384" height="384"/></clipPath><clipPath><rect width="384" height="384"/></clipPath><clipPath><rect width="384" height="384"/></clipPath><clipPath><rect width="384" height="384"/></clipPath><clipPath><rect width="384" height="384"/></clipPath><clipPath><rect width="384" height="384"/></clipPath><clipPath><rect width="384" height="384"/></clipPath><clipPath><rect width="384" height="384"/></clipPath><clipPath><rect width="384" height="384"/></clipPath><clipPath><rect width="384" height="384"/></clipPath><clipPath><rect width="384" height="384"/></clipPath><clipPath><rect width="384" height="384"/></clipPath><clipPath><rect width="384" height="384"/></clipPath><clipPath id="c"><path d="m111 119h177v23h-177z"/></clipPath><clipPath><path d="m368.64 199.88c0-93.234-75.602-168.75-168.75-168.75-93.152 0-168.75 75.516-168.75 168.75s75.598 168.75 168.75 168.75c93.148 0 168.75-75.516 168.75-168.75z"/></clipPath><clipPath id="b"><path d="m177 130h45v89h-45z"/></clipPath><clipPath><path d="m368.64 199.88c0-93.234-75.602-168.75-168.75-168.75-93.152 0-168.75 75.516-168.75 168.75s75.598 168.75 168.75 168.75c93.148 0 168.75-75.516 168.75-168.75z"/></clipPath><clipPath id="a"><path d="m111 207h177v89h-177z"/></clipPath><clipPath><path d="m368.64 199.88c0-93.234-75.602-168.75-168.75-168.75-93.152 0-168.75 75.516-168.75 168.75s75.598 168.75 168.75 168.75c93.148 0 168.75-75.516 168.75-168.75z"/></clipPath><clipPath id="e"><rect width="384" height="384"/></clipPath><g clip-path="url(#e)"><g clip-path="url(#c)"></g><g clip-path="url(#b)"></g><g clip-path="url(#a)"></g></g><clipPath><rect width="384" height="384"/></clipPath><clipPath><rect width="384" height="384"/></clipPath><clipPath><rect width="384" height="384"/></clipPath><clipPath><rect width="384" height="384"/></clipPath><clipPath><rect width="384" height="384"/></clipPath><clipPath><rect width="384" height="384"/></clipPath><clipPath><rect width="384" height="384"/></clipPath><clipPath><rect width="384" height="384"/></clipPath><clipPath><rect width="384" height="384"/></clipPath><clipPath><rect width="384" height="384"/></clipPath><clipPath><rect width="384" height="384"/></clipPath></defs><g transform="matrix(.98424 0 0 .98424 -264.59 256.49)"><path transform="scale(.75)" d="m482.76-315.79c-27.054 0-36.867 24.8-48.984 48.988l-20.309 40.543c-11.953 8.9326-19.691 23.195-19.691 39.268v279.24c0 27.059 21.93 48.99 48.984 48.99h351.56c27.054 0 48.99-21.931 48.99-48.99v-279.23-0.0137c0-16.065-7.7316-30.322-19.676-39.256l-20.324-40.555c-12.12-24.187-21.936-48.988-48.99-48.988z" stroke-width="1.2809"/><g stroke-width=".34428"><path d="m493.31-97.928c0-16.239-13.165-29.404-29.404-29.404-16.239 0-29.404 13.165-29.404 29.404 0 16.239 13.165 29.404 29.404 29.404 16.239 0 29.404-13.165 29.404-29.404z" fill="#333643"/><path d="m480.24-111.68-6.6824 2.2275-6.0972 2.0361c-4.4222-1.3058-9.2025-0.093-12.468 3.1614-4.9211 4.9211-4.9211 12.901 0 17.823 4.9211 4.9211 12.901 4.9211 17.823 0 3.2626-3.2667 4.4784-8.0582 3.1669-12.484l2.0306-6.0806z" opacity=".5"/><path d="m480.24-114.26-6.6824 2.2275-6.0972 2.0361c-4.4222-1.3058-9.2025-0.093-12.468 3.1614-4.9211 4.9211-4.9211 12.901 0 17.823 4.9211 4.9211 12.901 4.9211 17.823 0 3.2626-3.2667 4.4784-8.0582 3.1669-12.484l2.0306-6.0806z" fill="#fd4747"/></g><path d="m434.53-99.221c-0.0185 0.42811-0.0297 0.85836-0.0297 1.291 0 16.239 13.165 29.405 29.405 29.405 16.239 0 29.405-13.165 29.405-29.405 0-0.43268-0.0113-0.86293-0.0298-1.291-0.67614 15.64-13.569 28.114-29.374 28.114-15.806 0-28.7-12.473-29.374-28.114z" opacity=".3" stroke-width=".25821"/><g fill="#fff"><path d="m463.9-127.33c-16.239 0-29.405 13.165-29.405 29.405 0 0.43284 0.0112 0.86275 0.0297 1.291 0.67589-15.64 13.568-28.114 29.374-28.114 15.806 0 28.7 12.474 29.374 28.114 0.0185-0.42829 0.0297-0.85821 0.0297-1.291 0-16.239-13.166-29.405-29.405-29.405z" opacity=".3" stroke-width=".25821"/><g><path transform="scale(.75)" d="m393.77 82.246v10c0 27.059 21.93 48.99 48.984 48.99h351.56c27.054 0 48.99-21.931 48.99-48.99v-10c0 27.059-21.936 48.99-48.99 48.99h-351.56c-27.054 0-48.984-21.931-48.984-48.99z" opacity=".3" stroke-width="1.2809"/><path transform="scale(.75)" d="m482.76-315.97c-27.054 0-36.885 24.79-48.984 48.988l-20.391 40.783-0.0117 0.0234c0.26686-0.20044 0.54146-0.39086 0.8125-0.58594 0.29058-0.20915 0.57971-0.42015 0.875-0.62305 0.31925-0.21933 0.64411-0.43068 0.96875-0.64257 0.2869-0.18728 0.57422-0.37331 0.86524-0.55469 0.30119-0.18771 0.60464-0.37144 0.91015-0.55274 0.33387-0.19815 0.67086-0.39163 1.0098-0.58203 0.28762-0.16154 0.57406-0.3246 0.86523-0.48047 0.39664-0.21237 0.80007-0.41355 1.2031-0.61523 0.23803-0.11907 0.47267-0.24409 0.71289-0.35938 0.11857-0.0569 0.24028-0.10807 0.35937-0.16406 0.50692-0.23832 1.017-0.47013 1.5332-0.6914 0.2745-0.11763 0.55302-0.22712 0.83008-0.33985 0.40597-0.16523 0.81329-0.32785 1.2246-0.48242 0.29415-0.1105 0.5899-0.2173 0.88671-0.32227 0.39288-0.13899 0.78815-0.27315 1.1856-0.40234 0.31748-0.10316 0.63479-0.20592 0.95508-0.30273 0.40542-0.12261 0.81482-0.23536 1.2246-0.34766 0.30271-0.0829 0.60318-0.17083 0.9082-0.24805 0.68406-0.17326 1.3732-0.33243 2.0684-0.47656 0.2226-0.0461 0.44818-0.0839 0.67188-0.12695 0.5197-0.10017 1.041-0.1957 1.5664-0.2793 0.271-0.0431 0.54395-0.0786 0.81641-0.11719 0.48514-0.0688 0.97133-0.13301 1.4609-0.1875 0.28659-0.0319 0.57326-0.061 0.86132-0.0879 0.49236-0.046 0.98789-0.082 1.4844-0.11328 0.2839-0.0179 0.56637-0.0397 0.85156-0.0527 0.75463-0.0345 1.5122-0.0566 2.2754-0.0566h351.56c0.76415 0 1.5237 0.022 2.2793 0.0566 0.28374 0.013 0.5652 0.0349 0.84766 0.0527 0.49607 0.0313 0.99047 0.0654 1.4824 0.11133 0.29004 0.0271 0.57864 0.0597 0.86719 0.0918 0.49116 0.0547 0.98013 0.11642 1.4668 0.18554 0.26734 0.0379 0.53484 0.0749 0.80078 0.11719 0.54187 0.0861 1.0794 0.18335 1.6152 0.28711 0.20676 0.04 0.41527 0.0746 0.6211 0.11719 0.70996 0.14705 1.4149 0.3089 2.1133 0.48633 0.2479 0.063 0.4919 0.1364 0.73828 0.20312 0.46519 0.12604 0.92908 0.25328 1.3887 0.39258 0.31187 0.0945 0.62048 0.19638 0.92969 0.29687 0.38824 0.12625 0.77428 0.25697 1.1582 0.39258 0.3105 0.10963 0.62014 0.22027 0.92773 0.33594 0.39711 0.1494 0.78952 0.30746 1.1816 0.4668 0.288 0.11698 0.57803 0.22929 0.86328 0.35156 0.56607 0.24275 1.1268 0.49654 1.6816 0.75977 0.0691 0.0328 0.14004 0.0626 0.20898 0.0957 0.22919 0.11001 0.4525 0.23029 0.67969 0.34375 0.40789 0.20376 0.81548 0.40834 1.2168 0.62305 0.30696 0.16417 0.60909 0.33537 0.91211 0.50585 0.32437 0.18255 0.64704 0.36698 0.96679 0.55665 0.31243 0.18528 0.62178 0.37442 0.92969 0.5664 0.29341 0.18297 0.58382 0.36963 0.87305 0.5586 0.3105 0.20283 0.62216 0.40364 0.92773 0.61328 0.33113 0.2272 0.65526 0.46416 0.98047 0.69922 0.24606 0.17783 0.49569 0.35093 0.73828 0.5332l-0.0137-0.0274-0.11719-0.23632-20.275-40.549c-12.099-24.198-21.936-48.988-48.99-48.988z" opacity=".2" stroke-width="1.2809"/><path d="m632.48-132.76v-7.5c0-20.294-16.448-36.743-36.738-36.743h-263.67c-20.291 0-36.743 16.448-36.743 36.743v7.5c0-20.294 16.452-36.743 36.743-36.743h263.67c20.291 0 36.738 16.448 36.738 36.743z" opacity=".1" stroke-width=".96068"/></g></g><g><path transform="scale(.75)" d="m482.76-315.97c-27.054 0-36.885 24.79-48.984 48.988l-20.391 40.783-0.0117 0.0234c0.26687-0.20044 0.54146-0.39086 0.8125-0.58594 0.29058-0.20915 0.57971-0.42014 0.875-0.62305 0.31926-0.21933 0.64411-0.43068 0.96875-0.64257 0.28691-0.18728 0.57422-0.37332 0.86524-0.55469 0.30118-0.18772 0.60465-0.37143 0.91015-0.55274 0.33388-0.19814 0.67086-0.39163 1.0098-0.58203 0.28763-0.16154 0.57407-0.3246 0.86523-0.48047 0.31178-0.16693 0.62863-0.32559 0.94532-0.48437l13.15-26.301c12.099-24.198 21.93-48.988 48.984-48.988h271.56c27.054 0 36.891 24.79 48.99 48.988l13.154 26.307c0.30926 0.15538 0.61918 0.30967 0.92383 0.47266 0.30696 0.16417 0.60909 0.33537 0.91211 0.50585 0.32437 0.18255 0.64705 0.36698 0.96679 0.55665 0.31244 0.18527 0.62178 0.37441 0.92969 0.5664 0.29341 0.18297 0.58382 0.36962 0.87305 0.5586 0.31049 0.20282 0.62216 0.40364 0.92773 0.61328 0.33112 0.2272 0.65526 0.46416 0.98047 0.69922 0.24605 0.17784 0.49569 0.35093 0.73828 0.5332l-0.0137-0.0274-0.11719-0.23632-20.275-40.549c-12.099-24.198-21.936-48.988-48.99-48.988z" stroke-width="1.2809"/><rect transform="rotate(52.078)" x="297.22" y="-360.1" width="11.992" height="65.292" rx="7.1311" ry="7.1984" fill="#f0f0f0" opacity=".5" style="paint-order:markers stroke fill"/><rect transform="matrix(1 .0014104 -.0016278 1 0 0)" x="460.17" y="-39.033" width="11.992" height="60.774" rx="7.1311" ry="6.7003" fill="#cbcbcb" style="paint-order:markers stroke fill"/><rect transform="rotate(-59.69)" x="210.45" y="406.48" width="11.992" height="65.292" rx="7.1311" ry="7.1984" fill="#f0f0f0" opacity=".5" style="paint-order:markers stroke fill"/><rect transform="rotate(52.078)" x="293.67" y="-362.87" width="11.992" height="65.292" rx="7.1311" ry="7.1984" fill="#cbcbcb" style="paint-order:markers stroke fill"/><rect transform="rotate(-59.69)" x="214.34" y="404.21" width="11.992" height="65.292" rx="7.1311" ry="7.1984" fill="#cbcbcb" style="paint-order:markers stroke fill"/></g><path d="m362.21-155.37c-15.661 0-28.356 13.758-28.356 30.733v175.03c0 16.976 12.695 30.733 28.356 30.733h203.51c15.661 0 28.359-13.758 28.359-30.733v-175.03c0-16.976-12.698-30.733-28.359-30.733z" fill="none" stroke="#fff" stroke-width="6.658"/><g><rect transform="matrix(1 .0014104 -.0016278 1 0 0)" x="460.18" y="-34.533" width="11.992" height="60.774" rx="7.1311" ry="6.7003" fill="#cbcbcb" style="paint-order:markers stroke fill"/><circle transform="rotate(-48.155)" cx="298.44" cy="358.2" r="25.376" fill="#3e3e3e" style="paint-order:markers stroke fill"/><path transform="scale(.75)" d="m621.65-51.166c-4.4292-0.0062-8.0017 3.9726-8.0098 8.9219l-0.10352 63.164c-1.2e-4 0.07519 8e-3 0.14792 0.01 0.22266l0.0937-57.387c8e-3 -4.9493 3.5806-8.9281 8.0098-8.9219 4.3631 0.0062 7.8724 3.8781 7.9688 8.7246l0.01-5.7812c8e-3 -4.9493-3.5493-8.9371-7.9785-8.9434z" fill="#fff" opacity=".5" style="paint-order:markers stroke fill"/><path transform="scale(.75)" d="m619.88-11.625a33.834 33.834 0 0 0-23.836 11.236 33.834 33.834 0 0 0-8.457 25.537 33.834 33.834 0 0 1 8.457-19.537 33.834 33.834 0 0 1 47.777-2.6328 33.834 33.834 0 0 1 11.09 22.24 33.834 33.834 0 0 0-11.09-28.24 33.834 33.834 0 0 0-23.941-8.6035z" fill="#fff" opacity=".3" style="paint-order:markers stroke fill"/><path transform="scale(.75)" d="m587.59 19.148a33.834 33.834 0 0 0 11.092 28.238 33.834 33.834 0 0 0 47.775-2.6328 33.834 33.834 0 0 0 8.457-25.535 33.834 33.834 0 0 1-8.457 19.535 33.834 33.834 0 0 1-47.775 2.6328 33.834 33.834 0 0 1-11.092-22.238z" opacity=".3" style="paint-order:markers stroke fill"/></g></g></svg>
