<svg width="512" height="512" version="1.1" viewBox="0 0 384 384" xmlns="http://www.w3.org/2000/svg"><path d="m146.12 32.555c-17.594 0-31.859 14.254-31.859 31.84v190.02c0 17.586 14.265 31.84 31.859 31.84h1.727v80.188h89.675v-80.188h0.35595c17.598 0 31.859-14.254 31.859-31.84v-190.02c0-17.586-14.261-31.84-31.859-31.84z" fill-rule="evenodd" opacity=".3"/><g transform="translate(50.16 1.8047)"><g fill-rule="evenodd"><path d="m97.688 271.63h44.84v85.512h-44.84z" fill="#fff"/><path d="m142.52 271.63h44.84v85.512h-44.84z" fill="#e6e6e6"/><path d="m95.961 23.25h91.758c17.598 0 31.859 14.254 31.859 31.84v190.02c0 17.586-14.262 31.84-31.859 31.84h-91.758c-17.594 0-31.859-14.254-31.859-31.84v-190.02c0-17.586 14.266-31.84 31.859-31.84z" fill="#2359b0"/></g><path d="m108.14 321.57v14.23h23.617v-14.23zm46.59 0v14.23h23.781v-14.23z" fill="#0f2b5c" fill-rule="evenodd"/><g fill="#e6e6e6"><path d="m164.75 116.71v-24.23h24.301v24.23z"/><path d="m142.45 208.23c9.1211 0 16.512 7.3828 16.512 16.492 0 9.1055-7.3906 16.492-16.512 16.488-9.1172 0-16.512-7.3828-16.512-16.488 0-9.1094 7.3945-16.492 16.512-16.492z"/><path d="m111.5 113.79c8.0781 0 14.625 6.5391 14.625 14.605 0 8.0664-6.5469 14.605-14.625 14.602-8.0742 0-14.621-6.5352-14.621-14.602 0-8.0664 6.5469-14.605 14.621-14.605z"/><path d="m129.45 77.852s13.02-29.406 13.34-28.961c0.32031 0.44141 12.914 28.961 12.914 28.961z" fill-rule="evenodd"/></g><g fill="none" stroke="#e6e6e6" stroke-miterlimit="2.0126" stroke-width="4.5109"><path d="m142.4 200.22c-2.2266-20.773-32.379-31.059-32.461-43.121-0.0547-8.1562 0.3203-11.727 0.24999-22.102"/><path d="m142.41 178.12c0-20.453 22.477-25.27 33.617-40.398 1.6992-2.5625 0.59374-25.684 0.59374-27.16"/><path d="m142.34 225.02v-153.44"/></g></g><path d="m369 293.09c-0.082-44.309-35.84-80.168-79.883-80.105-44.043 0.0625-79.703 36.023-79.66 80.332 0.043 44.312 35.766 80.203 79.809 80.184 44.043-0.0234 79.734-35.949 79.734-80.258" fill-rule="evenodd" opacity=".3"/><g transform="translate(49.105 8.25)"><path d="m319.89 280.34c-0.082-44.309-35.84-80.168-79.883-80.105s-79.703 36.023-79.66 80.332c0.043 44.312 35.766 80.203 79.809 80.184 44.043-0.0234 79.734-35.949 79.734-80.258" fill="#ccc" fill-rule="evenodd"/></g><path d="m248.08 296.46c0 22.728 18.425 41.149 41.149 41.149 22.497 0 40.74-16.516 41.109-38.925 0.0235-0.22772 0.0402-0.45543 0.0402-0.68314 0-3.7874-3.928-6.684-7.7154-6.684-3.7874 0-7.7154 2.8966-7.7154 6.684 0 15.15-10.565 24.178-25.718 24.178-15.15 0-25.718-10.569-25.718-25.718 0-15.15 10.569-25.718 25.718-25.718v15.431l30.862-23.146-30.858-23.146v15.424c-22.724 0-41.149 18.421-41.149 41.149z" fill="#262833"/></svg>
