<svg width="512" height="512" version="1.1" viewBox="0 0 384 384" xmlns="http://www.w3.org/2000/svg" xmlns:xlink="http://www.w3.org/1999/xlink"><path d="m368.25 120.57-177.28 119.67-175.12-119.11v226.47c0 3.991 0.96017 7.0204 2.7839 8.9418 2.1673 2.3196 5.3237 3.4326 9.592 3.4326h327.65c3.3428 0 6.0339-0.6795 8.0763-2.0736 2.8468-1.9487 4.2995-5.3803 4.2995-10.301v-226.47z" opacity=".3" stroke-width=".99971"/><path d="m15.75 113.03v0.55859l175.17 119.15 123.98 85.149 53.352-204.86z" fill="#e6e6e6"/><path d="m336.22 43.871c0-8.2539-4.125-12.379-12.379-12.379h-263.68c-8.2617 0-12.379 4.1172-12.379 12.379v235.79c0 22.469 4.1172 33.703 12.379 33.703h263.68c8.2617 0 12.379-11.234 12.379-33.703zm-16.68 133.91h-253.81v-9.9062h253.81zm0 20.113h-253.81v-9.9024h253.81zm0 40.234h-253.81v-9.9023h253.81zm0 20.117h-253.81v-9.9023h253.81zm0-40.234h-253.81v-9.9023h253.81zm0-60.348h-253.81v-9.9024h253.81zm-141.16-20.117h-112.65v-9.9023h112.65zm-112.65 140.82v-9.9062h253.81v9.9062z" fill="#fff"/><g fill="#e6e6e6"><path d="m319.54 177.79v-9.9062h-253.81v9.9062z"/><path d="m319.54 197.9v-9.9024h-253.81v9.9024z"/><path d="m319.54 238.13v-9.9023h-253.81v9.9023z"/><path d="m319.54 258.25v-9.9023h-253.81v9.9023z"/><path d="m319.54 218.02v-9.9023h-253.81v9.9023z"/><path d="m319.54 157.67v-9.9024h-253.81v9.9024z"/><path d="m148.67 61.758v-9.9023h-82.941v9.9023z"/><path d="m178.38 137.55v-9.9023h-112.65v9.9023z"/><path d="m118.96 81.844v-9.9023h-53.23v9.9023z"/><path d="m65.73 278.37h253.81v-9.9062h-253.81z"/></g><path d="m23.25 113.05h-7.5v219.58c0 3.9922 0.96045 7.0225 2.7847 8.9443 2.168 2.3203 5.3252 3.4336 9.5947 3.4336h327.74c3.3438 0 6.0357-0.6797 8.0786-2.0742 2.8476-1.9492 4.3008 2.3844 4.3008-2.5375z" opacity=".1"/><path d="m368.25 113.59v-0.55859l-180.33 122.71 176.03 114.7c2.8476-1.9492 4.3008-5.3828 4.3008-10.305z" fill="#e6e6e6"/><path d="m355.87 352.51c3.3438 0 6.0352-0.67969 8.0781-2.0742l-348.2-236.84v226.54c0 3.9922 0.96094 7.0234 2.7852 8.9453 2.168 2.3203 5.3242 3.4336 9.5938 3.4336z" fill="#fff"/></svg>
