<svg width="512" height="512" version="1.1" viewBox="0 0 384 384" xmlns="http://www.w3.org/2000/svg" xmlns:xlink="http://www.w3.org/1999/xlink"><defs><filter id="alpha" x="0%" y="0%" width="100%" height="100%"><feColorMatrix in="SourceGraphic" values="0 0 0 0 1 0 0 0 0 1 0 0 0 0 1 0 0 0 1 0"/></filter><mask id="mask7"><g filter="url(#alpha)"><rect width="384" height="384" fill-opacity=".2"/></g></mask><clipPath id="clip8"><rect width="384" height="384"/></clipPath><g id="surface26" clip-path="url(#clip8)"><path d="m240 204c0 9.9414-8.0586 18-18 18s-18-8.0586-18-18 8.0586-18 18-18 18 8.0586 18 18z"/></g><mask id="mask8"><g filter="url(#alpha)"><rect width="384" height="384" fill-opacity=".2"/></g></mask><clipPath id="clip9"><rect width="384" height="384"/></clipPath><g id="surface29" clip-path="url(#clip9)"><path d="m300 204c0 9.9414-8.0586 18-18 18s-18-8.0586-18-18 8.0586-18 18-18 18 8.0586 18 18z"/></g></defs><path d="m40.801 72h302.4c9.2773 0 16.801 7.5234 16.801 16.801v206.4c0 9.2773-7.5234 16.801-16.801 16.801h-302.4c-9.2773 0-16.801-7.5234-16.801-16.801v-206.4c0-9.2773 7.5234-16.801 16.801-16.801z" fill="#333"/><path transform="scale(.75)" d="m32 383.6v10c0 12.37 10.031 22.4 22.4 22.4h403.2c12.37 0 22.4-10.031 22.4-22.4v-10c0 12.37-10.03 22.4-22.4 22.4h-403.2c-12.37 0-22.4-10.03-22.4-22.4z" stroke-width="1.3333"/><use width="100%" height="100%" mask="url(#mask7)" xlink:href="#surface26"/><use width="100%" height="100%" mask="url(#mask8)" xlink:href="#surface29"/><path d="m66 115.5c-9.9414 0-18 8.0586-18 18s8.0586 18 18 18 18-8.0586 18-18-8.0586-18-18-18zm60 0c-9.9414 0-18 8.0586-18 18s8.0586 18 18 18 18-8.0586 18-18-8.0586-18-18-18zm60 0c-9.9414 0-18 8.0586-18 18s8.0586 18 18 18 18-8.0586 18-18-8.0586-18-18-18zm60 0c-9.9414 0-18 8.0586-18 18s8.0586 18 18 18 18-8.0586 18-18-8.0586-18-18-18zm60 0c-9.9414 0-18 8.0586-18 18s8.0586 18 18 18 18-8.0586 18-18-8.0586-18-18-18zm-204 72c-9.9414 0-18 8.0586-18 18s8.0586 18 18 18 18-8.0586 18-18-8.0586-18-18-18zm60 0c-9.9414 0-18 8.0586-18 18s8.0586 18 18 18 18-8.0586 18-18-8.0586-18-18-18zm60 0c-9.9414 0-18 8.0586-18 18s8.0586 18 18 18 18-8.0586 18-18-8.0586-18-18-18zm60 0c-9.9414 0-18 8.0586-18 18s8.0586 18 18 18 18-8.0586 18-18-8.0586-18-18-18zm-201 72c-4.9688 0-9 4.0312-9 9v18c0 4.9688 4.0312 9 9 9h222c4.9688 0 9-4.0312 9-9v-18c0-4.9688-4.0312-9-9-9z" opacity=".3"/><path transform="scale(.75)" d="m88 144c-13.255 0-24 10.745-24 24s10.745 24 24 24 24-10.745 24-24-10.745-24-24-24zm80 0c-13.255 0-24 10.745-24 24s10.745 24 24 24 24-10.745 24-24-10.745-24-24-24zm80 0c-13.255 0-24 10.745-24 24s10.745 24 24 24 24-10.745 24-24-10.745-24-24-24zm80 0c-13.255 0-24 10.745-24 24s10.745 24 24 24 24-10.745 24-24-10.745-24-24-24zm80 0c-13.255 0-24 10.745-24 24s10.745 24 24 24 24-10.745 24-24-10.745-24-24-24zm-272 96c-13.255 0-24 10.745-24 24s10.745 24 24 24 24-10.745 24-24-10.745-24-24-24zm80 0c-13.255 0-24 10.745-24 24s10.745 24 24 24 24-10.745 24-24-10.745-24-24-24zm80 0c-13.255 0-24 10.745-24 24s10.745 24 24 24 24-10.745 24-24-10.745-24-24-24zm80 0c-13.255 0-24 10.745-24 24s10.745 24 24 24 24-10.745 24-24-10.745-24-24-24zm-268 96c-6.625 0-12 5.375-12 12v24c0 6.625 5.375 12 12 12h296c6.625 0 12-5.375 12-12v-24c0-6.625-5.375-12-12-12h-296z" fill="#fff" stroke-width="1.3333"/><path d="m384 283.5c0 53.02-42.98 96-96 96s-96-42.98-96-96 42.98-96 96-96 96 42.98 96 96z" opacity=".3"/><path d="m384 276c0 53.02-42.98 96-96 96s-96-42.98-96-96 42.98-96 96-96 96 42.98 96 96z" fill="#fd4747"/><path d="m327.34 236.08v20.644q-10.448-3.643-20.169-5.4646t-18.352-1.8215q-9.2669 0-13.81 1.9733-4.4518 1.8974-4.4518 5.92 0 3.2636 3.3615 5.0092 3.4524 1.7456 12.265 2.5805l5.7237 0.68308q24.984 2.6564 33.615 8.7281t8.631 19.05q0 13.586-11.993 20.416-11.992 6.8307-35.796 6.8307-10.085 0-20.896-1.3662-10.721-1.2902-22.077-3.9466v-20.644q9.7212 3.9466 19.897 5.92 10.266 1.9733 20.805 1.9733 9.5395 0 14.355-2.201 4.8152-2.201 4.8152-6.5271 0-3.6431-3.3615-5.3887-3.2707-1.8215-13.174-2.8082l-5.7237-0.60718q-21.714-2.2769-30.436-8.4245t-8.7218-18.671q0-13.51 11.084-20.037 11.084-6.5271 33.979-6.5271 8.9944 0 18.897 1.1384 9.9029 1.1385 21.532 3.5672z" fill="#fff"/><path transform="scale(.75)" d="m54.4 96c-12.37 0-22.4 10.031-22.4 22.4v10c0-12.37 10.03-22.4 22.4-22.4h403.2c12.37 0 22.4 10.03 22.4 22.4v-10c0-12.37-10.031-22.4-22.4-22.4h-403.2z" fill="#fff" opacity=".3" stroke-width="1.3333"/></svg>
