<svg width="512" height="512" version="1.1" viewBox="0 0 384 384" xmlns="http://www.w3.org/2000/svg" xmlns:xlink="http://www.w3.org/1999/xlink"><defs><clipPath><rect width="384" height="384"/></clipPath><clipPath><rect width="384" height="384"/></clipPath><clipPath><rect width="384" height="384"/></clipPath><clipPath><rect width="384" height="384"/></clipPath><clipPath><rect width="384" height="384"/></clipPath></defs><g transform="translate(-475.12 -74.034)"><path d="m556.07 114.34h222.09c7.9023 0 14.309 6.4102 14.309 14.312v275.59c0 7.9023-6.4062 14.309-14.309 14.309h-222.09c-7.9023 0-14.309-6.4062-14.309-14.309v-275.59c0-7.9023 6.4062-14.312 14.309-14.312z"/><g transform="translate(475.12 74.438)" fill="#fff"><path d="m85.332 316.66h105.41c2.1719 0 3.9336 1.7617 3.9336 3.9336v7.7695c0 2.1719-1.7617 3.9336-3.9336 3.9336h-105.41c-2.1719 0-3.9336-1.7617-3.9336-3.9336v-7.7695c0-2.1719 1.7617-3.9336 3.9336-3.9336z"/><path d="m80.961 39.082h222.09c7.9023 0 14.309 5.6172 14.309 12.543v241.55c0 6.9258-6.4062 12.543-14.309 12.543h-222.09c-7.9023 0-14.309-5.6172-14.309-12.543v-241.55c0-6.9258 6.4062-12.543 14.309-12.543z"/><path d="m268.15 324.46c0 3.875-3.1367 7.0117-7.0117 7.0117-3.8711 0-7.0117-3.1367-7.0117-7.0117 0-3.8711 3.1406-7.0117 7.0117-7.0117 3.875 0 7.0117 3.1406 7.0117 7.0117z"/><path d="m289.81 324.46c0 3.8711-3.1406 7.0117-7.0117 7.0117s-7.0117-3.1406-7.0117-7.0117c0-3.875 3.1406-7.0156 7.0117-7.0156s7.0117 3.1406 7.0117 7.0156z"/></g><g transform="translate(475.12 74.438)"><circle cx="304.73" cy="293.08" r="5.6089" opacity=".3" style="paint-order:markers stroke fill"/><circle cx="79.281" cy="293.08" r="5.6089" opacity=".3" style="paint-order:markers stroke fill"/><circle cx="79.281" cy="51.713" r="5.6089" opacity=".3" style="paint-order:markers stroke fill"/><circle cx="304.73" cy="51.713" r="5.6089" opacity=".3" style="paint-order:markers stroke fill"/></g></g><path d="m262.95 170.39c0 39.18-31.762 70.941-70.941 70.941s-70.941-31.762-70.941-70.941c0-39.18 31.762-70.941 70.941-70.941s70.941 31.762 70.941 70.941zm0 0" fill="none" stroke="#000" stroke-linecap="round" stroke-linejoin="round" stroke-width="16.443"/><path d="m262.95 177.89c0 39.18-31.762 70.941-70.941 70.941s-70.941-31.762-70.941-70.941c0-39.18 31.762-70.941 70.941-70.941s70.941 31.762 70.941 70.941zm0 0" fill="none" opacity=".3" stroke="#000" stroke-linecap="round" stroke-linejoin="round" stroke-width="16.443"/></svg>
