<svg width="512" height="512" version="1.1" viewBox="0 0 384 384" xmlns="http://www.w3.org/2000/svg"><defs><clipPath><rect width="384" height="384"/></clipPath><clipPath><rect width="384" height="384"/></clipPath><clipPath><rect width="384" height="384"/></clipPath><clipPath><rect width="384" height="384"/></clipPath><linearGradient id="linearGradient858" x1="24.161" x2="470.92" y1="255.65" y2="-4.7024" gradientTransform="translate(-.021237 -.011297)" gradientUnits="userSpaceOnUse"><stop stop-color="#367bf0" offset="0"/><stop stop-color="#b7164b" stop-opacity=".99608" offset="1"/></linearGradient></defs><g transform="translate(-.003905)"><path d="m158.18 263.77h67.652v54.723h-67.652z" fill="#262833"/><path d="m158.07 264.17h67.852v54.168z" fill="#171717"/><path d="m23.996 55.281h336.01c4.5391 0 8.2188 3.4648 8.2188 7.7422v193.58c0 4.2774-3.6797 7.7461-8.2188 7.7461h-336.01c-4.5352 0-8.2148-3.4688-8.2148-7.7461v-193.58c0-4.2773 3.6797-7.7422 8.2148-7.7422z"/><path d="m132.2 317.36h119.6c2.5781 0 4.6641 1.9688 4.6641 4.3984v2.5664c0 2.4258-2.0859 4.3945-4.6641 4.3945h-119.6c-2.5781 0-4.6641-1.9688-4.6641-4.3945v-2.5664c0-2.4297 2.0859-4.3984 4.6641-4.3984z" fill="#171717"/><path d="m23.996 59.781h336.01c4.5391 0 8.2187 3.4648 8.2187 7.7422v193.58c0 4.2774-3.6797 7.7461-8.2187 7.7461h-336.01c-4.5352 0-8.2148-3.4688-8.2148-7.7461v-193.58c0-4.2773 3.6797-7.7422 8.2148-7.7422z" opacity=".3"/><rect x="24.14" y="63.993" width="335.73" height="191.64" rx="3.7555" ry="3.7555" fill="url(#linearGradient858)"/></g><path d="m336.2 206.9-47.782 65.322-47.539-64.685c-5.9023 9.4102-3.168 19.296 1.3828 26.726l36.365 51.341-0.3955 0.542c-13.457 18.637-16.339 32.243-20.914 30.954-3.5781-1.0117-1.8677-4.0742-11.313-6.2109-9.0703-2.0508-18.316 5.4136-20.222 14.398-2.543 8.8086 1.6357 19.864 10.937 22.575 9.207 3.3086 20.157-2.1289 23.411-11.297 4.7188-10.484 7.1172-24.321 22.418-36.227l5.748-4.4736 6.4424 4.9893c15.324 11.871 17.758 25.703 22.5 36.176 3.2734 9.1641 14.239 14.574 23.435 11.246 9.2969-2.7305 13.453-13.796 10.887-22.597-1.9219-8.9805-11.188-16.423-20.254-14.353-9.4414 2.1562-7.7227 5.2158-11.297 6.2314-4.5703 1.3047-7.4878-12.297-20.984-30.902l-0.78076-1.062 36.631-51.962c4.5352-7.4414 7.2461-17.332 1.3242-26.73zm-92.162 110.13c6.3206-3e-3 12.299 4.3934 12.299 11.246 0.57423 9.6055-11.081 18.383-19.772 12.918-7.3164-3.8281-7.2861-14.892-1.9307-20.259 2.6882-2.695 6.0935-3.9036 9.4043-3.9053zm89.249 0.4336c3.3109-6e-3 6.7196 1.1936 9.4146 3.8818 5.3711 5.3555 5.4219 16.418-1.8867 20.262-8.6797 5.4844-20.356-3.2646-19.802-12.87-0.0154-6.8522 5.953-11.262 12.274-11.273z" opacity=".3"/><path d="m50.625 83.82h282.75v143.5h-282.75z" fill="none" stroke="#fff" stroke-dasharray="9.329085, 9.329085" stroke-width="4.6645"/><path d="m278.23 278.65c-13.457 18.637-16.34 32.242-20.914 30.953-3.5781-1.0117-1.8672-4.0742-11.312-6.2109-9.0703-2.0508-18.316 5.4141-20.223 14.398-2.543 8.8086 1.6367 19.863 10.938 22.574 9.207 3.3086 20.156-2.1289 23.41-11.297 4.7188-10.484 7.1172-24.32 22.418-36.227l11.746-9.1406 40.582-57.566c4.5352-7.4414 7.2461-17.332 1.3242-26.73zm-43.598 34.789c7.8203-7.8398 21.703-3.1016 21.703 7.3398 0.57422 9.6055-11.082 18.383-19.773 12.918-7.3164-3.8281-7.2852-14.891-1.9297-20.258z" fill="#fff"/><path d="m299.02 279.16c13.496 18.605 16.414 32.207 20.984 30.902 3.5742-1.0156 1.8555-4.0742 11.297-6.2305 9.0664-2.0703 18.332 5.3711 20.254 14.352 2.5664 8.8008-1.5898 19.867-10.887 22.598-9.1953 3.3281-20.16-2.082-23.434-11.246-4.7422-10.473-7.1758-24.305-22.5-36.176l-11.766-9.1133-40.711-57.477c-4.5508-7.4297-7.2852-17.316-1.3828-26.727zm43.676 34.691c-7.8398-7.8203-21.711-3.0508-21.688 7.3906-0.55469 9.6055 11.121 18.355 19.801 12.871 7.3086-3.8438 7.2578-14.906 1.8867-20.262z" fill="#e6e6e6"/></svg>
