<svg width="512" height="512" version="1.1" viewBox="0 0 384 384" xmlns="http://www.w3.org/2000/svg" xmlns:xlink="http://www.w3.org/1999/xlink"><defs><filter id="alpha" x="0%" y="0%" width="100%" height="100%"><feColorMatrix in="SourceGraphic" values="0 0 0 0 1 0 0 0 0 1 0 0 0 0 1 0 0 0 1 0"/></filter><mask id="b"><g filter="url(#alpha)"><rect width="384" height="384" fill-opacity=".2"/></g></mask><clipPath id="c"><rect width="384" height="384"/></clipPath><g id="a" clip-path="url(#c)"><path d="m191.44 96.75c-53.02 0-96 42.98-96 96s42.98 96 96 96z"/></g><clipPath><rect width="384" height="384"/></clipPath></defs><path d="m192 24.754c-17.711 17.473-34.656 37.367-52.57 54.75h-67.43v67.43c-17.387 17.914-37.273 34.859-54.75 52.57 17.473 17.707 37.363 35.324 54.75 53.293v66.703h67.43c17.914 17.387 34.863 37.273 52.57 54.75 17.707-17.473 35.328-37.363 53.297-54.75h66.703v-66.727c17.387-17.965 37.277-35.566 54.75-53.27-17.473-17.707-37.363-34.656-54.75-52.57v-67.43h-66.703c-17.965-17.391-35.578-37.281-53.293-54.754zm0 102.75c-39.762 0-72 32.234-72 72 0 39.762 32.238 71.996 72 71.996z" opacity=".3"/><path d="m191.81 17.254c-17.711 17.473-34.656 37.367-52.57 54.75h-67.43v67.43c-17.387 17.914-37.273 34.859-54.75 52.57 17.473 17.707 37.363 35.324 54.75 53.293v66.703h67.43c17.914 17.387 34.863 37.273 52.57 54.75 17.707-17.473 35.328-37.363 53.297-54.75h66.703v-66.727c17.387-17.965 37.277-35.566 54.75-53.27-17.473-17.707-37.363-34.656-54.75-52.57v-67.43h-66.703c-17.965-17.391-35.578-37.281-53.293-54.754zm0 102.75c-39.762 0-72 32.234-72 72 0 39.762 32.238 71.996 72 71.996z" fill="#333"/><use mask="url(#b)" xlink:href="#a"/><path d="m191.44 90.75c-53.02 0-96 42.98-96 96s42.98 96 96 96z" fill="#fff"/></svg>
