<svg width="512" height="512" version="1.1" viewBox="0 0 384 384" xmlns="http://www.w3.org/2000/svg"><path d="m176.08 34.535-122.19 0.19141c-10.027-1.3906-18.23 9.4219-18.23 21.121v59.879c0.61719-0.0664 1.2383-0.10937 1.8711-0.10937h137.36l33.129-39.477z" fill="#357af0"/><path d="m206.63 76.16-33.43 39.457h173.22c1.543 0 3.0391 0.19922 4.4844 0.55859l0.0273-20.918c0.0117-8.4297-4.2656-15.711-10.465-19.098z" fill="#306ed7" fill-rule="evenodd"/><path d="m33.293 106.23h317.41c9.6875 0 17.543 7.8359 17.543 17.508v200.72c0 9.668-7.8555 17.508-17.543 17.508h-317.41c-9.6875 0-17.543-7.8398-17.543-17.508v-200.72c0-9.6719 7.8555-17.508 17.543-17.508z" opacity=".3"/><path d="m33.293 113.73h317.41c9.6875 0 17.543 7.8359 17.543 17.508v200.72c0 9.668-7.8555 17.508-17.543 17.508h-317.41c-9.6875 0-17.543-7.8398-17.543-17.508v-200.72c0-9.6719 7.8555-17.508 17.543-17.508z" fill="#f5f5f5"/><path d="m33.293 113.73c-9.7188 0-17.543 7.8086-17.543 17.508v200.72c0 9.6992 7.8242 17.508 17.543 17.508h152.07l181.06-226.04c-2.8672-5.7539-8.8086-9.6953-15.711-9.6953z" fill="#fff"/><path d="m119.41 169.24h131.07c3.0742 0 5.5625 2.3008 5.5625 5.1367v9.8516c0 2.8398-2.4883 5.1406-5.5625 5.1406h-131.07c-3.0703 0-5.5625-2.3008-5.5625-5.1406v-9.8516c0-2.8359 2.4922-5.1367 5.5625-5.1367z" fill-rule="evenodd" opacity=".3"/><path d="m119.41 161.74h131.07c3.0742 0 5.5625 2.3008 5.5625 5.1367v9.8516c0 2.8398-2.4883 5.1406-5.5625 5.1406h-131.07c-3.0703 0-5.5625-2.3008-5.5625-5.1406v-9.8516c0-2.8359 2.4922-5.1367 5.5625-5.1367z" fill="#f5f5f5" fill-rule="evenodd"/><path transform="scale(.75)" d="m19.779 432.61v10c0 12.891 10.474 23.344 23.391 23.344h423.22c12.917 0 23.391-10.453 23.391-23.344v-10c0 12.891-10.474 23.344-23.391 23.344h-423.22c-12.917 0-23.391-10.453-23.391-23.344z" fill="#b3b3b3" stroke-width="1.3333"/></svg>
