<svg width="512" height="512" version="1.1" viewBox="0 0 384 384" xmlns="http://www.w3.org/2000/svg"><g fill-rule="evenodd"><path d="m290.3 36.879h30.18v41.418h-30.18z" fill="#ffc72e"/><path d="m63.953 36.531h30.176v41.422h-30.176z" fill="#ffc72e"/><path d="m34.004 47.406h318.57v137.48h-318.57z" fill="#dc4545"/><path d="m49.762 65.242h285.29v123.12h-285.29z" fill="#ca2828"/></g><path d="m115.28 130.93-9.6367-16.215 8.457-14.527c13.273-22.812 16.887-22.973 16.887-0.75391 0 15.488 3.3281 21.891 11.387 21.891 6.457 0 8.6328-4.4844 10.391-21.414 1.0703-10.305 2.543-15.359 4.3047-14.781 1.4766 0.48047 6.4609 7.3398 11.078 15.246l8.3945 14.375-8.3945 14.77c-7.4922 13.18-9.168 14.773-15.555 14.793-3.9375 0.0117-17.457 0.62109-17.52 0.61328l-10.16-0.82812z" fill="#fff"/><g fill-rule="evenodd"><path d="m222.07 94.941h23.668v82.91h-23.668z" fill="#fff"/><path d="m125.54 143.89h32.336v41.422h-32.336z" fill="#353a4a"/><path d="m16.273 169.98h353.09v170.85h-353.09z" opacity=".3"/><path d="m16.273 177.48h353.09v170.85h-353.09z" fill="#dc4545"/><path d="m16.32 177.41h353.09v56.949h-353.09z" fill="#fd5c5c"/><path d="m63.27 161.54h15.531v41.418h-15.531z" fill="#ffc72e"/><path d="m78.473 161.57h15.531v41.418h-15.531z" fill="#fd8a17"/><path d="m289.87 161.99h15.531v41.418h-15.531z" fill="#ffc72e"/><path d="m305.07 162.02h15.531v41.418h-15.531z" fill="#fd8a17"/></g><g fill-rule="evenodd"><path d="m222.02 93.996v23.257h0.0234v1.9497c0 8.1328 5.2964 14.726 11.832 14.726 6.5352 0 11.836-6.5933 11.836-14.726v-9.9302c0-0.19383-0.0175-0.38221-0.0235-0.57422v-14.703z" fill="#e6e6e6"/><path transform="scale(.75)" d="m21.697 454.44v10h470.78v-10h-470.78z" fill="#100303" opacity=".3" stroke-width="1.3333"/><path transform="scale(.75)" d="m45.338 63.209v10h424.76v-10h-424.76z" fill="#fff" opacity=".3" stroke-width="1.3333"/></g></svg>
